<?xml version="1.0" encoding="utf-8" ?>
<svg baseProfile="full" height="120" version="1.1" width="120" xmlns="http://www.w3.org/2000/svg" xmlns:ev="http://www.w3.org/2001/xml-events" xmlns:xlink="http://www.w3.org/1999/xlink"><defs /><polygon fill="#FFA366" points="18.800000000000004,324.4676729488102 30.800000000000004,282.89845356715716 78.80000000000001,282.89845356715716" stroke="#999999" stroke-width="1" /><polygon fill="#FFA366" points="30.800000000000004,282.89845356715716 42.8,241.3292341855041 90.80000000000001,241.3292341855041" stroke="#999999" stroke-width="1" /><polygon fill="#FFA366" points="18.800000000000004,324.4676729488102 66.80000000000001,324.4676729488102 78.80000000000001,282.89845356715716" stroke="#999999" stroke-width="1" /><polygon fill="#FFA366" points="30.800000000000004,282.89845356715716 78.80000000000001,282.89845356715716 90.80000000000001,241.3292341855041" stroke="#999999" stroke-width="1" /><polygon fill="#FFA366" points="42.8,241.3292341855041 90.80000000000001,241.3292341855041 102.80000000000001,199.76001480385105" stroke="#999999" stroke-width="1" /><polygon fill="#FFA366" points="66.80000000000001,324.4676729488102 78.80000000000001,282.89845356715716 126.80000000000001,282.89845356715716" stroke="#999999" stroke-width="1" /><polygon fill="#FFA366" points="78.80000000000001,282.89845356715716 90.80000000000001,241.3292341855041 138.8,241.3292341855041" stroke="#999999" stroke-width="1" /><polygon fill="#FFA366" points="90.80000000000001,241.3292341855041 102.80000000000001,199.76001480385105 150.8,199.76001480385105" stroke="#999999" stroke-width="1" /><polygon fill="#FFA366" points="66.80000000000001,324.4676729488102 114.80000000000001,324.4676729488102 126.80000000000001,282.89845356715716" stroke="#999999" stroke-width="1" /><polygon fill="#FFA366" points="78.80000000000001,282.89845356715716 126.80000000000001,282.89845356715716 138.8,241.3292341855041" stroke="#999999" stroke-width="1" /><polygon fill="#FFA366" points="90.80000000000001,241.3292341855041 138.8,241.3292341855041 150.8,199.76001480385105" stroke="#999999" stroke-width="1" /><polygon fill="#FFA366" points="114.80000000000001,324.4676729488102 126.80000000000001,282.89845356715716 174.8,282.89845356715716" stroke="#999999" stroke-width="1" /><polygon fill="#FFA366" points="126.80000000000001,282.89845356715716 138.8,241.3292341855041 186.8,241.3292341855041" stroke="#999999" stroke-width="1" /><polygon fill="#FFA366" points="138.8,241.3292341855041 150.8,199.76001480385105 198.8,199.76001480385105" stroke="#999999" stroke-width="1" /><polygon fill="#FFA366" points="126.80000000000001,282.89845356715716 174.8,282.89845356715716 186.8,241.3292341855041" stroke="#999999" stroke-width="1" /><polygon fill="#FFA366" points="138.8,241.3292341855041 186.8,241.3292341855041 198.8,199.76001480385105" stroke="#999999" stroke-width="1" /><line stroke="black" stroke-linecap="round" stroke-width="3" x1="18.800000000000004" x2="114.80000000000001" y1="324.4676729488102" y2="324.4676729488102" /><line stroke="black" stroke-linecap="round" stroke-width="3" x1="114.80000000000001" x2="174.8" y1="324.4676729488102" y2="282.89845356715716" /><line stroke="black" stroke-linecap="round" stroke-width="3" x1="174.8" x2="198.8" y1="282.89845356715716" y2="199.76001480385105" /><line stroke="black" stroke-linecap="round" stroke-width="3" x1="198.8" x2="102.80000000000001" y1="199.76001480385105" y2="199.76001480385105" /><line stroke="black" stroke-linecap="round" stroke-width="3" x1="102.80000000000001" x2="42.8" y1="199.76001480385105" y2="241.3292341855041" /><line stroke="black" stroke-linecap="round" stroke-width="3" x1="42.8" x2="18.800000000000004" y1="241.3292341855041" y2="324.4676729488102" /><line stroke="black" stroke-linecap="round" stroke-width="3" x1="30.800000000000004" x2="126.80000000000001" y1="282.89845356715716" y2="282.89845356715716" /><line stroke="black" stroke-linecap="round" stroke-width="3" x1="90.80000000000001" x2="186.8" y1="241.3292341855041" y2="241.3292341855041" /></svg>