<?xml version="1.0" encoding="utf-8" ?>
<svg baseProfile="full" height="120" version="1.1" width="120" xmlns="http://www.w3.org/2000/svg" xmlns:ev="http://www.w3.org/2001/xml-events" xmlns:xlink="http://www.w3.org/1999/xlink"><defs /><polygon fill="#FFA366" points="3.5,97.16729559300637 11.0,71.18653347947321 41.0,71.18653347947321" stroke="#999999" stroke-width="1" /><polygon fill="#FFA366" points="11.0,71.18653347947321 18.5,45.20577136594005 48.5,45.20577136594005" stroke="#999999" stroke-width="1" /><polygon fill="#FFA366" points="3.5,97.16729559300637 33.5,97.16729559300637 41.0,71.18653347947321" stroke="#999999" stroke-width="1" /><polygon fill="#FFA366" points="11.0,71.18653347947321 41.0,71.18653347947321 48.5,45.20577136594005" stroke="#999999" stroke-width="1" /><polygon fill="#FFA366" points="18.5,45.20577136594005 48.5,45.20577136594005 56.0,19.2250092524069" stroke="#999999" stroke-width="1" /><polygon fill="#FFA366" points="33.5,97.16729559300637 41.0,71.18653347947321 71.0,71.18653347947321" stroke="#999999" stroke-width="1" /><polygon fill="#FFA366" points="41.0,71.18653347947321 48.5,45.20577136594005 78.5,45.20577136594005" stroke="#999999" stroke-width="1" /><polygon fill="#FFA366" points="48.5,45.20577136594005 56.0,19.2250092524069 86.0,19.2250092524069" stroke="#999999" stroke-width="1" /><polygon fill="#FFA366" points="33.5,97.16729559300637 63.5,97.16729559300637 71.0,71.18653347947321" stroke="#999999" stroke-width="1" /><polygon fill="#FFA366" points="41.0,71.18653347947321 71.0,71.18653347947321 78.5,45.20577136594005" stroke="#999999" stroke-width="1" /><polygon fill="#FFA366" points="48.5,45.20577136594005 78.5,45.20577136594005 86.0,19.2250092524069" stroke="#999999" stroke-width="1" /><polygon fill="#FFA366" points="63.5,97.16729559300637 71.0,71.18653347947321 101.0,71.18653347947321" stroke="#999999" stroke-width="1" /><polygon fill="#FFA366" points="71.0,71.18653347947321 78.5,45.20577136594005 108.5,45.20577136594005" stroke="#999999" stroke-width="1" /><polygon fill="#FFA366" points="78.5,45.20577136594005 86.0,19.2250092524069 116.0,19.2250092524069" stroke="#999999" stroke-width="1" /><polygon fill="#FFA366" points="71.0,71.18653347947321 101.0,71.18653347947321 108.5,45.20577136594005" stroke="#999999" stroke-width="1" /><polygon fill="#FFA366" points="78.5,45.20577136594005 108.5,45.20577136594005 116.0,19.2250092524069" stroke="#999999" stroke-width="1" /><line stroke="black" stroke-linecap="round" stroke-width="3" x1="3.5" x2="63.5" y1="97.16729559300637" y2="97.16729559300637" /><line stroke="black" stroke-linecap="round" stroke-width="3" x1="63.5" x2="101.0" y1="97.16729559300637" y2="71.18653347947321" /><line stroke="black" stroke-linecap="round" stroke-width="3" x1="101.0" x2="116.0" y1="71.18653347947321" y2="19.2250092524069" /><line stroke="black" stroke-linecap="round" stroke-width="3" x1="116.0" x2="56.0" y1="19.2250092524069" y2="19.2250092524069" /><line stroke="black" stroke-linecap="round" stroke-width="3" x1="56.0" x2="18.5" y1="19.2250092524069" y2="45.20577136594005" /><line stroke="black" stroke-linecap="round" stroke-width="3" x1="18.5" x2="3.5" y1="45.20577136594005" y2="97.16729559300637" /><line stroke="black" stroke-linecap="round" stroke-width="3" x1="11.0" x2="71.0" y1="71.18653347947321" y2="71.18653347947321" /><line stroke="black" stroke-linecap="round" stroke-width="3" x1="48.5" x2="108.5" y1="45.20577136594005" y2="45.20577136594005" /></svg>