<?xml version="1.0" encoding="utf-8" ?>
<svg baseProfile="full" height="200" version="1.1" width="780" xmlns="http://www.w3.org/2000/svg" xmlns:ev="http://www.w3.org/2001/xml-events" xmlns:xlink="http://www.w3.org/1999/xlink"><defs /><polygon fill="white" points="20.0,109.96152422706632 80.0,109.96152422706632 117.5,83.98076211353316 132.5,32.01923788646684 72.5,32.01923788646684 35.0,58.0 20.0,109.96152422706632" /><polygon fill="white" points="140.0,109.96152422706632 200.0,109.96152422706632 237.5,83.98076211353316 252.5,32.01923788646684 222.5,32.01923788646684 215.0,58.0 185.0,58.0 192.5,32.01923788646684 155.0,58.0 140.0,109.96152422706632" /><polygon fill="white" points="260.0,109.96152422706632 290.0,109.96152422706632 297.5,83.98076211353316 327.5,83.98076211353316 320.0,109.96152422706632 357.5,83.98076211353316 372.5,32.01923788646684 312.5,32.01923788646684 275.0,58.0 260.0,109.96152422706632" /><polygon fill="white" points="380.0,109.96152422706632 410.0,109.96152422706632 417.5,83.98076211353316 447.5,83.98076211353316 455.0,58.0 485.0,58.0 492.5,32.01923788646684 432.5,32.01923788646684 395.0,58.0 380.0,109.96152422706632" /><polygon fill="white" points="500.0,109.96152422706632 560.0,109.96152422706632 597.5,83.98076211353316 567.5,83.98076211353316 575.0,58.0 605.0,58.0 612.5,32.01923788646684 552.5,32.01923788646684 515.0,58.0 500.0,109.96152422706632" /><polygon fill="white" points="620.0,109.96152422706632 650.0,109.96152422706632 657.5,83.98076211353316 687.5,83.98076211353316 680.0,109.96152422706632 717.5,83.98076211353316 732.5,32.01923788646684 672.5,32.01923788646684 635.0,58.0 620.0,109.96152422706632" /><polygon fill="#BBBBBB" points="-77.5,213.88457268119896 -70.0,187.90381056766577 -40.0,187.90381056766577" stroke="black" stroke-width="1" /><polygon fill="#999999" points="-70.0,187.90381056766577 -62.5,161.92304845413264 -32.5,161.92304845413264" stroke="black" stroke-width="1" /><polygon fill="#AAAAAA" points="-62.5,161.92304845413264 -55.0,135.94228634059948 -25.0,135.94228634059948" stroke="black" stroke-width="1" /><polygon fill="#CCCCCC" points="-55.0,135.94228634059948 -47.5,109.96152422706632 -17.5,109.96152422706632" stroke="black" stroke-width="1" /><polygon fill="#BBBBBB" points="-47.5,109.96152422706632 -40.0,83.98076211353316 -10.0,83.98076211353316" stroke="black" stroke-width="1" /><polygon fill="#999999" points="-40.0,83.98076211353316 -32.5,58.0 -2.5,58.0" stroke="black" stroke-width="1" /><polygon fill="#AAAAAA" points="-32.5,58.0 -25.0,32.01923788646684 5.0,32.01923788646684" stroke="black" stroke-width="1" /><polygon fill="#999999" points="-25.0,32.01923788646684 -17.5,6.038475772933687 12.5,6.038475772933687" stroke="black" stroke-width="1" /><polygon fill="#BBBBBB" points="-17.5,6.038475772933687 -10.0,-19.94228634059948 20.0,-19.94228634059948" stroke="black" stroke-width="1" /><polygon fill="#AAAAAA" points="-77.5,213.88457268119896 -47.5,213.88457268119896 -40.0,187.90381056766577" stroke="black" stroke-width="1" /><polygon fill="#CCCCCC" points="-70.0,187.90381056766577 -40.0,187.90381056766577 -32.5,161.92304845413264" stroke="black" stroke-width="1" /><polygon fill="#AAAAAA" points="-62.5,161.92304845413264 -32.5,161.92304845413264 -25.0,135.94228634059948" stroke="black" stroke-width="1" /><polygon fill="#BBBBBB" points="-55.0,135.94228634059948 -25.0,135.94228634059948 -17.5,109.96152422706632" stroke="black" stroke-width="1" /><polygon fill="#AAAAAA" points="-47.5,109.96152422706632 -17.5,109.96152422706632 -10.0,83.98076211353316" stroke="black" stroke-width="1" /><polygon fill="#CCCCCC" points="-40.0,83.98076211353316 -10.0,83.98076211353316 -2.5,58.0" stroke="black" stroke-width="1" /><polygon fill="#BBBBBB" points="-32.5,58.0 -2.5,58.0 5.0,32.01923788646684" stroke="black" stroke-width="1" /><polygon fill="#AAAAAA" points="-25.0,32.01923788646684 5.0,32.01923788646684 12.5,6.038475772933687" stroke="black" stroke-width="1" /><polygon fill="#CCCCCC" points="-17.5,6.038475772933687 12.5,6.038475772933687 20.0,-19.94228634059948" stroke="black" stroke-width="1" /><polygon fill="#CCCCCC" points="-47.5,213.88457268119896 -40.0,187.90381056766577 -10.0,187.90381056766577" stroke="black" stroke-width="1" /><polygon fill="#AAAAAA" points="-40.0,187.90381056766577 -32.5,161.92304845413264 -2.5,161.92304845413264" stroke="black" stroke-width="1" /><polygon fill="#CCCCCC" points="-32.5,161.92304845413264 -25.0,135.94228634059948 5.0,135.94228634059948" stroke="black" stroke-width="1" /><polygon fill="#999999" points="-25.0,135.94228634059948 -17.5,109.96152422706632 12.5,109.96152422706632" stroke="black" stroke-width="1" /><polygon fill="#CCCCCC" points="-17.5,109.96152422706632 -10.0,83.98076211353316 20.0,83.98076211353316" stroke="black" stroke-width="1" /><polygon fill="#AAAAAA" points="-10.0,83.98076211353316 -2.5,58.0 27.5,58.0" stroke="black" stroke-width="1" /><polygon fill="#BBBBBB" points="-2.5,58.0 5.0,32.01923788646684 35.0,32.01923788646684" stroke="black" stroke-width="1" /><polygon fill="#CCCCCC" points="5.0,32.01923788646684 12.5,6.038475772933687 42.5,6.038475772933687" stroke="black" stroke-width="1" /><polygon fill="#AAAAAA" points="12.5,6.038475772933687 20.0,-19.94228634059948 50.0,-19.94228634059948" stroke="black" stroke-width="1" /><polygon fill="#AAAAAA" points="-47.5,213.88457268119896 -17.5,213.88457268119896 -10.0,187.90381056766577" stroke="black" stroke-width="1" /><polygon fill="#BBBBBB" points="-40.0,187.90381056766577 -10.0,187.90381056766577 -2.5,161.92304845413264" stroke="black" stroke-width="1" /><polygon fill="#CCCCCC" points="-32.5,161.92304845413264 -2.5,161.92304845413264 5.0,135.94228634059948" stroke="black" stroke-width="1" /><polygon fill="#AAAAAA" points="-25.0,135.94228634059948 5.0,135.94228634059948 12.5,109.96152422706632" stroke="black" stroke-width="1" /><polygon fill="#CCCCCC" points="-17.5,109.96152422706632 12.5,109.96152422706632 20.0,83.98076211353316" stroke="black" stroke-width="1" /><polygon fill="#BBBBBB" points="-10.0,83.98076211353316 20.0,83.98076211353316 27.5,58.0" stroke="black" stroke-width="1" /><polygon fill="#999999" points="-2.5,58.0 27.5,58.0 35.0,32.01923788646684" stroke="black" stroke-width="1" /><polygon fill="#BBBBBB" points="5.0,32.01923788646684 35.0,32.01923788646684 42.5,6.038475772933687" stroke="black" stroke-width="1" /><polygon fill="#CCCCCC" points="12.5,6.038475772933687 42.5,6.038475772933687 50.0,-19.94228634059948" stroke="black" stroke-width="1" /><polygon fill="#999999" points="-17.5,213.88457268119896 -10.0,187.90381056766577 20.0,187.90381056766577" stroke="black" stroke-width="1" /><polygon fill="#CCCCCC" points="-10.0,187.90381056766577 -2.5,161.92304845413264 27.5,161.92304845413264" stroke="black" stroke-width="1" /><polygon fill="#BBBBBB" points="20.0,83.98076211353316 27.5,58.0 57.5,58.0" stroke="black" stroke-width="1" /><polygon fill="#BBBBBB" points="27.5,58.0 35.0,32.01923788646684 65.0,32.01923788646684" stroke="black" stroke-width="1" /><polygon fill="#999999" points="35.0,32.01923788646684 42.5,6.038475772933687 72.5,6.038475772933687" stroke="black" stroke-width="1" /><polygon fill="#AAAAAA" points="42.5,6.038475772933687 50.0,-19.94228634059948 80.0,-19.94228634059948" stroke="black" stroke-width="1" /><polygon fill="#CCCCCC" points="-17.5,213.88457268119896 12.5,213.88457268119896 20.0,187.90381056766577" stroke="black" stroke-width="1" /><polygon fill="#CCCCCC" points="-10.0,187.90381056766577 20.0,187.90381056766577 27.5,161.92304845413264" stroke="black" stroke-width="1" /><polygon fill="#999999" points="27.5,58.0 57.5,58.0 65.0,32.01923788646684" stroke="black" stroke-width="1" /><polygon fill="#AAAAAA" points="35.0,32.01923788646684 65.0,32.01923788646684 72.5,6.038475772933687" stroke="black" stroke-width="1" /><polygon fill="#CCCCCC" points="42.5,6.038475772933687 72.5,6.038475772933687 80.0,-19.94228634059948" stroke="black" stroke-width="1" /><polygon fill="#CCCCCC" points="-2.5,161.92304845413264 5.0,135.94228634059948 15.5,102.16729559300637" stroke="black" stroke-width="1" /><polygon fill="#999999" points="5.0,135.94228634059948 12.5,109.96152422706632 23.0,76.18653347947321" stroke="black" stroke-width="1" /><polygon fill="#999999" points="12.5,109.96152422706632 20.0,83.98076211353316 30.5,50.20577136594005" stroke="black" stroke-width="1" /><polygon fill="#999999" points="-2.5,161.92304845413264 27.5,161.92304845413264 15.5,102.16729559300637" stroke="black" stroke-width="1" /><polygon fill="#BBBBBB" points="20.0,83.98076211353316 30.5,50.20577136594005 57.5,58.0" stroke="black" stroke-width="1" /><polygon fill="#999999" points="12.5,213.88457268119896 20.0,187.90381056766577 50.0,187.90381056766577" stroke="black" stroke-width="1" /><polygon fill="#CCCCCC" points="20.0,187.90381056766577 27.5,161.92304845413264 57.5,161.92304845413264" stroke="black" stroke-width="1" /><polygon fill="#BBBBBB" points="57.5,58.0 65.0,32.01923788646684 95.0,32.01923788646684" stroke="black" stroke-width="1" /><polygon fill="#999999" points="65.0,32.01923788646684 72.5,6.038475772933687 102.5,6.038475772933687" stroke="black" stroke-width="1" /><polygon fill="#999999" points="72.5,6.038475772933687 80.0,-19.94228634059948 110.0,-19.94228634059948" stroke="black" stroke-width="1" /><polygon fill="#AAAAAA" points="5.0,135.94228634059948 15.5,102.16729559300637 23.0,76.18653347947321" stroke="black" stroke-width="1" /><polygon fill="#BBBBBB" points="12.5,109.96152422706632 23.0,76.18653347947321 30.5,50.20577136594005" stroke="black" stroke-width="1" /><polygon fill="#BBBBBB" points="12.5,213.88457268119896 42.5,213.88457268119896 50.0,187.90381056766577" stroke="black" stroke-width="1" /><polygon fill="#AAAAAA" points="20.0,187.90381056766577 50.0,187.90381056766577 57.5,161.92304845413264" stroke="black" stroke-width="1" /><polygon fill="#AAAAAA" points="65.0,32.01923788646684 95.0,32.01923788646684 102.5,6.038475772933687" stroke="black" stroke-width="1" /><polygon fill="#999999" points="72.5,6.038475772933687 102.5,6.038475772933687 110.0,-19.94228634059948" stroke="black" stroke-width="1" /><polygon fill="#BBBBBB" points="27.5,161.92304845413264 57.5,161.92304845413264 45.5,102.16729559300637" stroke="black" stroke-width="1" /><polygon fill="#CCCCCC" points="57.5,58.0 68.0,24.2250092524069 95.0,32.01923788646684" stroke="black" stroke-width="1" /><polygon fill="#CCCCCC" points="27.5,161.92304845413264 15.5,102.16729559300637 45.5,102.16729559300637" stroke="black" stroke-width="1" /><polygon fill="#AAAAAA" points="30.5,50.20577136594005 57.5,58.0 68.0,24.2250092524069" stroke="black" stroke-width="1" /><polygon fill="#BBBBBB" points="42.5,213.88457268119896 50.0,187.90381056766577 80.0,187.90381056766577" stroke="black" stroke-width="1" /><polygon fill="#999999" points="50.0,187.90381056766577 57.5,161.92304845413264 87.5,161.92304845413264" stroke="black" stroke-width="1" /><polygon fill="#AAAAAA" points="95.0,32.01923788646684 102.5,6.038475772933687 132.5,6.038475772933687" stroke="black" stroke-width="1" /><polygon fill="#AAAAAA" points="102.5,6.038475772933687 110.0,-19.94228634059948 140.0,-19.94228634059948" stroke="black" stroke-width="1" /><polygon fill="#FFA366" points="15.5,102.16729559300637 23.0,76.18653347947321 53.0,76.18653347947321" stroke="#999999" stroke-width="1" /><polygon fill="#FFA366" points="23.0,76.18653347947321 30.5,50.20577136594005 60.5,50.20577136594005" stroke="#999999" stroke-width="1" /><polygon fill="#999999" points="42.5,213.88457268119896 72.5,213.88457268119896 80.0,187.90381056766577" stroke="black" stroke-width="1" /><polygon fill="#CCCCCC" points="50.0,187.90381056766577 80.0,187.90381056766577 87.5,161.92304845413264" stroke="black" stroke-width="1" /><polygon fill="#CCCCCC" points="95.0,32.01923788646684 125.0,32.01923788646684 132.5,6.038475772933687" stroke="black" stroke-width="1" /><polygon fill="#999999" points="102.5,6.038475772933687 132.5,6.038475772933687 140.0,-19.94228634059948" stroke="black" stroke-width="1" /><polygon fill="#AAAAAA" points="68.0,24.2250092524069 95.0,32.01923788646684 125.0,32.01923788646684" stroke="black" stroke-width="1" /><polygon fill="#FFA366" points="15.5,102.16729559300637 45.5,102.16729559300637 53.0,76.18653347947321" stroke="#999999" stroke-width="1" /><polygon fill="#FFA366" points="23.0,76.18653347947321 53.0,76.18653347947321 60.5,50.20577136594005" stroke="#999999" stroke-width="1" /><polygon fill="#FFA366" points="30.5,50.20577136594005 60.5,50.20577136594005 68.0,24.2250092524069" stroke="#999999" stroke-width="1" /><polygon fill="#CCCCCC" points="57.5,161.92304845413264 87.5,161.92304845413264 75.5,102.16729559300637" stroke="black" stroke-width="1" /><polygon fill="#AAAAAA" points="57.5,161.92304845413264 45.5,102.16729559300637 75.5,102.16729559300637" stroke="black" stroke-width="1" /><polygon fill="#BBBBBB" points="72.5,213.88457268119896 80.0,187.90381056766577 110.0,187.90381056766577" stroke="black" stroke-width="1" /><polygon fill="#999999" points="80.0,187.90381056766577 87.5,161.92304845413264 117.5,161.92304845413264" stroke="black" stroke-width="1" /><polygon fill="#BBBBBB" points="125.0,32.01923788646684 132.5,6.038475772933687 162.5,6.038475772933687" stroke="black" stroke-width="1" /><polygon fill="#BBBBBB" points="132.5,6.038475772933687 140.0,-19.94228634059948 170.0,-19.94228634059948" stroke="black" stroke-width="1" /><polygon fill="#AAAAAA" points="68.0,24.2250092524069 98.0,24.2250092524069 125.0,32.01923788646684" stroke="black" stroke-width="1" /><polygon fill="#FFA366" points="45.5,102.16729559300637 53.0,76.18653347947321 83.0,76.18653347947321" stroke="#999999" stroke-width="1" /><polygon fill="#FFA366" points="53.0,76.18653347947321 60.5,50.20577136594005 90.5,50.20577136594005" stroke="#999999" stroke-width="1" /><polygon fill="#FFA366" points="60.5,50.20577136594005 68.0,24.2250092524069 98.0,24.2250092524069" stroke="#999999" stroke-width="1" /><polygon fill="#BBBBBB" points="72.5,213.88457268119896 102.5,213.88457268119896 110.0,187.90381056766577" stroke="black" stroke-width="1" /><polygon fill="#CCCCCC" points="80.0,187.90381056766577 110.0,187.90381056766577 117.5,161.92304845413264" stroke="black" stroke-width="1" /><polygon fill="#999999" points="87.5,161.92304845413264 117.5,161.92304845413264 125.0,135.94228634059948" stroke="black" stroke-width="1" /><polygon fill="#BBBBBB" points="125.0,32.01923788646684 155.0,32.01923788646684 162.5,6.038475772933687" stroke="black" stroke-width="1" /><polygon fill="#999999" points="132.5,6.038475772933687 162.5,6.038475772933687 170.0,-19.94228634059948" stroke="black" stroke-width="1" /><polygon fill="#BBBBBB" points="87.5,161.92304845413264 75.5,102.16729559300637 125.0,135.94228634059948" stroke="black" stroke-width="1" /><polygon fill="#AAAAAA" points="98.0,24.2250092524069 125.0,32.01923788646684 155.0,32.01923788646684" stroke="black" stroke-width="1" /><polygon fill="#FFA366" points="45.5,102.16729559300637 75.5,102.16729559300637 83.0,76.18653347947321" stroke="#999999" stroke-width="1" /><polygon fill="#FFA366" points="53.0,76.18653347947321 83.0,76.18653347947321 90.5,50.20577136594005" stroke="#999999" stroke-width="1" /><polygon fill="#FFA366" points="60.5,50.20577136594005 90.5,50.20577136594005 98.0,24.2250092524069" stroke="#999999" stroke-width="1" /><polygon fill="#BBBBBB" points="102.5,213.88457268119896 110.0,187.90381056766577 140.0,187.90381056766577" stroke="black" stroke-width="1" /><polygon fill="#AAAAAA" points="110.0,187.90381056766577 117.5,161.92304845413264 147.5,161.92304845413264" stroke="black" stroke-width="1" /><polygon fill="#999999" points="155.0,32.01923788646684 162.5,6.038475772933687 192.5,6.038475772933687" stroke="black" stroke-width="1" /><polygon fill="#AAAAAA" points="162.5,6.038475772933687 170.0,-19.94228634059948 200.0,-19.94228634059948" stroke="black" stroke-width="1" /><polygon fill="#CCCCCC" points="75.5,102.16729559300637 125.0,135.94228634059948 113.0,76.18653347947321" stroke="black" stroke-width="1" /><polygon fill="#999999" points="98.0,24.2250092524069 128.0,24.2250092524069 155.0,32.01923788646684" stroke="black" stroke-width="1" /><polygon fill="#FFA366" points="75.5,102.16729559300637 83.0,76.18653347947321 113.0,76.18653347947321" stroke="#999999" stroke-width="1" /><polygon fill="#FFA366" points="83.0,76.18653347947321 90.5,50.20577136594005 120.5,50.20577136594005" stroke="#999999" stroke-width="1" /><polygon fill="#FFA366" points="90.5,50.20577136594005 98.0,24.2250092524069 128.0,24.2250092524069" stroke="#999999" stroke-width="1" /><polygon fill="#AAAAAA" points="102.5,213.88457268119896 132.5,213.88457268119896 140.0,187.90381056766577" stroke="black" stroke-width="1" /><polygon fill="#CCCCCC" points="110.0,187.90381056766577 140.0,187.90381056766577 147.5,161.92304845413264" stroke="black" stroke-width="1" /><polygon fill="#CCCCCC" points="155.0,32.01923788646684 185.0,32.01923788646684 192.5,6.038475772933687" stroke="black" stroke-width="1" /><polygon fill="#BBBBBB" points="162.5,6.038475772933687 192.5,6.038475772933687 200.0,-19.94228634059948" stroke="black" stroke-width="1" /><polygon fill="#999999" points="117.5,161.92304845413264 125.0,135.94228634059948 135.5,102.16729559300637" stroke="black" stroke-width="1" /><polygon fill="#CCCCCC" points="128.0,24.2250092524069 155.0,32.01923788646684 185.0,32.01923788646684" stroke="black" stroke-width="1" /><polygon fill="#FFA366" points="83.0,76.18653347947321 113.0,76.18653347947321 120.5,50.20577136594005" stroke="#999999" stroke-width="1" /><polygon fill="#FFA366" points="90.5,50.20577136594005 120.5,50.20577136594005 128.0,24.2250092524069" stroke="#999999" stroke-width="1" /><polygon fill="#CCCCCC" points="117.5,161.92304845413264 147.5,161.92304845413264 135.5,102.16729559300637" stroke="black" stroke-width="1" /><polygon fill="#999999" points="128.0,24.2250092524069 177.5,58.0 185.0,32.01923788646684" stroke="black" stroke-width="1" /><polygon fill="#AAAAAA" points="125.0,135.94228634059948 113.0,76.18653347947321 143.0,76.18653347947321" stroke="black" stroke-width="1" /><polygon fill="#999999" points="120.5,50.20577136594005 128.0,24.2250092524069 177.5,58.0" stroke="black" stroke-width="1" /><polygon fill="#CCCCCC" points="132.5,213.88457268119896 140.0,187.90381056766577 170.0,187.90381056766577" stroke="black" stroke-width="1" /><polygon fill="#BBBBBB" points="140.0,187.90381056766577 147.5,161.92304845413264 177.5,161.92304845413264" stroke="black" stroke-width="1" /><polygon fill="#BBBBBB" points="177.5,58.0 185.0,32.01923788646684 215.0,32.01923788646684" stroke="black" stroke-width="1" /><polygon fill="#CCCCCC" points="185.0,32.01923788646684 192.5,6.038475772933687 222.5,6.038475772933687" stroke="black" stroke-width="1" /><polygon fill="#999999" points="192.5,6.038475772933687 200.0,-19.94228634059948 230.0,-19.94228634059948" stroke="black" stroke-width="1" /><polygon fill="#BBBBBB" points="125.0,135.94228634059948 135.5,102.16729559300637 143.0,76.18653347947321" stroke="black" stroke-width="1" /><polygon fill="#AAAAAA" points="120.5,50.20577136594005 150.5,50.20577136594005 177.5,58.0" stroke="black" stroke-width="1" /><polygon fill="#BBBBBB" points="113.0,76.18653347947321 120.5,50.20577136594005 150.5,50.20577136594005" stroke="black" stroke-width="1" /><polygon fill="#BBBBBB" points="132.5,213.88457268119896 162.5,213.88457268119896 170.0,187.90381056766577" stroke="black" stroke-width="1" /><polygon fill="#AAAAAA" points="140.0,187.90381056766577 170.0,187.90381056766577 177.5,161.92304845413264" stroke="black" stroke-width="1" /><polygon fill="#BBBBBB" points="185.0,32.01923788646684 215.0,32.01923788646684 222.5,6.038475772933687" stroke="black" stroke-width="1" /><polygon fill="#CCCCCC" points="192.5,6.038475772933687 222.5,6.038475772933687 230.0,-19.94228634059948" stroke="black" stroke-width="1" /><polygon fill="#999999" points="113.0,76.18653347947321 143.0,76.18653347947321 150.5,50.20577136594005" stroke="black" stroke-width="1" /><polygon fill="#BBBBBB" points="147.5,161.92304845413264 177.5,161.92304845413264 165.5,102.16729559300637" stroke="black" stroke-width="1" /><polygon fill="#BBBBBB" points="177.5,58.0 188.0,24.2250092524069 215.0,32.01923788646684" stroke="black" stroke-width="1" /><polygon fill="#999999" points="147.5,161.92304845413264 135.5,102.16729559300637 165.5,102.16729559300637" stroke="black" stroke-width="1" /><polygon fill="#AAAAAA" points="150.5,50.20577136594005 177.5,58.0 188.0,24.2250092524069" stroke="black" stroke-width="1" /><polygon fill="#999999" points="162.5,213.88457268119896 170.0,187.90381056766577 200.0,187.90381056766577" stroke="black" stroke-width="1" /><polygon fill="#AAAAAA" points="170.0,187.90381056766577 177.5,161.92304845413264 207.5,161.92304845413264" stroke="black" stroke-width="1" /><polygon fill="#AAAAAA" points="215.0,32.01923788646684 222.5,6.038475772933687 252.5,6.038475772933687" stroke="black" stroke-width="1" /><polygon fill="#AAAAAA" points="222.5,6.038475772933687 230.0,-19.94228634059948 260.0,-19.94228634059948" stroke="black" stroke-width="1" /><polygon fill="#FFA366" points="135.5,102.16729559300637 143.0,76.18653347947321 173.0,76.18653347947321" stroke="#999999" stroke-width="1" /><polygon fill="#FFA366" points="143.0,76.18653347947321 150.5,50.20577136594005 180.5,50.20577136594005" stroke="#999999" stroke-width="1" /><polygon fill="#AAAAAA" points="162.5,213.88457268119896 192.5,213.88457268119896 200.0,187.90381056766577" stroke="black" stroke-width="1" /><polygon fill="#AAAAAA" points="170.0,187.90381056766577 200.0,187.90381056766577 207.5,161.92304845413264" stroke="black" stroke-width="1" /><polygon fill="#CCCCCC" points="215.0,32.01923788646684 245.0,32.01923788646684 252.5,6.038475772933687" stroke="black" stroke-width="1" /><polygon fill="#BBBBBB" points="222.5,6.038475772933687 252.5,6.038475772933687 260.0,-19.94228634059948" stroke="black" stroke-width="1" /><polygon fill="#999999" points="188.0,24.2250092524069 215.0,32.01923788646684 245.0,32.01923788646684" stroke="black" stroke-width="1" /><polygon fill="#FFA366" points="135.5,102.16729559300637 165.5,102.16729559300637 173.0,76.18653347947321" stroke="#999999" stroke-width="1" /><polygon fill="#FFA366" points="143.0,76.18653347947321 173.0,76.18653347947321 180.5,50.20577136594005" stroke="#999999" stroke-width="1" /><polygon fill="#FFA366" points="150.5,50.20577136594005 180.5,50.20577136594005 188.0,24.2250092524069" stroke="#999999" stroke-width="1" /><polygon fill="#999999" points="177.5,161.92304845413264 207.5,161.92304845413264 195.5,102.16729559300637" stroke="black" stroke-width="1" /><polygon fill="#AAAAAA" points="177.5,161.92304845413264 165.5,102.16729559300637 195.5,102.16729559300637" stroke="black" stroke-width="1" /><polygon fill="#CCCCCC" points="192.5,213.88457268119896 200.0,187.90381056766577 230.0,187.90381056766577" stroke="black" stroke-width="1" /><polygon fill="#BBBBBB" points="200.0,187.90381056766577 207.5,161.92304845413264 237.5,161.92304845413264" stroke="black" stroke-width="1" /><polygon fill="#BBBBBB" points="245.0,32.01923788646684 252.5,6.038475772933687 282.5,6.038475772933687" stroke="black" stroke-width="1" /><polygon fill="#AAAAAA" points="252.5,6.038475772933687 260.0,-19.94228634059948 290.0,-19.94228634059948" stroke="black" stroke-width="1" /><polygon fill="#BBBBBB" points="188.0,24.2250092524069 218.0,24.2250092524069 245.0,32.01923788646684" stroke="black" stroke-width="1" /><polygon fill="#FFA366" points="165.5,102.16729559300637 173.0,76.18653347947321 203.0,76.18653347947321" stroke="#999999" stroke-width="1" /><polygon fill="#FFA366" points="173.0,76.18653347947321 180.5,50.20577136594005 210.5,50.20577136594005" stroke="#999999" stroke-width="1" /><polygon fill="#999999" points="180.5,50.20577136594005 188.0,24.2250092524069 218.0,24.2250092524069" stroke="black" stroke-width="1" /><polygon fill="#AAAAAA" points="192.5,213.88457268119896 222.5,213.88457268119896 230.0,187.90381056766577" stroke="black" stroke-width="1" /><polygon fill="#BBBBBB" points="200.0,187.90381056766577 230.0,187.90381056766577 237.5,161.92304845413264" stroke="black" stroke-width="1" /><polygon fill="#BBBBBB" points="207.5,161.92304845413264 237.5,161.92304845413264 245.0,135.94228634059948" stroke="black" stroke-width="1" /><polygon fill="#CCCCCC" points="245.0,32.01923788646684 275.0,32.01923788646684 282.5,6.038475772933687" stroke="black" stroke-width="1" /><polygon fill="#999999" points="252.5,6.038475772933687 282.5,6.038475772933687 290.0,-19.94228634059948" stroke="black" stroke-width="1" /><polygon fill="#BBBBBB" points="207.5,161.92304845413264 195.5,102.16729559300637 245.0,135.94228634059948" stroke="black" stroke-width="1" /><polygon fill="#AAAAAA" points="218.0,24.2250092524069 245.0,32.01923788646684 275.0,32.01923788646684" stroke="black" stroke-width="1" /><polygon fill="#FFA366" points="165.5,102.16729559300637 195.5,102.16729559300637 203.0,76.18653347947321" stroke="#999999" stroke-width="1" /><polygon fill="#FFA366" points="173.0,76.18653347947321 203.0,76.18653347947321 210.5,50.20577136594005" stroke="#999999" stroke-width="1" /><polygon fill="#BBBBBB" points="180.5,50.20577136594005 210.5,50.20577136594005 218.0,24.2250092524069" stroke="black" stroke-width="1" /><polygon fill="#BBBBBB" points="222.5,213.88457268119896 230.0,187.90381056766577 260.0,187.90381056766577" stroke="black" stroke-width="1" /><polygon fill="#CCCCCC" points="230.0,187.90381056766577 237.5,161.92304845413264 267.5,161.92304845413264" stroke="black" stroke-width="1" /><polygon fill="#CCCCCC" points="275.0,32.01923788646684 282.5,6.038475772933687 312.5,6.038475772933687" stroke="black" stroke-width="1" /><polygon fill="#999999" points="282.5,6.038475772933687 290.0,-19.94228634059948 320.0,-19.94228634059948" stroke="black" stroke-width="1" /><polygon fill="#AAAAAA" points="195.5,102.16729559300637 245.0,135.94228634059948 233.0,76.18653347947321" stroke="black" stroke-width="1" /><polygon fill="#CCCCCC" points="218.0,24.2250092524069 248.0,24.2250092524069 275.0,32.01923788646684" stroke="black" stroke-width="1" /><polygon fill="#FFA366" points="195.5,102.16729559300637 203.0,76.18653347947321 233.0,76.18653347947321" stroke="#999999" stroke-width="1" /><polygon fill="#FFA366" points="203.0,76.18653347947321 210.5,50.20577136594005 240.5,50.20577136594005" stroke="#999999" stroke-width="1" /><polygon fill="#FFA366" points="210.5,50.20577136594005 218.0,24.2250092524069 248.0,24.2250092524069" stroke="#999999" stroke-width="1" /><polygon fill="#999999" points="222.5,213.88457268119896 252.5,213.88457268119896 260.0,187.90381056766577" stroke="black" stroke-width="1" /><polygon fill="#CCCCCC" points="230.0,187.90381056766577 260.0,187.90381056766577 267.5,161.92304845413264" stroke="black" stroke-width="1" /><polygon fill="#AAAAAA" points="275.0,32.01923788646684 305.0,32.01923788646684 312.5,6.038475772933687" stroke="black" stroke-width="1" /><polygon fill="#999999" points="282.5,6.038475772933687 312.5,6.038475772933687 320.0,-19.94228634059948" stroke="black" stroke-width="1" /><polygon fill="#BBBBBB" points="237.5,161.92304845413264 245.0,135.94228634059948 255.5,102.16729559300637" stroke="black" stroke-width="1" /><polygon fill="#BBBBBB" points="248.0,24.2250092524069 275.0,32.01923788646684 305.0,32.01923788646684" stroke="black" stroke-width="1" /><polygon fill="#FFA366" points="203.0,76.18653347947321 233.0,76.18653347947321 240.5,50.20577136594005" stroke="#999999" stroke-width="1" /><polygon fill="#FFA366" points="210.5,50.20577136594005 240.5,50.20577136594005 248.0,24.2250092524069" stroke="#999999" stroke-width="1" /><polygon fill="#999999" points="237.5,161.92304845413264 267.5,161.92304845413264 255.5,102.16729559300637" stroke="black" stroke-width="1" /><polygon fill="#CCCCCC" points="248.0,24.2250092524069 297.5,58.0 305.0,32.01923788646684" stroke="black" stroke-width="1" /><polygon fill="#999999" points="245.0,135.94228634059948 233.0,76.18653347947321 263.0,76.18653347947321" stroke="black" stroke-width="1" /><polygon fill="#CCCCCC" points="240.5,50.20577136594005 248.0,24.2250092524069 297.5,58.0" stroke="black" stroke-width="1" /><polygon fill="#999999" points="252.5,213.88457268119896 260.0,187.90381056766577 290.0,187.90381056766577" stroke="black" stroke-width="1" /><polygon fill="#CCCCCC" points="260.0,187.90381056766577 267.5,161.92304845413264 297.5,161.92304845413264" stroke="black" stroke-width="1" /><polygon fill="#CCCCCC" points="297.5,58.0 305.0,32.01923788646684 335.0,32.01923788646684" stroke="black" stroke-width="1" /><polygon fill="#BBBBBB" points="305.0,32.01923788646684 312.5,6.038475772933687 342.5,6.038475772933687" stroke="black" stroke-width="1" /><polygon fill="#AAAAAA" points="312.5,6.038475772933687 320.0,-19.94228634059948 350.0,-19.94228634059948" stroke="black" stroke-width="1" /><polygon fill="#AAAAAA" points="245.0,135.94228634059948 255.5,102.16729559300637 263.0,76.18653347947321" stroke="black" stroke-width="1" /><polygon fill="#999999" points="240.5,50.20577136594005 270.5,50.20577136594005 297.5,58.0" stroke="black" stroke-width="1" /><polygon fill="#999999" points="233.0,76.18653347947321 240.5,50.20577136594005 270.5,50.20577136594005" stroke="black" stroke-width="1" /><polygon fill="#BBBBBB" points="252.5,213.88457268119896 282.5,213.88457268119896 290.0,187.90381056766577" stroke="black" stroke-width="1" /><polygon fill="#999999" points="260.0,187.90381056766577 290.0,187.90381056766577 297.5,161.92304845413264" stroke="black" stroke-width="1" /><polygon fill="#999999" points="305.0,32.01923788646684 335.0,32.01923788646684 342.5,6.038475772933687" stroke="black" stroke-width="1" /><polygon fill="#999999" points="312.5,6.038475772933687 342.5,6.038475772933687 350.0,-19.94228634059948" stroke="black" stroke-width="1" /><polygon fill="#CCCCCC" points="233.0,76.18653347947321 263.0,76.18653347947321 270.5,50.20577136594005" stroke="black" stroke-width="1" /><polygon fill="#BBBBBB" points="267.5,161.92304845413264 297.5,161.92304845413264 285.5,102.16729559300637" stroke="black" stroke-width="1" /><polygon fill="#CCCCCC" points="297.5,58.0 308.0,24.2250092524069 335.0,32.01923788646684" stroke="black" stroke-width="1" /><polygon fill="#999999" points="267.5,161.92304845413264 255.5,102.16729559300637 285.5,102.16729559300637" stroke="black" stroke-width="1" /><polygon fill="#AAAAAA" points="270.5,50.20577136594005 297.5,58.0 308.0,24.2250092524069" stroke="black" stroke-width="1" /><polygon fill="#AAAAAA" points="282.5,213.88457268119896 290.0,187.90381056766577 320.0,187.90381056766577" stroke="black" stroke-width="1" /><polygon fill="#AAAAAA" points="290.0,187.90381056766577 297.5,161.92304845413264 327.5,161.92304845413264" stroke="black" stroke-width="1" /><polygon fill="#AAAAAA" points="335.0,32.01923788646684 342.5,6.038475772933687 372.5,6.038475772933687" stroke="black" stroke-width="1" /><polygon fill="#999999" points="342.5,6.038475772933687 350.0,-19.94228634059948 380.0,-19.94228634059948" stroke="black" stroke-width="1" /><polygon fill="#FFA366" points="255.5,102.16729559300637 263.0,76.18653347947321 293.0,76.18653347947321" stroke="#999999" stroke-width="1" /><polygon fill="#FFA366" points="263.0,76.18653347947321 270.5,50.20577136594005 300.5,50.20577136594005" stroke="#999999" stroke-width="1" /><polygon fill="#BBBBBB" points="282.5,213.88457268119896 312.5,213.88457268119896 320.0,187.90381056766577" stroke="black" stroke-width="1" /><polygon fill="#999999" points="290.0,187.90381056766577 320.0,187.90381056766577 327.5,161.92304845413264" stroke="black" stroke-width="1" /><polygon fill="#999999" points="335.0,32.01923788646684 365.0,32.01923788646684 372.5,6.038475772933687" stroke="black" stroke-width="1" /><polygon fill="#AAAAAA" points="342.5,6.038475772933687 372.5,6.038475772933687 380.0,-19.94228634059948" stroke="black" stroke-width="1" /><polygon fill="#AAAAAA" points="308.0,24.2250092524069 335.0,32.01923788646684 365.0,32.01923788646684" stroke="black" stroke-width="1" /><polygon fill="#FFA366" points="255.5,102.16729559300637 285.5,102.16729559300637 293.0,76.18653347947321" stroke="#999999" stroke-width="1" /><polygon fill="#FFA366" points="263.0,76.18653347947321 293.0,76.18653347947321 300.5,50.20577136594005" stroke="#999999" stroke-width="1" /><polygon fill="#FFA366" points="270.5,50.20577136594005 300.5,50.20577136594005 308.0,24.2250092524069" stroke="#999999" stroke-width="1" /><polygon fill="#AAAAAA" points="297.5,161.92304845413264 327.5,161.92304845413264 315.5,102.16729559300637" stroke="black" stroke-width="1" /><polygon fill="#AAAAAA" points="297.5,161.92304845413264 285.5,102.16729559300637 315.5,102.16729559300637" stroke="black" stroke-width="1" /><polygon fill="#BBBBBB" points="312.5,213.88457268119896 320.0,187.90381056766577 350.0,187.90381056766577" stroke="black" stroke-width="1" /><polygon fill="#CCCCCC" points="320.0,187.90381056766577 327.5,161.92304845413264 357.5,161.92304845413264" stroke="black" stroke-width="1" /><polygon fill="#BBBBBB" points="365.0,32.01923788646684 372.5,6.038475772933687 402.5,6.038475772933687" stroke="black" stroke-width="1" /><polygon fill="#AAAAAA" points="372.5,6.038475772933687 380.0,-19.94228634059948 410.0,-19.94228634059948" stroke="black" stroke-width="1" /><polygon fill="#CCCCCC" points="308.0,24.2250092524069 338.0,24.2250092524069 365.0,32.01923788646684" stroke="black" stroke-width="1" /><polygon fill="#AAAAAA" points="285.5,102.16729559300637 293.0,76.18653347947321 323.0,76.18653347947321" stroke="black" stroke-width="1" /><polygon fill="#FFA366" points="293.0,76.18653347947321 300.5,50.20577136594005 330.5,50.20577136594005" stroke="#999999" stroke-width="1" /><polygon fill="#FFA366" points="300.5,50.20577136594005 308.0,24.2250092524069 338.0,24.2250092524069" stroke="#999999" stroke-width="1" /><polygon fill="#999999" points="312.5,213.88457268119896 342.5,213.88457268119896 350.0,187.90381056766577" stroke="black" stroke-width="1" /><polygon fill="#AAAAAA" points="320.0,187.90381056766577 350.0,187.90381056766577 357.5,161.92304845413264" stroke="black" stroke-width="1" /><polygon fill="#AAAAAA" points="327.5,161.92304845413264 357.5,161.92304845413264 365.0,135.94228634059948" stroke="black" stroke-width="1" /><polygon fill="#999999" points="365.0,32.01923788646684 395.0,32.01923788646684 402.5,6.038475772933687" stroke="black" stroke-width="1" /><polygon fill="#CCCCCC" points="372.5,6.038475772933687 402.5,6.038475772933687 410.0,-19.94228634059948" stroke="black" stroke-width="1" /><polygon fill="#999999" points="327.5,161.92304845413264 315.5,102.16729559300637 365.0,135.94228634059948" stroke="black" stroke-width="1" /><polygon fill="#CCCCCC" points="338.0,24.2250092524069 365.0,32.01923788646684 395.0,32.01923788646684" stroke="black" stroke-width="1" /><polygon fill="#AAAAAA" points="285.5,102.16729559300637 315.5,102.16729559300637 323.0,76.18653347947321" stroke="black" stroke-width="1" /><polygon fill="#FFA366" points="293.0,76.18653347947321 323.0,76.18653347947321 330.5,50.20577136594005" stroke="#999999" stroke-width="1" /><polygon fill="#FFA366" points="300.5,50.20577136594005 330.5,50.20577136594005 338.0,24.2250092524069" stroke="#999999" stroke-width="1" /><polygon fill="#999999" points="342.5,213.88457268119896 350.0,187.90381056766577 380.0,187.90381056766577" stroke="black" stroke-width="1" /><polygon fill="#999999" points="350.0,187.90381056766577 357.5,161.92304845413264 387.5,161.92304845413264" stroke="black" stroke-width="1" /><polygon fill="#BBBBBB" points="395.0,32.01923788646684 402.5,6.038475772933687 432.5,6.038475772933687" stroke="black" stroke-width="1" /><polygon fill="#AAAAAA" points="402.5,6.038475772933687 410.0,-19.94228634059948 440.0,-19.94228634059948" stroke="black" stroke-width="1" /><polygon fill="#999999" points="315.5,102.16729559300637 365.0,135.94228634059948 353.0,76.18653347947321" stroke="black" stroke-width="1" /><polygon fill="#999999" points="338.0,24.2250092524069 368.0,24.2250092524069 395.0,32.01923788646684" stroke="black" stroke-width="1" /><polygon fill="#FFA366" points="315.5,102.16729559300637 323.0,76.18653347947321 353.0,76.18653347947321" stroke="#999999" stroke-width="1" /><polygon fill="#FFA366" points="323.0,76.18653347947321 330.5,50.20577136594005 360.5,50.20577136594005" stroke="#999999" stroke-width="1" /><polygon fill="#FFA366" points="330.5,50.20577136594005 338.0,24.2250092524069 368.0,24.2250092524069" stroke="#999999" stroke-width="1" /><polygon fill="#999999" points="342.5,213.88457268119896 372.5,213.88457268119896 380.0,187.90381056766577" stroke="black" stroke-width="1" /><polygon fill="#BBBBBB" points="350.0,187.90381056766577 380.0,187.90381056766577 387.5,161.92304845413264" stroke="black" stroke-width="1" /><polygon fill="#AAAAAA" points="395.0,32.01923788646684 425.0,32.01923788646684 432.5,6.038475772933687" stroke="black" stroke-width="1" /><polygon fill="#CCCCCC" points="402.5,6.038475772933687 432.5,6.038475772933687 440.0,-19.94228634059948" stroke="black" stroke-width="1" /><polygon fill="#BBBBBB" points="357.5,161.92304845413264 365.0,135.94228634059948 375.5,102.16729559300637" stroke="black" stroke-width="1" /><polygon fill="#999999" points="368.0,24.2250092524069 395.0,32.01923788646684 425.0,32.01923788646684" stroke="black" stroke-width="1" /><polygon fill="#FFA366" points="323.0,76.18653347947321 353.0,76.18653347947321 360.5,50.20577136594005" stroke="#999999" stroke-width="1" /><polygon fill="#FFA366" points="330.5,50.20577136594005 360.5,50.20577136594005 368.0,24.2250092524069" stroke="#999999" stroke-width="1" /><polygon fill="#999999" points="357.5,161.92304845413264 387.5,161.92304845413264 375.5,102.16729559300637" stroke="black" stroke-width="1" /><polygon fill="#BBBBBB" points="368.0,24.2250092524069 417.5,58.0 425.0,32.01923788646684" stroke="black" stroke-width="1" /><polygon fill="#AAAAAA" points="365.0,135.94228634059948 353.0,76.18653347947321 383.0,76.18653347947321" stroke="black" stroke-width="1" /><polygon fill="#AAAAAA" points="360.5,50.20577136594005 368.0,24.2250092524069 417.5,58.0" stroke="black" stroke-width="1" /><polygon fill="#AAAAAA" points="372.5,213.88457268119896 380.0,187.90381056766577 410.0,187.90381056766577" stroke="black" stroke-width="1" /><polygon fill="#CCCCCC" points="380.0,187.90381056766577 387.5,161.92304845413264 417.5,161.92304845413264" stroke="black" stroke-width="1" /><polygon fill="#CCCCCC" points="417.5,58.0 425.0,32.01923788646684 455.0,32.01923788646684" stroke="black" stroke-width="1" /><polygon fill="#BBBBBB" points="425.0,32.01923788646684 432.5,6.038475772933687 462.5,6.038475772933687" stroke="black" stroke-width="1" /><polygon fill="#AAAAAA" points="432.5,6.038475772933687 440.0,-19.94228634059948 470.0,-19.94228634059948" stroke="black" stroke-width="1" /><polygon fill="#BBBBBB" points="365.0,135.94228634059948 375.5,102.16729559300637 383.0,76.18653347947321" stroke="black" stroke-width="1" /><polygon fill="#CCCCCC" points="360.5,50.20577136594005 390.5,50.20577136594005 417.5,58.0" stroke="black" stroke-width="1" /><polygon fill="#CCCCCC" points="353.0,76.18653347947321 360.5,50.20577136594005 390.5,50.20577136594005" stroke="black" stroke-width="1" /><polygon fill="#CCCCCC" points="372.5,213.88457268119896 402.5,213.88457268119896 410.0,187.90381056766577" stroke="black" stroke-width="1" /><polygon fill="#AAAAAA" points="380.0,187.90381056766577 410.0,187.90381056766577 417.5,161.92304845413264" stroke="black" stroke-width="1" /><polygon fill="#AAAAAA" points="425.0,32.01923788646684 455.0,32.01923788646684 462.5,6.038475772933687" stroke="black" stroke-width="1" /><polygon fill="#999999" points="432.5,6.038475772933687 462.5,6.038475772933687 470.0,-19.94228634059948" stroke="black" stroke-width="1" /><polygon fill="#AAAAAA" points="353.0,76.18653347947321 383.0,76.18653347947321 390.5,50.20577136594005" stroke="black" stroke-width="1" /><polygon fill="#AAAAAA" points="387.5,161.92304845413264 417.5,161.92304845413264 405.5,102.16729559300637" stroke="black" stroke-width="1" /><polygon fill="#CCCCCC" points="417.5,58.0 428.0,24.2250092524069 455.0,32.01923788646684" stroke="black" stroke-width="1" /><polygon fill="#AAAAAA" points="387.5,161.92304845413264 375.5,102.16729559300637 405.5,102.16729559300637" stroke="black" stroke-width="1" /><polygon fill="#CCCCCC" points="390.5,50.20577136594005 417.5,58.0 428.0,24.2250092524069" stroke="black" stroke-width="1" /><polygon fill="#999999" points="402.5,213.88457268119896 410.0,187.90381056766577 440.0,187.90381056766577" stroke="black" stroke-width="1" /><polygon fill="#BBBBBB" points="410.0,187.90381056766577 417.5,161.92304845413264 447.5,161.92304845413264" stroke="black" stroke-width="1" /><polygon fill="#BBBBBB" points="455.0,32.01923788646684 462.5,6.038475772933687 492.5,6.038475772933687" stroke="black" stroke-width="1" /><polygon fill="#CCCCCC" points="462.5,6.038475772933687 470.0,-19.94228634059948 500.0,-19.94228634059948" stroke="black" stroke-width="1" /><polygon fill="#FFA366" points="375.5,102.16729559300637 383.0,76.18653347947321 413.0,76.18653347947321" stroke="#999999" stroke-width="1" /><polygon fill="#FFA366" points="383.0,76.18653347947321 390.5,50.20577136594005 420.5,50.20577136594005" stroke="#999999" stroke-width="1" /><polygon fill="#BBBBBB" points="402.5,213.88457268119896 432.5,213.88457268119896 440.0,187.90381056766577" stroke="black" stroke-width="1" /><polygon fill="#AAAAAA" points="410.0,187.90381056766577 440.0,187.90381056766577 447.5,161.92304845413264" stroke="black" stroke-width="1" /><polygon fill="#BBBBBB" points="417.5,161.92304845413264 447.5,161.92304845413264 455.0,135.94228634059948" stroke="black" stroke-width="1" /><polygon fill="#CCCCCC" points="455.0,32.01923788646684 485.0,32.01923788646684 492.5,6.038475772933687" stroke="black" stroke-width="1" /><polygon fill="#999999" points="462.5,6.038475772933687 492.5,6.038475772933687 500.0,-19.94228634059948" stroke="black" stroke-width="1" /><polygon fill="#999999" points="417.5,161.92304845413264 405.5,102.16729559300637 455.0,135.94228634059948" stroke="black" stroke-width="1" /><polygon fill="#BBBBBB" points="428.0,24.2250092524069 455.0,32.01923788646684 485.0,32.01923788646684" stroke="black" stroke-width="1" /><polygon fill="#FFA366" points="375.5,102.16729559300637 405.5,102.16729559300637 413.0,76.18653347947321" stroke="#999999" stroke-width="1" /><polygon fill="#FFA366" points="383.0,76.18653347947321 413.0,76.18653347947321 420.5,50.20577136594005" stroke="#999999" stroke-width="1" /><polygon fill="#FFA366" points="390.5,50.20577136594005 420.5,50.20577136594005 428.0,24.2250092524069" stroke="#999999" stroke-width="1" /><polygon fill="#999999" points="432.5,213.88457268119896 440.0,187.90381056766577 470.0,187.90381056766577" stroke="black" stroke-width="1" /><polygon fill="#999999" points="440.0,187.90381056766577 447.5,161.92304845413264 477.5,161.92304845413264" stroke="black" stroke-width="1" /><polygon fill="#CCCCCC" points="447.5,161.92304845413264 455.0,135.94228634059948 485.0,135.94228634059948" stroke="black" stroke-width="1" /><polygon fill="#CCCCCC" points="485.0,32.01923788646684 492.5,6.038475772933687 522.5,6.038475772933687" stroke="black" stroke-width="1" /><polygon fill="#CCCCCC" points="492.5,6.038475772933687 500.0,-19.94228634059948 530.0,-19.94228634059948" stroke="black" stroke-width="1" /><polygon fill="#CCCCCC" points="405.5,102.16729559300637 455.0,135.94228634059948 443.0,76.18653347947321" stroke="black" stroke-width="1" /><polygon fill="#BBBBBB" points="428.0,24.2250092524069 458.0,24.2250092524069 485.0,32.01923788646684" stroke="black" stroke-width="1" /><polygon fill="#AAAAAA" points="405.5,102.16729559300637 413.0,76.18653347947321 443.0,76.18653347947321" stroke="black" stroke-width="1" /><polygon fill="#FFA366" points="413.0,76.18653347947321 420.5,50.20577136594005 450.5,50.20577136594005" stroke="#999999" stroke-width="1" /><polygon fill="#FFA366" points="420.5,50.20577136594005 428.0,24.2250092524069 458.0,24.2250092524069" stroke="#999999" stroke-width="1" /><polygon fill="#BBBBBB" points="432.5,213.88457268119896 462.5,213.88457268119896 470.0,187.90381056766577" stroke="black" stroke-width="1" /><polygon fill="#AAAAAA" points="440.0,187.90381056766577 470.0,187.90381056766577 477.5,161.92304845413264" stroke="black" stroke-width="1" /><polygon fill="#BBBBBB" points="447.5,161.92304845413264 477.5,161.92304845413264 485.0,135.94228634059948" stroke="black" stroke-width="1" /><polygon fill="#999999" points="455.0,135.94228634059948 485.0,135.94228634059948 492.5,109.96152422706632" stroke="black" stroke-width="1" /><polygon fill="#999999" points="485.0,32.01923788646684 515.0,32.01923788646684 522.5,6.038475772933687" stroke="black" stroke-width="1" /><polygon fill="#AAAAAA" points="492.5,6.038475772933687 522.5,6.038475772933687 530.0,-19.94228634059948" stroke="black" stroke-width="1" /><polygon fill="#CCCCCC" points="455.0,135.94228634059948 443.0,76.18653347947321 492.5,109.96152422706632" stroke="black" stroke-width="1" /><polygon fill="#AAAAAA" points="458.0,24.2250092524069 485.0,32.01923788646684 515.0,32.01923788646684" stroke="black" stroke-width="1" /><polygon fill="#FFA366" points="413.0,76.18653347947321 443.0,76.18653347947321 450.5,50.20577136594005" stroke="#999999" stroke-width="1" /><polygon fill="#FFA366" points="420.5,50.20577136594005 450.5,50.20577136594005 458.0,24.2250092524069" stroke="#999999" stroke-width="1" /><polygon fill="#999999" points="462.5,213.88457268119896 470.0,187.90381056766577 500.0,187.90381056766577" stroke="black" stroke-width="1" /><polygon fill="#CCCCCC" points="470.0,187.90381056766577 477.5,161.92304845413264 507.5,161.92304845413264" stroke="black" stroke-width="1" /><polygon fill="#CCCCCC" points="515.0,32.01923788646684 522.5,6.038475772933687 552.5,6.038475772933687" stroke="black" stroke-width="1" /><polygon fill="#999999" points="522.5,6.038475772933687 530.0,-19.94228634059948 560.0,-19.94228634059948" stroke="black" stroke-width="1" /><polygon fill="#999999" points="443.0,76.18653347947321 492.5,109.96152422706632 480.5,50.20577136594005" stroke="black" stroke-width="1" /><polygon fill="#999999" points="458.0,24.2250092524069 488.0,24.2250092524069 515.0,32.01923788646684" stroke="black" stroke-width="1" /><polygon fill="#BBBBBB" points="443.0,76.18653347947321 450.5,50.20577136594005 480.5,50.20577136594005" stroke="black" stroke-width="1" /><polygon fill="#FFA366" points="450.5,50.20577136594005 458.0,24.2250092524069 488.0,24.2250092524069" stroke="#999999" stroke-width="1" /><polygon fill="#CCCCCC" points="462.5,213.88457268119896 492.5,213.88457268119896 500.0,187.90381056766577" stroke="black" stroke-width="1" /><polygon fill="#AAAAAA" points="470.0,187.90381056766577 500.0,187.90381056766577 507.5,161.92304845413264" stroke="black" stroke-width="1" /><polygon fill="#AAAAAA" points="515.0,32.01923788646684 545.0,32.01923788646684 552.5,6.038475772933687" stroke="black" stroke-width="1" /><polygon fill="#999999" points="522.5,6.038475772933687 552.5,6.038475772933687 560.0,-19.94228634059948" stroke="black" stroke-width="1" /><polygon fill="#BBBBBB" points="477.5,161.92304845413264 485.0,135.94228634059948 495.5,102.16729559300637" stroke="black" stroke-width="1" /><polygon fill="#AAAAAA" points="485.0,135.94228634059948 492.5,109.96152422706632 503.0,76.18653347947321" stroke="black" stroke-width="1" /><polygon fill="#BBBBBB" points="488.0,24.2250092524069 515.0,32.01923788646684 545.0,32.01923788646684" stroke="black" stroke-width="1" /><polygon fill="#FFA366" points="450.5,50.20577136594005 480.5,50.20577136594005 488.0,24.2250092524069" stroke="#999999" stroke-width="1" /><polygon fill="#CCCCCC" points="477.5,161.92304845413264 507.5,161.92304845413264 495.5,102.16729559300637" stroke="black" stroke-width="1" /><polygon fill="#CCCCCC" points="488.0,24.2250092524069 537.5,58.0 545.0,32.01923788646684" stroke="black" stroke-width="1" /><polygon fill="#CCCCCC" points="492.5,109.96152422706632 480.5,50.20577136594005 510.5,50.20577136594005" stroke="black" stroke-width="1" /><polygon fill="#AAAAAA" points="480.5,50.20577136594005 488.0,24.2250092524069 537.5,58.0" stroke="black" stroke-width="1" /><polygon fill="#999999" points="492.5,213.88457268119896 500.0,187.90381056766577 530.0,187.90381056766577" stroke="black" stroke-width="1" /><polygon fill="#BBBBBB" points="500.0,187.90381056766577 507.5,161.92304845413264 537.5,161.92304845413264" stroke="black" stroke-width="1" /><polygon fill="#BBBBBB" points="537.5,58.0 545.0,32.01923788646684 575.0,32.01923788646684" stroke="black" stroke-width="1" /><polygon fill="#AAAAAA" points="545.0,32.01923788646684 552.5,6.038475772933687 582.5,6.038475772933687" stroke="black" stroke-width="1" /><polygon fill="#CCCCCC" points="552.5,6.038475772933687 560.0,-19.94228634059948 590.0,-19.94228634059948" stroke="black" stroke-width="1" /><polygon fill="#BBBBBB" points="485.0,135.94228634059948 495.5,102.16729559300637 503.0,76.18653347947321" stroke="black" stroke-width="1" /><polygon fill="#BBBBBB" points="492.5,109.96152422706632 503.0,76.18653347947321 510.5,50.20577136594005" stroke="black" stroke-width="1" /><polygon fill="#AAAAAA" points="480.5,50.20577136594005 510.5,50.20577136594005 537.5,58.0" stroke="black" stroke-width="1" /><polygon fill="#999999" points="492.5,213.88457268119896 522.5,213.88457268119896 530.0,187.90381056766577" stroke="black" stroke-width="1" /><polygon fill="#CCCCCC" points="500.0,187.90381056766577 530.0,187.90381056766577 537.5,161.92304845413264" stroke="black" stroke-width="1" /><polygon fill="#CCCCCC" points="545.0,32.01923788646684 575.0,32.01923788646684 582.5,6.038475772933687" stroke="black" stroke-width="1" /><polygon fill="#AAAAAA" points="552.5,6.038475772933687 582.5,6.038475772933687 590.0,-19.94228634059948" stroke="black" stroke-width="1" /><polygon fill="#CCCCCC" points="507.5,161.92304845413264 537.5,161.92304845413264 525.5,102.16729559300637" stroke="black" stroke-width="1" /><polygon fill="#AAAAAA" points="537.5,58.0 548.0,24.2250092524069 575.0,32.01923788646684" stroke="black" stroke-width="1" /><polygon fill="#BBBBBB" points="507.5,161.92304845413264 495.5,102.16729559300637 525.5,102.16729559300637" stroke="black" stroke-width="1" /><polygon fill="#BBBBBB" points="510.5,50.20577136594005 537.5,58.0 548.0,24.2250092524069" stroke="black" stroke-width="1" /><polygon fill="#CCCCCC" points="522.5,213.88457268119896 530.0,187.90381056766577 560.0,187.90381056766577" stroke="black" stroke-width="1" /><polygon fill="#CCCCCC" points="530.0,187.90381056766577 537.5,161.92304845413264 567.5,161.92304845413264" stroke="black" stroke-width="1" /><polygon fill="#CCCCCC" points="575.0,32.01923788646684 582.5,6.038475772933687 612.5,6.038475772933687" stroke="black" stroke-width="1" /><polygon fill="#999999" points="582.5,6.038475772933687 590.0,-19.94228634059948 620.0,-19.94228634059948" stroke="black" stroke-width="1" /><polygon fill="#FFA366" points="495.5,102.16729559300637 503.0,76.18653347947321 533.0,76.18653347947321" stroke="#999999" stroke-width="1" /><polygon fill="#FFA366" points="503.0,76.18653347947321 510.5,50.20577136594005 540.5,50.20577136594005" stroke="#999999" stroke-width="1" /><polygon fill="#999999" points="522.5,213.88457268119896 552.5,213.88457268119896 560.0,187.90381056766577" stroke="black" stroke-width="1" /><polygon fill="#999999" points="530.0,187.90381056766577 560.0,187.90381056766577 567.5,161.92304845413264" stroke="black" stroke-width="1" /><polygon fill="#BBBBBB" points="575.0,32.01923788646684 605.0,32.01923788646684 612.5,6.038475772933687" stroke="black" stroke-width="1" /><polygon fill="#AAAAAA" points="582.5,6.038475772933687 612.5,6.038475772933687 620.0,-19.94228634059948" stroke="black" stroke-width="1" /><polygon fill="#BBBBBB" points="548.0,24.2250092524069 575.0,32.01923788646684 605.0,32.01923788646684" stroke="black" stroke-width="1" /><polygon fill="#FFA366" points="495.5,102.16729559300637 525.5,102.16729559300637 533.0,76.18653347947321" stroke="#999999" stroke-width="1" /><polygon fill="#FFA366" points="503.0,76.18653347947321 533.0,76.18653347947321 540.5,50.20577136594005" stroke="#999999" stroke-width="1" /><polygon fill="#FFA366" points="510.5,50.20577136594005 540.5,50.20577136594005 548.0,24.2250092524069" stroke="#999999" stroke-width="1" /><polygon fill="#999999" points="537.5,161.92304845413264 567.5,161.92304845413264 555.5,102.16729559300637" stroke="black" stroke-width="1" /><polygon fill="#999999" points="537.5,161.92304845413264 525.5,102.16729559300637 555.5,102.16729559300637" stroke="black" stroke-width="1" /><polygon fill="#CCCCCC" points="552.5,213.88457268119896 560.0,187.90381056766577 590.0,187.90381056766577" stroke="black" stroke-width="1" /><polygon fill="#AAAAAA" points="560.0,187.90381056766577 567.5,161.92304845413264 597.5,161.92304845413264" stroke="black" stroke-width="1" /><polygon fill="#BBBBBB" points="605.0,32.01923788646684 612.5,6.038475772933687 642.5,6.038475772933687" stroke="black" stroke-width="1" /><polygon fill="#999999" points="612.5,6.038475772933687 620.0,-19.94228634059948 650.0,-19.94228634059948" stroke="black" stroke-width="1" /><polygon fill="#CCCCCC" points="548.0,24.2250092524069 578.0,24.2250092524069 605.0,32.01923788646684" stroke="black" stroke-width="1" /><polygon fill="#FFA366" points="525.5,102.16729559300637 533.0,76.18653347947321 563.0,76.18653347947321" stroke="#999999" stroke-width="1" /><polygon fill="#FFA366" points="533.0,76.18653347947321 540.5,50.20577136594005 570.5,50.20577136594005" stroke="#999999" stroke-width="1" /><polygon fill="#FFA366" points="540.5,50.20577136594005 548.0,24.2250092524069 578.0,24.2250092524069" stroke="#999999" stroke-width="1" /><polygon fill="#AAAAAA" points="552.5,213.88457268119896 582.5,213.88457268119896 590.0,187.90381056766577" stroke="black" stroke-width="1" /><polygon fill="#CCCCCC" points="560.0,187.90381056766577 590.0,187.90381056766577 597.5,161.92304845413264" stroke="black" stroke-width="1" /><polygon fill="#999999" points="567.5,161.92304845413264 597.5,161.92304845413264 605.0,135.94228634059948" stroke="black" stroke-width="1" /><polygon fill="#AAAAAA" points="605.0,32.01923788646684 635.0,32.01923788646684 642.5,6.038475772933687" stroke="black" stroke-width="1" /><polygon fill="#AAAAAA" points="612.5,6.038475772933687 642.5,6.038475772933687 650.0,-19.94228634059948" stroke="black" stroke-width="1" /><polygon fill="#BBBBBB" points="567.5,161.92304845413264 555.5,102.16729559300637 605.0,135.94228634059948" stroke="black" stroke-width="1" /><polygon fill="#AAAAAA" points="578.0,24.2250092524069 605.0,32.01923788646684 635.0,32.01923788646684" stroke="black" stroke-width="1" /><polygon fill="#FFA366" points="525.5,102.16729559300637 555.5,102.16729559300637 563.0,76.18653347947321" stroke="#999999" stroke-width="1" /><polygon fill="#FFA366" points="533.0,76.18653347947321 563.0,76.18653347947321 570.5,50.20577136594005" stroke="#999999" stroke-width="1" /><polygon fill="#FFA366" points="540.5,50.20577136594005 570.5,50.20577136594005 578.0,24.2250092524069" stroke="#999999" stroke-width="1" /><polygon fill="#AAAAAA" points="582.5,213.88457268119896 590.0,187.90381056766577 620.0,187.90381056766577" stroke="black" stroke-width="1" /><polygon fill="#AAAAAA" points="590.0,187.90381056766577 597.5,161.92304845413264 627.5,161.92304845413264" stroke="black" stroke-width="1" /><polygon fill="#CCCCCC" points="635.0,32.01923788646684 642.5,6.038475772933687 672.5,6.038475772933687" stroke="black" stroke-width="1" /><polygon fill="#999999" points="642.5,6.038475772933687 650.0,-19.94228634059948 680.0,-19.94228634059948" stroke="black" stroke-width="1" /><polygon fill="#999999" points="555.5,102.16729559300637 605.0,135.94228634059948 593.0,76.18653347947321" stroke="black" stroke-width="1" /><polygon fill="#BBBBBB" points="578.0,24.2250092524069 608.0,24.2250092524069 635.0,32.01923788646684" stroke="black" stroke-width="1" /><polygon fill="#FFA366" points="555.5,102.16729559300637 563.0,76.18653347947321 593.0,76.18653347947321" stroke="#999999" stroke-width="1" /><polygon fill="#AAAAAA" points="563.0,76.18653347947321 570.5,50.20577136594005 600.5,50.20577136594005" stroke="black" stroke-width="1" /><polygon fill="#FFA366" points="570.5,50.20577136594005 578.0,24.2250092524069 608.0,24.2250092524069" stroke="#999999" stroke-width="1" /><polygon fill="#AAAAAA" points="582.5,213.88457268119896 612.5,213.88457268119896 620.0,187.90381056766577" stroke="black" stroke-width="1" /><polygon fill="#999999" points="590.0,187.90381056766577 620.0,187.90381056766577 627.5,161.92304845413264" stroke="black" stroke-width="1" /><polygon fill="#CCCCCC" points="635.0,32.01923788646684 665.0,32.01923788646684 672.5,6.038475772933687" stroke="black" stroke-width="1" /><polygon fill="#CCCCCC" points="642.5,6.038475772933687 672.5,6.038475772933687 680.0,-19.94228634059948" stroke="black" stroke-width="1" /><polygon fill="#999999" points="597.5,161.92304845413264 605.0,135.94228634059948 615.5,102.16729559300637" stroke="black" stroke-width="1" /><polygon fill="#AAAAAA" points="608.0,24.2250092524069 635.0,32.01923788646684 665.0,32.01923788646684" stroke="black" stroke-width="1" /><polygon fill="#999999" points="563.0,76.18653347947321 593.0,76.18653347947321 600.5,50.20577136594005" stroke="black" stroke-width="1" /><polygon fill="#FFA366" points="570.5,50.20577136594005 600.5,50.20577136594005 608.0,24.2250092524069" stroke="#999999" stroke-width="1" /><polygon fill="#CCCCCC" points="597.5,161.92304845413264 627.5,161.92304845413264 615.5,102.16729559300637" stroke="black" stroke-width="1" /><polygon fill="#AAAAAA" points="608.0,24.2250092524069 657.5,58.0 665.0,32.01923788646684" stroke="black" stroke-width="1" /><polygon fill="#CCCCCC" points="605.0,135.94228634059948 593.0,76.18653347947321 623.0,76.18653347947321" stroke="black" stroke-width="1" /><polygon fill="#AAAAAA" points="600.5,50.20577136594005 608.0,24.2250092524069 657.5,58.0" stroke="black" stroke-width="1" /><polygon fill="#BBBBBB" points="612.5,213.88457268119896 620.0,187.90381056766577 650.0,187.90381056766577" stroke="black" stroke-width="1" /><polygon fill="#BBBBBB" points="620.0,187.90381056766577 627.5,161.92304845413264 657.5,161.92304845413264" stroke="black" stroke-width="1" /><polygon fill="#999999" points="657.5,58.0 665.0,32.01923788646684 695.0,32.01923788646684" stroke="black" stroke-width="1" /><polygon fill="#BBBBBB" points="665.0,32.01923788646684 672.5,6.038475772933687 702.5,6.038475772933687" stroke="black" stroke-width="1" /><polygon fill="#AAAAAA" points="672.5,6.038475772933687 680.0,-19.94228634059948 710.0,-19.94228634059948" stroke="black" stroke-width="1" /><polygon fill="#AAAAAA" points="605.0,135.94228634059948 615.5,102.16729559300637 623.0,76.18653347947321" stroke="black" stroke-width="1" /><polygon fill="#AAAAAA" points="600.5,50.20577136594005 630.5,50.20577136594005 657.5,58.0" stroke="black" stroke-width="1" /><polygon fill="#BBBBBB" points="593.0,76.18653347947321 600.5,50.20577136594005 630.5,50.20577136594005" stroke="black" stroke-width="1" /><polygon fill="#AAAAAA" points="612.5,213.88457268119896 642.5,213.88457268119896 650.0,187.90381056766577" stroke="black" stroke-width="1" /><polygon fill="#999999" points="620.0,187.90381056766577 650.0,187.90381056766577 657.5,161.92304845413264" stroke="black" stroke-width="1" /><polygon fill="#AAAAAA" points="665.0,32.01923788646684 695.0,32.01923788646684 702.5,6.038475772933687" stroke="black" stroke-width="1" /><polygon fill="#AAAAAA" points="672.5,6.038475772933687 702.5,6.038475772933687 710.0,-19.94228634059948" stroke="black" stroke-width="1" /><polygon fill="#CCCCCC" points="593.0,76.18653347947321 623.0,76.18653347947321 630.5,50.20577136594005" stroke="black" stroke-width="1" /><polygon fill="#AAAAAA" points="627.5,161.92304845413264 657.5,161.92304845413264 645.5,102.16729559300637" stroke="black" stroke-width="1" /><polygon fill="#BBBBBB" points="657.5,58.0 668.0,24.2250092524069 695.0,32.01923788646684" stroke="black" stroke-width="1" /><polygon fill="#999999" points="627.5,161.92304845413264 615.5,102.16729559300637 645.5,102.16729559300637" stroke="black" stroke-width="1" /><polygon fill="#999999" points="630.5,50.20577136594005 657.5,58.0 668.0,24.2250092524069" stroke="black" stroke-width="1" /><polygon fill="#AAAAAA" points="642.5,213.88457268119896 650.0,187.90381056766577 680.0,187.90381056766577" stroke="black" stroke-width="1" /><polygon fill="#BBBBBB" points="650.0,187.90381056766577 657.5,161.92304845413264 687.5,161.92304845413264" stroke="black" stroke-width="1" /><polygon fill="#BBBBBB" points="695.0,32.01923788646684 702.5,6.038475772933687 732.5,6.038475772933687" stroke="black" stroke-width="1" /><polygon fill="#CCCCCC" points="702.5,6.038475772933687 710.0,-19.94228634059948 740.0,-19.94228634059948" stroke="black" stroke-width="1" /><polygon fill="#FFA366" points="615.5,102.16729559300637 623.0,76.18653347947321 653.0,76.18653347947321" stroke="#999999" stroke-width="1" /><polygon fill="#FFA366" points="623.0,76.18653347947321 630.5,50.20577136594005 660.5,50.20577136594005" stroke="#999999" stroke-width="1" /><polygon fill="#CCCCCC" points="642.5,213.88457268119896 672.5,213.88457268119896 680.0,187.90381056766577" stroke="black" stroke-width="1" /><polygon fill="#AAAAAA" points="650.0,187.90381056766577 680.0,187.90381056766577 687.5,161.92304845413264" stroke="black" stroke-width="1" /><polygon fill="#BBBBBB" points="695.0,32.01923788646684 725.0,32.01923788646684 732.5,6.038475772933687" stroke="black" stroke-width="1" /><polygon fill="#BBBBBB" points="702.5,6.038475772933687 732.5,6.038475772933687 740.0,-19.94228634059948" stroke="black" stroke-width="1" /><polygon fill="#AAAAAA" points="668.0,24.2250092524069 695.0,32.01923788646684 725.0,32.01923788646684" stroke="black" stroke-width="1" /><polygon fill="#FFA366" points="615.5,102.16729559300637 645.5,102.16729559300637 653.0,76.18653347947321" stroke="#999999" stroke-width="1" /><polygon fill="#FFA366" points="623.0,76.18653347947321 653.0,76.18653347947321 660.5,50.20577136594005" stroke="#999999" stroke-width="1" /><polygon fill="#FFA366" points="630.5,50.20577136594005 660.5,50.20577136594005 668.0,24.2250092524069" stroke="#999999" stroke-width="1" /><polygon fill="#AAAAAA" points="657.5,161.92304845413264 687.5,161.92304845413264 675.5,102.16729559300637" stroke="black" stroke-width="1" /><polygon fill="#BBBBBB" points="657.5,161.92304845413264 645.5,102.16729559300637 675.5,102.16729559300637" stroke="black" stroke-width="1" /><polygon fill="#AAAAAA" points="672.5,213.88457268119896 680.0,187.90381056766577 710.0,187.90381056766577" stroke="black" stroke-width="1" /><polygon fill="#CCCCCC" points="680.0,187.90381056766577 687.5,161.92304845413264 717.5,161.92304845413264" stroke="black" stroke-width="1" /><polygon fill="#CCCCCC" points="725.0,32.01923788646684 732.5,6.038475772933687 762.5,6.038475772933687" stroke="black" stroke-width="1" /><polygon fill="#AAAAAA" points="732.5,6.038475772933687 740.0,-19.94228634059948 770.0,-19.94228634059948" stroke="black" stroke-width="1" /><polygon fill="#BBBBBB" points="668.0,24.2250092524069 698.0,24.2250092524069 725.0,32.01923788646684" stroke="black" stroke-width="1" /><polygon fill="#CCCCCC" points="645.5,102.16729559300637 653.0,76.18653347947321 683.0,76.18653347947321" stroke="black" stroke-width="1" /><polygon fill="#FFA366" points="653.0,76.18653347947321 660.5,50.20577136594005 690.5,50.20577136594005" stroke="#999999" stroke-width="1" /><polygon fill="#FFA366" points="660.5,50.20577136594005 668.0,24.2250092524069 698.0,24.2250092524069" stroke="#999999" stroke-width="1" /><polygon fill="#AAAAAA" points="672.5,213.88457268119896 702.5,213.88457268119896 710.0,187.90381056766577" stroke="black" stroke-width="1" /><polygon fill="#999999" points="680.0,187.90381056766577 710.0,187.90381056766577 717.5,161.92304845413264" stroke="black" stroke-width="1" /><polygon fill="#999999" points="687.5,161.92304845413264 717.5,161.92304845413264 725.0,135.94228634059948" stroke="black" stroke-width="1" /><polygon fill="#CCCCCC" points="725.0,32.01923788646684 755.0,32.01923788646684 762.5,6.038475772933687" stroke="black" stroke-width="1" /><polygon fill="#AAAAAA" points="732.5,6.038475772933687 762.5,6.038475772933687 770.0,-19.94228634059948" stroke="black" stroke-width="1" /><polygon fill="#CCCCCC" points="687.5,161.92304845413264 675.5,102.16729559300637 725.0,135.94228634059948" stroke="black" stroke-width="1" /><polygon fill="#AAAAAA" points="698.0,24.2250092524069 725.0,32.01923788646684 755.0,32.01923788646684" stroke="black" stroke-width="1" /><polygon fill="#BBBBBB" points="645.5,102.16729559300637 675.5,102.16729559300637 683.0,76.18653347947321" stroke="black" stroke-width="1" /><polygon fill="#FFA366" points="653.0,76.18653347947321 683.0,76.18653347947321 690.5,50.20577136594005" stroke="#999999" stroke-width="1" /><polygon fill="#FFA366" points="660.5,50.20577136594005 690.5,50.20577136594005 698.0,24.2250092524069" stroke="#999999" stroke-width="1" /><polygon fill="#999999" points="702.5,213.88457268119896 710.0,187.90381056766577 740.0,187.90381056766577" stroke="black" stroke-width="1" /><polygon fill="#CCCCCC" points="710.0,187.90381056766577 717.5,161.92304845413264 747.5,161.92304845413264" stroke="black" stroke-width="1" /><polygon fill="#BBBBBB" points="717.5,161.92304845413264 725.0,135.94228634059948 755.0,135.94228634059948" stroke="black" stroke-width="1" /><polygon fill="#999999" points="755.0,32.01923788646684 762.5,6.038475772933687 792.5,6.038475772933687" stroke="black" stroke-width="1" /><polygon fill="#999999" points="762.5,6.038475772933687 770.0,-19.94228634059948 800.0,-19.94228634059948" stroke="black" stroke-width="1" /><polygon fill="#AAAAAA" points="675.5,102.16729559300637 725.0,135.94228634059948 713.0,76.18653347947321" stroke="black" stroke-width="1" /><polygon fill="#BBBBBB" points="698.0,24.2250092524069 728.0,24.2250092524069 755.0,32.01923788646684" stroke="black" stroke-width="1" /><polygon fill="#FFA366" points="675.5,102.16729559300637 683.0,76.18653347947321 713.0,76.18653347947321" stroke="#999999" stroke-width="1" /><polygon fill="#FFA366" points="683.0,76.18653347947321 690.5,50.20577136594005 720.5,50.20577136594005" stroke="#999999" stroke-width="1" /><polygon fill="#FFA366" points="690.5,50.20577136594005 698.0,24.2250092524069 728.0,24.2250092524069" stroke="#999999" stroke-width="1" /><polygon fill="#999999" points="702.5,213.88457268119896 732.5,213.88457268119896 740.0,187.90381056766577" stroke="black" stroke-width="1" /><polygon fill="#CCCCCC" points="710.0,187.90381056766577 740.0,187.90381056766577 747.5,161.92304845413264" stroke="black" stroke-width="1" /><polygon fill="#999999" points="717.5,161.92304845413264 747.5,161.92304845413264 755.0,135.94228634059948" stroke="black" stroke-width="1" /><polygon fill="#AAAAAA" points="725.0,135.94228634059948 755.0,135.94228634059948 762.5,109.96152422706632" stroke="black" stroke-width="1" /><polygon fill="#BBBBBB" points="755.0,32.01923788646684 785.0,32.01923788646684 792.5,6.038475772933687" stroke="black" stroke-width="1" /><polygon fill="#AAAAAA" points="762.5,6.038475772933687 792.5,6.038475772933687 800.0,-19.94228634059948" stroke="black" stroke-width="1" /><polygon fill="#AAAAAA" points="725.0,135.94228634059948 713.0,76.18653347947321 762.5,109.96152422706632" stroke="black" stroke-width="1" /><polygon fill="#AAAAAA" points="728.0,24.2250092524069 755.0,32.01923788646684 785.0,32.01923788646684" stroke="black" stroke-width="1" /><polygon fill="#FFA366" points="683.0,76.18653347947321 713.0,76.18653347947321 720.5,50.20577136594005" stroke="#999999" stroke-width="1" /><polygon fill="#FFA366" points="690.5,50.20577136594005 720.5,50.20577136594005 728.0,24.2250092524069" stroke="#999999" stroke-width="1" /><polygon fill="#CCCCCC" points="713.0,76.18653347947321 762.5,109.96152422706632 770.0,83.98076211353316" stroke="black" stroke-width="1" /><polygon fill="#BBBBBB" points="720.5,50.20577136594005 770.0,83.98076211353316 777.5,58.0" stroke="black" stroke-width="1" /><polygon fill="#AAAAAA" points="728.0,24.2250092524069 777.5,58.0 785.0,32.01923788646684" stroke="black" stroke-width="1" /><polygon fill="#999999" points="713.0,76.18653347947321 720.5,50.20577136594005 770.0,83.98076211353316" stroke="black" stroke-width="1" /><polygon fill="#999999" points="720.5,50.20577136594005 728.0,24.2250092524069 777.5,58.0" stroke="black" stroke-width="1" /><polygon fill="#BBBBBB" points="732.5,213.88457268119896 740.0,187.90381056766577 770.0,187.90381056766577" stroke="black" stroke-width="1" /><polygon fill="#CCCCCC" points="740.0,187.90381056766577 747.5,161.92304845413264 777.5,161.92304845413264" stroke="black" stroke-width="1" /><polygon fill="#AAAAAA" points="747.5,161.92304845413264 755.0,135.94228634059948 785.0,135.94228634059948" stroke="black" stroke-width="1" /><polygon fill="#AAAAAA" points="755.0,135.94228634059948 762.5,109.96152422706632 792.5,109.96152422706632" stroke="black" stroke-width="1" /><polygon fill="#CCCCCC" points="762.5,109.96152422706632 770.0,83.98076211353316 800.0,83.98076211353316" stroke="black" stroke-width="1" /><polygon fill="#AAAAAA" points="770.0,83.98076211353316 777.5,58.0 807.5,58.0" stroke="black" stroke-width="1" /><polygon fill="#CCCCCC" points="777.5,58.0 785.0,32.01923788646684 815.0,32.01923788646684" stroke="black" stroke-width="1" /><polygon fill="#999999" points="785.0,32.01923788646684 792.5,6.038475772933687 822.5,6.038475772933687" stroke="black" stroke-width="1" /><polygon fill="#CCCCCC" points="792.5,6.038475772933687 800.0,-19.94228634059948 830.0,-19.94228634059948" stroke="black" stroke-width="1" /><polygon fill="#CCCCCC" points="732.5,213.88457268119896 762.5,213.88457268119896 770.0,187.90381056766577" stroke="black" stroke-width="1" /><polygon fill="#AAAAAA" points="740.0,187.90381056766577 770.0,187.90381056766577 777.5,161.92304845413264" stroke="black" stroke-width="1" /><polygon fill="#AAAAAA" points="747.5,161.92304845413264 777.5,161.92304845413264 785.0,135.94228634059948" stroke="black" stroke-width="1" /><polygon fill="#BBBBBB" points="755.0,135.94228634059948 785.0,135.94228634059948 792.5,109.96152422706632" stroke="black" stroke-width="1" /><polygon fill="#999999" points="762.5,109.96152422706632 792.5,109.96152422706632 800.0,83.98076211353316" stroke="black" stroke-width="1" /><polygon fill="#CCCCCC" points="770.0,83.98076211353316 800.0,83.98076211353316 807.5,58.0" stroke="black" stroke-width="1" /><polygon fill="#BBBBBB" points="777.5,58.0 807.5,58.0 815.0,32.01923788646684" stroke="black" stroke-width="1" /><polygon fill="#BBBBBB" points="785.0,32.01923788646684 815.0,32.01923788646684 822.5,6.038475772933687" stroke="black" stroke-width="1" /><polygon fill="#CCCCCC" points="792.5,6.038475772933687 822.5,6.038475772933687 830.0,-19.94228634059948" stroke="black" stroke-width="1" /><polygon fill="#999999" points="762.5,213.88457268119896 770.0,187.90381056766577 800.0,187.90381056766577" stroke="black" stroke-width="1" /><polygon fill="#CCCCCC" points="770.0,187.90381056766577 777.5,161.92304845413264 807.5,161.92304845413264" stroke="black" stroke-width="1" /><polygon fill="#999999" points="777.5,161.92304845413264 785.0,135.94228634059948 815.0,135.94228634059948" stroke="black" stroke-width="1" /><polygon fill="#BBBBBB" points="785.0,135.94228634059948 792.5,109.96152422706632 822.5,109.96152422706632" stroke="black" stroke-width="1" /><polygon fill="#999999" points="792.5,109.96152422706632 800.0,83.98076211353316 830.0,83.98076211353316" stroke="black" stroke-width="1" /><polygon fill="#999999" points="800.0,83.98076211353316 807.5,58.0 837.5,58.0" stroke="black" stroke-width="1" /><polygon fill="#CCCCCC" points="807.5,58.0 815.0,32.01923788646684 845.0,32.01923788646684" stroke="black" stroke-width="1" /><polygon fill="#AAAAAA" points="815.0,32.01923788646684 822.5,6.038475772933687 852.5,6.038475772933687" stroke="black" stroke-width="1" /><polygon fill="#AAAAAA" points="822.5,6.038475772933687 830.0,-19.94228634059948 860.0,-19.94228634059948" stroke="black" stroke-width="1" /><polygon fill="#BBBBBB" points="762.5,213.88457268119896 792.5,213.88457268119896 800.0,187.90381056766577" stroke="black" stroke-width="1" /><polygon fill="#BBBBBB" points="770.0,187.90381056766577 800.0,187.90381056766577 807.5,161.92304845413264" stroke="black" stroke-width="1" /><polygon fill="#999999" points="777.5,161.92304845413264 807.5,161.92304845413264 815.0,135.94228634059948" stroke="black" stroke-width="1" /><polygon fill="#BBBBBB" points="785.0,135.94228634059948 815.0,135.94228634059948 822.5,109.96152422706632" stroke="black" stroke-width="1" /><polygon fill="#BBBBBB" points="792.5,109.96152422706632 822.5,109.96152422706632 830.0,83.98076211353316" stroke="black" stroke-width="1" /><polygon fill="#999999" points="800.0,83.98076211353316 830.0,83.98076211353316 837.5,58.0" stroke="black" stroke-width="1" /><polygon fill="#CCCCCC" points="807.5,58.0 837.5,58.0 845.0,32.01923788646684" stroke="black" stroke-width="1" /><polygon fill="#BBBBBB" points="815.0,32.01923788646684 845.0,32.01923788646684 852.5,6.038475772933687" stroke="black" stroke-width="1" /><polygon fill="#BBBBBB" points="822.5,6.038475772933687 852.5,6.038475772933687 860.0,-19.94228634059948" stroke="black" stroke-width="1" /><line stroke="black" stroke-width="3" x1="15.5" x2="75.5" y1="102.16729559300637" y2="102.16729559300637" /><line stroke="black" stroke-width="3" x1="75.5" x2="113.0" y1="102.16729559300637" y2="76.18653347947321" /><line stroke="black" stroke-width="3" x1="113.0" x2="128.0" y1="76.18653347947321" y2="24.2250092524069" /><line stroke="black" stroke-width="3" x1="128.0" x2="68.0" y1="24.2250092524069" y2="24.2250092524069" /><line stroke="black" stroke-width="3" x1="68.0" x2="30.5" y1="24.2250092524069" y2="50.20577136594005" /><line stroke="black" stroke-width="3" x1="30.5" x2="15.5" y1="50.20577136594005" y2="102.16729559300637" /><line stroke="black" stroke-width="3" x1="23.0" x2="83.0" y1="76.18653347947321" y2="76.18653347947321" /><line stroke="black" stroke-width="3" x1="60.5" x2="120.5" y1="50.20577136594005" y2="50.20577136594005" /><line stroke="black" stroke-width="3" x1="135.5" x2="195.5" y1="102.16729559300637" y2="102.16729559300637" /><line stroke="black" stroke-width="3" x1="195.5" x2="233.0" y1="102.16729559300637" y2="76.18653347947321" /><line stroke="black" stroke-width="3" x1="233.0" x2="248.0" y1="76.18653347947321" y2="24.2250092524069" /><line stroke="black" stroke-width="3" x1="248.0" x2="218.0" y1="24.2250092524069" y2="24.2250092524069" /><line stroke="black" stroke-width="3" x1="218.0" x2="210.5" y1="24.2250092524069" y2="50.20577136594005" /><line stroke="black" stroke-width="3" x1="210.5" x2="180.5" y1="50.20577136594005" y2="50.20577136594005" /><line stroke="black" stroke-width="3" x1="180.5" x2="188.0" y1="50.20577136594005" y2="24.2250092524069" /><line stroke="black" stroke-width="3" x1="188.0" x2="150.5" y1="24.2250092524069" y2="50.20577136594005" /><line stroke="black" stroke-width="3" x1="150.5" x2="135.5" y1="50.20577136594005" y2="102.16729559300637" /><line stroke="black" stroke-width="3" x1="143.0" x2="203.0" y1="76.18653347947321" y2="76.18653347947321" /><line stroke="black" stroke-width="3" x1="255.5" x2="285.5" y1="102.16729559300637" y2="102.16729559300637" /><line stroke="black" stroke-width="3" x1="285.5" x2="293.0" y1="102.16729559300637" y2="76.18653347947321" /><line stroke="black" stroke-width="3" x1="293.0" x2="323.0" y1="76.18653347947321" y2="76.18653347947321" /><line stroke="black" stroke-width="3" x1="323.0" x2="315.5" y1="76.18653347947321" y2="102.16729559300637" /><line stroke="black" stroke-width="3" x1="315.5" x2="353.0" y1="102.16729559300637" y2="76.18653347947321" /><line stroke="black" stroke-width="3" x1="353.0" x2="368.0" y1="76.18653347947321" y2="24.2250092524069" /><line stroke="black" stroke-width="3" x1="368.0" x2="308.0" y1="24.2250092524069" y2="24.2250092524069" /><line stroke="black" stroke-width="3" x1="308.0" x2="270.5" y1="24.2250092524069" y2="50.20577136594005" /><line stroke="black" stroke-width="3" x1="270.5" x2="255.5" y1="50.20577136594005" y2="102.16729559300637" /><line stroke="black" stroke-width="3" x1="293.0" x2="300.5" y1="76.18653347947321" y2="50.20577136594005" /><line stroke="black" stroke-width="3" x1="323.0" x2="330.5" y1="76.18653347947321" y2="50.20577136594005" /><line stroke="black" stroke-width="3" x1="375.5" x2="405.5" y1="102.16729559300637" y2="102.16729559300637" /><line stroke="black" stroke-width="3" x1="405.5" x2="413.0" y1="102.16729559300637" y2="76.18653347947321" /><line stroke="black" stroke-width="3" x1="413.0" x2="443.0" y1="76.18653347947321" y2="76.18653347947321" /><line stroke="black" stroke-width="3" x1="443.0" x2="450.5" y1="76.18653347947321" y2="50.20577136594005" /><line stroke="black" stroke-width="3" x1="450.5" x2="480.5" y1="50.20577136594005" y2="50.20577136594005" /><line stroke="black" stroke-width="3" x1="480.5" x2="488.0" y1="50.20577136594005" y2="24.2250092524069" /><line stroke="black" stroke-width="3" x1="488.0" x2="428.0" y1="24.2250092524069" y2="24.2250092524069" /><line stroke="black" stroke-width="3" x1="428.0" x2="390.5" y1="24.2250092524069" y2="50.20577136594005" /><line stroke="black" stroke-width="3" x1="390.5" x2="375.5" y1="50.20577136594005" y2="102.16729559300637" /><line stroke="black" stroke-width="3" x1="420.5" x2="450.5" y1="50.20577136594005" y2="50.20577136594005" /><line stroke="black" stroke-width="3" x1="495.5" x2="555.5" y1="102.16729559300637" y2="102.16729559300637" /><line stroke="black" stroke-width="3" x1="555.5" x2="593.0" y1="102.16729559300637" y2="76.18653347947321" /><line stroke="black" stroke-width="3" x1="593.0" x2="563.0" y1="76.18653347947321" y2="76.18653347947321" /><line stroke="black" stroke-width="3" x1="563.0" x2="570.5" y1="76.18653347947321" y2="50.20577136594005" /><line stroke="black" stroke-width="3" x1="570.5" x2="600.5" y1="50.20577136594005" y2="50.20577136594005" /><line stroke="black" stroke-width="3" x1="600.5" x2="608.0" y1="50.20577136594005" y2="24.2250092524069" /><line stroke="black" stroke-width="3" x1="608.0" x2="548.0" y1="24.2250092524069" y2="24.2250092524069" /><line stroke="black" stroke-width="3" x1="548.0" x2="510.5" y1="24.2250092524069" y2="50.20577136594005" /><line stroke="black" stroke-width="3" x1="510.5" x2="495.5" y1="50.20577136594005" y2="102.16729559300637" /><line stroke="black" stroke-width="3" x1="533.0" x2="563.0" y1="76.18653347947321" y2="76.18653347947321" /><line stroke="black" stroke-width="3" x1="540.5" x2="570.5" y1="50.20577136594005" y2="50.20577136594005" /><line stroke="black" stroke-width="3" x1="615.5" x2="645.5" y1="102.16729559300637" y2="102.16729559300637" /><line stroke="black" stroke-width="3" x1="645.5" x2="653.0" y1="102.16729559300637" y2="76.18653347947321" /><line stroke="black" stroke-width="3" x1="653.0" x2="683.0" y1="76.18653347947321" y2="76.18653347947321" /><line stroke="black" stroke-width="3" x1="683.0" x2="675.5" y1="76.18653347947321" y2="102.16729559300637" /><line stroke="black" stroke-width="3" x1="675.5" x2="713.0" y1="102.16729559300637" y2="76.18653347947321" /><line stroke="black" stroke-width="3" x1="713.0" x2="728.0" y1="76.18653347947321" y2="24.2250092524069" /><line stroke="black" stroke-width="3" x1="728.0" x2="668.0" y1="24.2250092524069" y2="24.2250092524069" /><line stroke="black" stroke-width="3" x1="668.0" x2="630.5" y1="24.2250092524069" y2="50.20577136594005" /><line stroke="black" stroke-width="3" x1="630.5" x2="615.5" y1="50.20577136594005" y2="102.16729559300637" /><line stroke="black" stroke-width="3" x1="653.0" x2="660.5" y1="76.18653347947321" y2="50.20577136594005" /><line stroke="black" stroke-width="3" x1="683.0" x2="690.5" y1="76.18653347947321" y2="50.20577136594005" /></svg>