<?xml version="1.0" encoding="utf-8" ?>
<svg baseProfile="full" height="200" version="1.1" width="800" xmlns="http://www.w3.org/2000/svg" xmlns:ev="http://www.w3.org/2001/xml-events" xmlns:xlink="http://www.w3.org/1999/xlink"><defs /><polygon fill="white" points="30.0,119.96152422706632 90.0,119.96152422706632 127.5,93.98076211353316 142.5,42.01923788646684 82.5,42.01923788646684 45.0,68.0 30.0,119.96152422706632" /><polygon fill="white" points="150.0,119.96152422706632 210.0,119.96152422706632 247.5,93.98076211353316 262.5,42.01923788646684 232.5,42.01923788646684 225.0,68.0 195.0,68.0 202.5,42.01923788646684 165.0,68.0 150.0,119.96152422706632" /><polygon fill="white" points="270.0,119.96152422706632 300.0,119.96152422706632 307.5,93.98076211353316 337.5,93.98076211353316 330.0,119.96152422706632 367.5,93.98076211353316 382.5,42.01923788646684 322.5,42.01923788646684 285.0,68.0 270.0,119.96152422706632" /><polygon fill="white" points="390.0,119.96152422706632 420.0,119.96152422706632 427.5,93.98076211353316 457.5,93.98076211353316 465.0,68.0 495.0,68.0 502.5,42.01923788646684 442.5,42.01923788646684 405.0,68.0 390.0,119.96152422706632" /><polygon fill="white" points="510.0,119.96152422706632 570.0,119.96152422706632 607.5,93.98076211353316 577.5,93.98076211353316 585.0,68.0 615.0,68.0 622.5,42.01923788646684 562.5,42.01923788646684 525.0,68.0 510.0,119.96152422706632" /><polygon fill="white" points="630.0,119.96152422706632 660.0,119.96152422706632 667.5,93.98076211353316 697.5,93.98076211353316 690.0,119.96152422706632 727.5,93.98076211353316 742.5,42.01923788646684 682.5,42.01923788646684 645.0,68.0 630.0,119.96152422706632" /><polygon fill="#CCCCCC" points="-97.5,223.88457268119896 -90.0,197.90381056766577 -60.0,197.90381056766577" stroke="black" stroke-width="1" /><polygon fill="#CCCCCC" points="-90.0,197.90381056766577 -82.5,171.92304845413264 -52.5,171.92304845413264" stroke="black" stroke-width="1" /><polygon fill="#CCCCCC" points="-82.5,171.92304845413264 -75.0,145.94228634059948 -45.0,145.94228634059948" stroke="black" stroke-width="1" /><polygon fill="#CCCCCC" points="-75.0,145.94228634059948 -67.5,119.96152422706632 -37.5,119.96152422706632" stroke="black" stroke-width="1" /><polygon fill="#CCCCCC" points="-67.5,119.96152422706632 -60.0,93.98076211353316 -30.0,93.98076211353316" stroke="black" stroke-width="1" /><polygon fill="#CCCCCC" points="-60.0,93.98076211353316 -52.5,68.0 -22.5,68.0" stroke="black" stroke-width="1" /><polygon fill="#CCCCCC" points="-52.5,68.0 -45.0,42.01923788646684 -15.0,42.01923788646684" stroke="black" stroke-width="1" /><polygon fill="#CCCCCC" points="-45.0,42.01923788646684 -37.5,16.038475772933687 -7.5,16.038475772933687" stroke="black" stroke-width="1" /><polygon fill="#CCCCCC" points="-37.5,16.038475772933687 -30.0,-9.94228634059948 0.0,-9.94228634059948" stroke="black" stroke-width="1" /><polygon fill="#CCCCCC" points="-30.0,-9.94228634059948 -22.5,-35.923048454132626 7.5,-35.923048454132626" stroke="black" stroke-width="1" /><polygon fill="#CCCCCC" points="-97.5,223.88457268119896 -67.5,223.88457268119896 -60.0,197.90381056766577" stroke="black" stroke-width="1" /><polygon fill="#CCCCCC" points="-90.0,197.90381056766577 -60.0,197.90381056766577 -52.5,171.92304845413264" stroke="black" stroke-width="1" /><polygon fill="#CCCCCC" points="-82.5,171.92304845413264 -52.5,171.92304845413264 -45.0,145.94228634059948" stroke="black" stroke-width="1" /><polygon fill="#CCCCCC" points="-75.0,145.94228634059948 -45.0,145.94228634059948 -37.5,119.96152422706632" stroke="black" stroke-width="1" /><polygon fill="#CCCCCC" points="-67.5,119.96152422706632 -37.5,119.96152422706632 -30.0,93.98076211353316" stroke="black" stroke-width="1" /><polygon fill="#CCCCCC" points="-60.0,93.98076211353316 -30.0,93.98076211353316 -22.5,68.0" stroke="black" stroke-width="1" /><polygon fill="#CCCCCC" points="-52.5,68.0 -22.5,68.0 -15.0,42.01923788646684" stroke="black" stroke-width="1" /><polygon fill="#CCCCCC" points="-45.0,42.01923788646684 -15.0,42.01923788646684 -7.5,16.038475772933687" stroke="black" stroke-width="1" /><polygon fill="#CCCCCC" points="-37.5,16.038475772933687 -7.5,16.038475772933687 0.0,-9.94228634059948" stroke="black" stroke-width="1" /><polygon fill="#CCCCCC" points="-30.0,-9.94228634059948 0.0,-9.94228634059948 7.5,-35.923048454132626" stroke="black" stroke-width="1" /><polygon fill="#CCCCCC" points="-67.5,223.88457268119896 -60.0,197.90381056766577 -30.0,197.90381056766577" stroke="black" stroke-width="1" /><polygon fill="#CCCCCC" points="-60.0,197.90381056766577 -52.5,171.92304845413264 -22.5,171.92304845413264" stroke="black" stroke-width="1" /><polygon fill="#CCCCCC" points="-52.5,171.92304845413264 -45.0,145.94228634059948 -15.0,145.94228634059948" stroke="black" stroke-width="1" /><polygon fill="#CCCCCC" points="-45.0,145.94228634059948 -37.5,119.96152422706632 -7.5,119.96152422706632" stroke="black" stroke-width="1" /><polygon fill="#CCCCCC" points="-37.5,119.96152422706632 -30.0,93.98076211353316 0.0,93.98076211353316" stroke="black" stroke-width="1" /><polygon fill="#CCCCCC" points="-30.0,93.98076211353316 -22.5,68.0 7.5,68.0" stroke="black" stroke-width="1" /><polygon fill="#CCCCCC" points="-22.5,68.0 -15.0,42.01923788646684 15.0,42.01923788646684" stroke="black" stroke-width="1" /><polygon fill="#CCCCCC" points="-15.0,42.01923788646684 -7.5,16.038475772933687 22.5,16.038475772933687" stroke="black" stroke-width="1" /><polygon fill="#CCCCCC" points="-7.5,16.038475772933687 0.0,-9.94228634059948 30.0,-9.94228634059948" stroke="black" stroke-width="1" /><polygon fill="#CCCCCC" points="0.0,-9.94228634059948 7.5,-35.923048454132626 37.5,-35.923048454132626" stroke="black" stroke-width="1" /><polygon fill="#CCCCCC" points="-67.5,223.88457268119896 -37.5,223.88457268119896 -30.0,197.90381056766577" stroke="black" stroke-width="1" /><polygon fill="#CCCCCC" points="-60.0,197.90381056766577 -30.0,197.90381056766577 -22.5,171.92304845413264" stroke="black" stroke-width="1" /><polygon fill="#CCCCCC" points="-52.5,171.92304845413264 -22.5,171.92304845413264 -15.0,145.94228634059948" stroke="black" stroke-width="1" /><polygon fill="#CCCCCC" points="-45.0,145.94228634059948 -15.0,145.94228634059948 -7.5,119.96152422706632" stroke="black" stroke-width="1" /><polygon fill="#CCCCCC" points="-37.5,119.96152422706632 -7.5,119.96152422706632 0.0,93.98076211353316" stroke="black" stroke-width="1" /><polygon fill="#CCCCCC" points="-30.0,93.98076211353316 0.0,93.98076211353316 7.5,68.0" stroke="black" stroke-width="1" /><polygon fill="#CCCCCC" points="-22.5,68.0 7.5,68.0 15.0,42.01923788646684" stroke="black" stroke-width="1" /><polygon fill="#CCCCCC" points="-15.0,42.01923788646684 15.0,42.01923788646684 22.5,16.038475772933687" stroke="black" stroke-width="1" /><polygon fill="#CCCCCC" points="-7.5,16.038475772933687 22.5,16.038475772933687 30.0,-9.94228634059948" stroke="black" stroke-width="1" /><polygon fill="#CCCCCC" points="0.0,-9.94228634059948 30.0,-9.94228634059948 37.5,-35.923048454132626" stroke="black" stroke-width="1" /><polygon fill="#CCCCCC" points="-37.5,223.88457268119896 -30.0,197.90381056766577 0.0,197.90381056766577" stroke="black" stroke-width="1" /><polygon fill="#CCCCCC" points="-30.0,197.90381056766577 -22.5,171.92304845413264 7.5,171.92304845413264" stroke="black" stroke-width="1" /><polygon fill="#CCCCCC" points="-22.5,171.92304845413264 -15.0,145.94228634059948 15.0,145.94228634059948" stroke="black" stroke-width="1" /><polygon fill="#CCCCCC" points="-15.0,145.94228634059948 -7.5,119.96152422706632 22.5,119.96152422706632" stroke="black" stroke-width="1" /><polygon fill="#CCCCCC" points="-7.5,119.96152422706632 0.0,93.98076211353316 30.0,93.98076211353316" stroke="black" stroke-width="1" /><polygon fill="#CCCCCC" points="0.0,93.98076211353316 7.5,68.0 37.5,68.0" stroke="black" stroke-width="1" /><polygon fill="#CCCCCC" points="7.5,68.0 15.0,42.01923788646684 45.0,42.01923788646684" stroke="black" stroke-width="1" /><polygon fill="#CCCCCC" points="15.0,42.01923788646684 22.5,16.038475772933687 52.5,16.038475772933687" stroke="black" stroke-width="1" /><polygon fill="#CCCCCC" points="22.5,16.038475772933687 30.0,-9.94228634059948 60.0,-9.94228634059948" stroke="black" stroke-width="1" /><polygon fill="#CCCCCC" points="30.0,-9.94228634059948 37.5,-35.923048454132626 67.5,-35.923048454132626" stroke="black" stroke-width="1" /><polygon fill="#CCCCCC" points="-37.5,223.88457268119896 -7.5,223.88457268119896 0.0,197.90381056766577" stroke="black" stroke-width="1" /><polygon fill="#CCCCCC" points="-30.0,197.90381056766577 0.0,197.90381056766577 7.5,171.92304845413264" stroke="black" stroke-width="1" /><polygon fill="#CCCCCC" points="-22.5,171.92304845413264 7.5,171.92304845413264 15.0,145.94228634059948" stroke="black" stroke-width="1" /><polygon fill="#CCCCCC" points="-15.0,145.94228634059948 15.0,145.94228634059948 22.5,119.96152422706632" stroke="black" stroke-width="1" /><polygon fill="#CCCCCC" points="-7.5,119.96152422706632 22.5,119.96152422706632 30.0,93.98076211353316" stroke="black" stroke-width="1" /><polygon fill="#CCCCCC" points="0.0,93.98076211353316 30.0,93.98076211353316 37.5,68.0" stroke="black" stroke-width="1" /><polygon fill="#CCCCCC" points="7.5,68.0 37.5,68.0 45.0,42.01923788646684" stroke="black" stroke-width="1" /><polygon fill="#CCCCCC" points="15.0,42.01923788646684 45.0,42.01923788646684 52.5,16.038475772933687" stroke="black" stroke-width="1" /><polygon fill="#CCCCCC" points="22.5,16.038475772933687 52.5,16.038475772933687 60.0,-9.94228634059948" stroke="black" stroke-width="1" /><polygon fill="#CCCCCC" points="30.0,-9.94228634059948 60.0,-9.94228634059948 67.5,-35.923048454132626" stroke="black" stroke-width="1" /><polygon fill="#CCCCCC" points="-7.5,223.88457268119896 0.0,197.90381056766577 30.0,197.90381056766577" stroke="black" stroke-width="1" /><polygon fill="#CCCCCC" points="0.0,197.90381056766577 7.5,171.92304845413264 37.5,171.92304845413264" stroke="black" stroke-width="1" /><polygon fill="#CCCCCC" points="30.0,93.98076211353316 37.5,68.0 67.5,68.0" stroke="black" stroke-width="1" /><polygon fill="#CCCCCC" points="37.5,68.0 45.0,42.01923788646684 75.0,42.01923788646684" stroke="black" stroke-width="1" /><polygon fill="#CCCCCC" points="45.0,42.01923788646684 52.5,16.038475772933687 82.5,16.038475772933687" stroke="black" stroke-width="1" /><polygon fill="#CCCCCC" points="52.5,16.038475772933687 60.0,-9.94228634059948 90.0,-9.94228634059948" stroke="black" stroke-width="1" /><polygon fill="#CCCCCC" points="60.0,-9.94228634059948 67.5,-35.923048454132626 97.5,-35.923048454132626" stroke="black" stroke-width="1" /><polygon fill="#CCCCCC" points="-7.5,223.88457268119896 22.5,223.88457268119896 30.0,197.90381056766577" stroke="black" stroke-width="1" /><polygon fill="#CCCCCC" points="0.0,197.90381056766577 30.0,197.90381056766577 37.5,171.92304845413264" stroke="black" stroke-width="1" /><polygon fill="#CCCCCC" points="37.5,68.0 67.5,68.0 75.0,42.01923788646684" stroke="black" stroke-width="1" /><polygon fill="#CCCCCC" points="45.0,42.01923788646684 75.0,42.01923788646684 82.5,16.038475772933687" stroke="black" stroke-width="1" /><polygon fill="#CCCCCC" points="52.5,16.038475772933687 82.5,16.038475772933687 90.0,-9.94228634059948" stroke="black" stroke-width="1" /><polygon fill="#CCCCCC" points="60.0,-9.94228634059948 90.0,-9.94228634059948 97.5,-35.923048454132626" stroke="black" stroke-width="1" /><polygon fill="#999999" points="7.5,171.92304845413264 15.0,145.94228634059948 25.5,112.16729559300637" stroke="black" stroke-width="1" /><polygon fill="#999999" points="15.0,145.94228634059948 22.5,119.96152422706632 33.0,86.18653347947321" stroke="black" stroke-width="1" /><polygon fill="#999999" points="22.5,119.96152422706632 30.0,93.98076211353316 40.5,60.20577136594005" stroke="black" stroke-width="1" /><polygon fill="#999999" points="7.5,171.92304845413264 37.5,171.92304845413264 25.5,112.16729559300637" stroke="black" stroke-width="1" /><polygon fill="#CCCCCC" points="30.0,93.98076211353316 40.5,60.20577136594005 67.5,68.0" stroke="black" stroke-width="1" /><polygon fill="#CCCCCC" points="22.5,223.88457268119896 30.0,197.90381056766577 60.0,197.90381056766577" stroke="black" stroke-width="1" /><polygon fill="#CCCCCC" points="30.0,197.90381056766577 37.5,171.92304845413264 67.5,171.92304845413264" stroke="black" stroke-width="1" /><polygon fill="#CCCCCC" points="67.5,68.0 75.0,42.01923788646684 105.0,42.01923788646684" stroke="black" stroke-width="1" /><polygon fill="#CCCCCC" points="75.0,42.01923788646684 82.5,16.038475772933687 112.5,16.038475772933687" stroke="black" stroke-width="1" /><polygon fill="#CCCCCC" points="82.5,16.038475772933687 90.0,-9.94228634059948 120.0,-9.94228634059948" stroke="black" stroke-width="1" /><polygon fill="#CCCCCC" points="90.0,-9.94228634059948 97.5,-35.923048454132626 127.5,-35.923048454132626" stroke="black" stroke-width="1" /><polygon fill="#999999" points="15.0,145.94228634059948 25.5,112.16729559300637 33.0,86.18653347947321" stroke="black" stroke-width="1" /><polygon fill="#999999" points="22.5,119.96152422706632 33.0,86.18653347947321 40.5,60.20577136594005" stroke="black" stroke-width="1" /><polygon fill="#CCCCCC" points="22.5,223.88457268119896 52.5,223.88457268119896 60.0,197.90381056766577" stroke="black" stroke-width="1" /><polygon fill="#CCCCCC" points="30.0,197.90381056766577 60.0,197.90381056766577 67.5,171.92304845413264" stroke="black" stroke-width="1" /><polygon fill="#CCCCCC" points="75.0,42.01923788646684 105.0,42.01923788646684 112.5,16.038475772933687" stroke="black" stroke-width="1" /><polygon fill="#CCCCCC" points="82.5,16.038475772933687 112.5,16.038475772933687 120.0,-9.94228634059948" stroke="black" stroke-width="1" /><polygon fill="#CCCCCC" points="90.0,-9.94228634059948 120.0,-9.94228634059948 127.5,-35.923048454132626" stroke="black" stroke-width="1" /><polygon fill="#999999" points="37.5,171.92304845413264 67.5,171.92304845413264 55.5,112.16729559300637" stroke="black" stroke-width="1" /><polygon fill="#CCCCCC" points="67.5,68.0 78.0,34.2250092524069 105.0,42.01923788646684" stroke="black" stroke-width="1" /><polygon fill="#999999" points="37.5,171.92304845413264 25.5,112.16729559300637 55.5,112.16729559300637" stroke="black" stroke-width="1" /><polygon fill="#CCCCCC" points="40.5,60.20577136594005 67.5,68.0 78.0,34.2250092524069" stroke="black" stroke-width="1" /><polygon fill="#CCCCCC" points="52.5,223.88457268119896 60.0,197.90381056766577 90.0,197.90381056766577" stroke="black" stroke-width="1" /><polygon fill="#CCCCCC" points="60.0,197.90381056766577 67.5,171.92304845413264 97.5,171.92304845413264" stroke="black" stroke-width="1" /><polygon fill="#CCCCCC" points="105.0,42.01923788646684 112.5,16.038475772933687 142.5,16.038475772933687" stroke="black" stroke-width="1" /><polygon fill="#CCCCCC" points="112.5,16.038475772933687 120.0,-9.94228634059948 150.0,-9.94228634059948" stroke="black" stroke-width="1" /><polygon fill="#CCCCCC" points="120.0,-9.94228634059948 127.5,-35.923048454132626 157.5,-35.923048454132626" stroke="black" stroke-width="1" /><polygon fill="#FFA366" points="25.5,112.16729559300637 33.0,86.18653347947321 63.0,86.18653347947321" stroke="#999999" stroke-width="1" /><polygon fill="#FFA366" points="33.0,86.18653347947321 40.5,60.20577136594005 70.5,60.20577136594005" stroke="#999999" stroke-width="1" /><polygon fill="#CCCCCC" points="52.5,223.88457268119896 82.5,223.88457268119896 90.0,197.90381056766577" stroke="black" stroke-width="1" /><polygon fill="#CCCCCC" points="60.0,197.90381056766577 90.0,197.90381056766577 97.5,171.92304845413264" stroke="black" stroke-width="1" /><polygon fill="#CCCCCC" points="105.0,42.01923788646684 135.0,42.01923788646684 142.5,16.038475772933687" stroke="black" stroke-width="1" /><polygon fill="#CCCCCC" points="112.5,16.038475772933687 142.5,16.038475772933687 150.0,-9.94228634059948" stroke="black" stroke-width="1" /><polygon fill="#CCCCCC" points="120.0,-9.94228634059948 150.0,-9.94228634059948 157.5,-35.923048454132626" stroke="black" stroke-width="1" /><polygon fill="#AAAAAA" points="78.0,34.2250092524069 105.0,42.01923788646684 135.0,42.01923788646684" stroke="black" stroke-width="1" /><polygon fill="#FFA366" points="25.5,112.16729559300637 55.5,112.16729559300637 63.0,86.18653347947321" stroke="#999999" stroke-width="1" /><polygon fill="#FFA366" points="33.0,86.18653347947321 63.0,86.18653347947321 70.5,60.20577136594005" stroke="#999999" stroke-width="1" /><polygon fill="#FFA366" points="40.5,60.20577136594005 70.5,60.20577136594005 78.0,34.2250092524069" stroke="#999999" stroke-width="1" /><polygon fill="#999999" points="67.5,171.92304845413264 97.5,171.92304845413264 85.5,112.16729559300637" stroke="black" stroke-width="1" /><polygon fill="#999999" points="67.5,171.92304845413264 55.5,112.16729559300637 85.5,112.16729559300637" stroke="black" stroke-width="1" /><polygon fill="#CCCCCC" points="82.5,223.88457268119896 90.0,197.90381056766577 120.0,197.90381056766577" stroke="black" stroke-width="1" /><polygon fill="#CCCCCC" points="90.0,197.90381056766577 97.5,171.92304845413264 127.5,171.92304845413264" stroke="black" stroke-width="1" /><polygon fill="#CCCCCC" points="135.0,42.01923788646684 142.5,16.038475772933687 172.5,16.038475772933687" stroke="black" stroke-width="1" /><polygon fill="#CCCCCC" points="142.5,16.038475772933687 150.0,-9.94228634059948 180.0,-9.94228634059948" stroke="black" stroke-width="1" /><polygon fill="#CCCCCC" points="150.0,-9.94228634059948 157.5,-35.923048454132626 187.5,-35.923048454132626" stroke="black" stroke-width="1" /><polygon fill="#AAAAAA" points="78.0,34.2250092524069 108.0,34.2250092524069 135.0,42.01923788646684" stroke="black" stroke-width="1" /><polygon fill="#FFA366" points="55.5,112.16729559300637 63.0,86.18653347947321 93.0,86.18653347947321" stroke="#999999" stroke-width="1" /><polygon fill="#FFA366" points="63.0,86.18653347947321 70.5,60.20577136594005 100.5,60.20577136594005" stroke="#999999" stroke-width="1" /><polygon fill="#FFA366" points="70.5,60.20577136594005 78.0,34.2250092524069 108.0,34.2250092524069" stroke="#999999" stroke-width="1" /><polygon fill="#CCCCCC" points="82.5,223.88457268119896 112.5,223.88457268119896 120.0,197.90381056766577" stroke="black" stroke-width="1" /><polygon fill="#CCCCCC" points="90.0,197.90381056766577 120.0,197.90381056766577 127.5,171.92304845413264" stroke="black" stroke-width="1" /><polygon fill="#CCCCCC" points="97.5,171.92304845413264 127.5,171.92304845413264 135.0,145.94228634059948" stroke="black" stroke-width="1" /><polygon fill="#CCCCCC" points="135.0,42.01923788646684 165.0,42.01923788646684 172.5,16.038475772933687" stroke="black" stroke-width="1" /><polygon fill="#CCCCCC" points="142.5,16.038475772933687 172.5,16.038475772933687 180.0,-9.94228634059948" stroke="black" stroke-width="1" /><polygon fill="#CCCCCC" points="150.0,-9.94228634059948 180.0,-9.94228634059948 187.5,-35.923048454132626" stroke="black" stroke-width="1" /><polygon fill="#AAAAAA" points="97.5,171.92304845413264 85.5,112.16729559300637 135.0,145.94228634059948" stroke="black" stroke-width="1" /><polygon fill="#AAAAAA" points="108.0,34.2250092524069 135.0,42.01923788646684 165.0,42.01923788646684" stroke="black" stroke-width="1" /><polygon fill="#FFA366" points="55.5,112.16729559300637 85.5,112.16729559300637 93.0,86.18653347947321" stroke="#999999" stroke-width="1" /><polygon fill="#FFA366" points="63.0,86.18653347947321 93.0,86.18653347947321 100.5,60.20577136594005" stroke="#999999" stroke-width="1" /><polygon fill="#FFA366" points="70.5,60.20577136594005 100.5,60.20577136594005 108.0,34.2250092524069" stroke="#999999" stroke-width="1" /><polygon fill="#CCCCCC" points="112.5,223.88457268119896 120.0,197.90381056766577 150.0,197.90381056766577" stroke="black" stroke-width="1" /><polygon fill="#CCCCCC" points="120.0,197.90381056766577 127.5,171.92304845413264 157.5,171.92304845413264" stroke="black" stroke-width="1" /><polygon fill="#CCCCCC" points="165.0,42.01923788646684 172.5,16.038475772933687 202.5,16.038475772933687" stroke="black" stroke-width="1" /><polygon fill="#CCCCCC" points="172.5,16.038475772933687 180.0,-9.94228634059948 210.0,-9.94228634059948" stroke="black" stroke-width="1" /><polygon fill="#CCCCCC" points="180.0,-9.94228634059948 187.5,-35.923048454132626 217.5,-35.923048454132626" stroke="black" stroke-width="1" /><polygon fill="#AAAAAA" points="85.5,112.16729559300637 135.0,145.94228634059948 123.0,86.18653347947321" stroke="black" stroke-width="1" /><polygon fill="#AAAAAA" points="108.0,34.2250092524069 138.0,34.2250092524069 165.0,42.01923788646684" stroke="black" stroke-width="1" /><polygon fill="#FFA366" points="85.5,112.16729559300637 93.0,86.18653347947321 123.0,86.18653347947321" stroke="#999999" stroke-width="1" /><polygon fill="#FFA366" points="93.0,86.18653347947321 100.5,60.20577136594005 130.5,60.20577136594005" stroke="#999999" stroke-width="1" /><polygon fill="#FFA366" points="100.5,60.20577136594005 108.0,34.2250092524069 138.0,34.2250092524069" stroke="#999999" stroke-width="1" /><polygon fill="#CCCCCC" points="112.5,223.88457268119896 142.5,223.88457268119896 150.0,197.90381056766577" stroke="black" stroke-width="1" /><polygon fill="#CCCCCC" points="120.0,197.90381056766577 150.0,197.90381056766577 157.5,171.92304845413264" stroke="black" stroke-width="1" /><polygon fill="#CCCCCC" points="165.0,42.01923788646684 195.0,42.01923788646684 202.5,16.038475772933687" stroke="black" stroke-width="1" /><polygon fill="#CCCCCC" points="172.5,16.038475772933687 202.5,16.038475772933687 210.0,-9.94228634059948" stroke="black" stroke-width="1" /><polygon fill="#CCCCCC" points="180.0,-9.94228634059948 210.0,-9.94228634059948 217.5,-35.923048454132626" stroke="black" stroke-width="1" /><polygon fill="#999999" points="127.5,171.92304845413264 135.0,145.94228634059948 145.5,112.16729559300637" stroke="black" stroke-width="1" /><polygon fill="#AAAAAA" points="138.0,34.2250092524069 165.0,42.01923788646684 195.0,42.01923788646684" stroke="black" stroke-width="1" /><polygon fill="#FFA366" points="93.0,86.18653347947321 123.0,86.18653347947321 130.5,60.20577136594005" stroke="#999999" stroke-width="1" /><polygon fill="#FFA366" points="100.5,60.20577136594005 130.5,60.20577136594005 138.0,34.2250092524069" stroke="#999999" stroke-width="1" /><polygon fill="#999999" points="127.5,171.92304845413264 157.5,171.92304845413264 145.5,112.16729559300637" stroke="black" stroke-width="1" /><polygon fill="#BBBBBB" points="138.0,34.2250092524069 187.5,68.0 195.0,42.01923788646684" stroke="black" stroke-width="1" /><polygon fill="#999999" points="135.0,145.94228634059948 123.0,86.18653347947321 153.0,86.18653347947321" stroke="black" stroke-width="1" /><polygon fill="#BBBBBB" points="130.5,60.20577136594005 138.0,34.2250092524069 187.5,68.0" stroke="black" stroke-width="1" /><polygon fill="#CCCCCC" points="142.5,223.88457268119896 150.0,197.90381056766577 180.0,197.90381056766577" stroke="black" stroke-width="1" /><polygon fill="#CCCCCC" points="150.0,197.90381056766577 157.5,171.92304845413264 187.5,171.92304845413264" stroke="black" stroke-width="1" /><polygon fill="#CCCCCC" points="187.5,68.0 195.0,42.01923788646684 225.0,42.01923788646684" stroke="black" stroke-width="1" /><polygon fill="#CCCCCC" points="195.0,42.01923788646684 202.5,16.038475772933687 232.5,16.038475772933687" stroke="black" stroke-width="1" /><polygon fill="#CCCCCC" points="202.5,16.038475772933687 210.0,-9.94228634059948 240.0,-9.94228634059948" stroke="black" stroke-width="1" /><polygon fill="#CCCCCC" points="210.0,-9.94228634059948 217.5,-35.923048454132626 247.5,-35.923048454132626" stroke="black" stroke-width="1" /><polygon fill="#999999" points="135.0,145.94228634059948 145.5,112.16729559300637 153.0,86.18653347947321" stroke="black" stroke-width="1" /><polygon fill="#AAAAAA" points="130.5,60.20577136594005 160.5,60.20577136594005 187.5,68.0" stroke="black" stroke-width="1" /><polygon fill="#CCCCCC" points="123.0,86.18653347947321 130.5,60.20577136594005 160.5,60.20577136594005" stroke="black" stroke-width="1" /><polygon fill="#CCCCCC" points="142.5,223.88457268119896 172.5,223.88457268119896 180.0,197.90381056766577" stroke="black" stroke-width="1" /><polygon fill="#CCCCCC" points="150.0,197.90381056766577 180.0,197.90381056766577 187.5,171.92304845413264" stroke="black" stroke-width="1" /><polygon fill="#CCCCCC" points="195.0,42.01923788646684 225.0,42.01923788646684 232.5,16.038475772933687" stroke="black" stroke-width="1" /><polygon fill="#CCCCCC" points="202.5,16.038475772933687 232.5,16.038475772933687 240.0,-9.94228634059948" stroke="black" stroke-width="1" /><polygon fill="#CCCCCC" points="210.0,-9.94228634059948 240.0,-9.94228634059948 247.5,-35.923048454132626" stroke="black" stroke-width="1" /><polygon fill="#CCCCCC" points="123.0,86.18653347947321 153.0,86.18653347947321 160.5,60.20577136594005" stroke="black" stroke-width="1" /><polygon fill="#999999" points="157.5,171.92304845413264 187.5,171.92304845413264 175.5,112.16729559300637" stroke="black" stroke-width="1" /><polygon fill="#CCCCCC" points="187.5,68.0 198.0,34.2250092524069 225.0,42.01923788646684" stroke="black" stroke-width="1" /><polygon fill="#999999" points="157.5,171.92304845413264 145.5,112.16729559300637 175.5,112.16729559300637" stroke="black" stroke-width="1" /><polygon fill="#CCCCCC" points="160.5,60.20577136594005 187.5,68.0 198.0,34.2250092524069" stroke="black" stroke-width="1" /><polygon fill="#CCCCCC" points="172.5,223.88457268119896 180.0,197.90381056766577 210.0,197.90381056766577" stroke="black" stroke-width="1" /><polygon fill="#CCCCCC" points="180.0,197.90381056766577 187.5,171.92304845413264 217.5,171.92304845413264" stroke="black" stroke-width="1" /><polygon fill="#CCCCCC" points="225.0,42.01923788646684 232.5,16.038475772933687 262.5,16.038475772933687" stroke="black" stroke-width="1" /><polygon fill="#CCCCCC" points="232.5,16.038475772933687 240.0,-9.94228634059948 270.0,-9.94228634059948" stroke="black" stroke-width="1" /><polygon fill="#CCCCCC" points="240.0,-9.94228634059948 247.5,-35.923048454132626 277.5,-35.923048454132626" stroke="black" stroke-width="1" /><polygon fill="#FFA366" points="145.5,112.16729559300637 153.0,86.18653347947321 183.0,86.18653347947321" stroke="#999999" stroke-width="1" /><polygon fill="#FFA366" points="153.0,86.18653347947321 160.5,60.20577136594005 190.5,60.20577136594005" stroke="#999999" stroke-width="1" /><polygon fill="#CCCCCC" points="172.5,223.88457268119896 202.5,223.88457268119896 210.0,197.90381056766577" stroke="black" stroke-width="1" /><polygon fill="#CCCCCC" points="180.0,197.90381056766577 210.0,197.90381056766577 217.5,171.92304845413264" stroke="black" stroke-width="1" /><polygon fill="#CCCCCC" points="225.0,42.01923788646684 255.0,42.01923788646684 262.5,16.038475772933687" stroke="black" stroke-width="1" /><polygon fill="#CCCCCC" points="232.5,16.038475772933687 262.5,16.038475772933687 270.0,-9.94228634059948" stroke="black" stroke-width="1" /><polygon fill="#CCCCCC" points="240.0,-9.94228634059948 270.0,-9.94228634059948 277.5,-35.923048454132626" stroke="black" stroke-width="1" /><polygon fill="#AAAAAA" points="198.0,34.2250092524069 225.0,42.01923788646684 255.0,42.01923788646684" stroke="black" stroke-width="1" /><polygon fill="#FFA366" points="145.5,112.16729559300637 175.5,112.16729559300637 183.0,86.18653347947321" stroke="#999999" stroke-width="1" /><polygon fill="#FFA366" points="153.0,86.18653347947321 183.0,86.18653347947321 190.5,60.20577136594005" stroke="#999999" stroke-width="1" /><polygon fill="#FFA366" points="160.5,60.20577136594005 190.5,60.20577136594005 198.0,34.2250092524069" stroke="#999999" stroke-width="1" /><polygon fill="#999999" points="187.5,171.92304845413264 217.5,171.92304845413264 205.5,112.16729559300637" stroke="black" stroke-width="1" /><polygon fill="#999999" points="187.5,171.92304845413264 175.5,112.16729559300637 205.5,112.16729559300637" stroke="black" stroke-width="1" /><polygon fill="#CCCCCC" points="202.5,223.88457268119896 210.0,197.90381056766577 240.0,197.90381056766577" stroke="black" stroke-width="1" /><polygon fill="#CCCCCC" points="210.0,197.90381056766577 217.5,171.92304845413264 247.5,171.92304845413264" stroke="black" stroke-width="1" /><polygon fill="#CCCCCC" points="255.0,42.01923788646684 262.5,16.038475772933687 292.5,16.038475772933687" stroke="black" stroke-width="1" /><polygon fill="#CCCCCC" points="262.5,16.038475772933687 270.0,-9.94228634059948 300.0,-9.94228634059948" stroke="black" stroke-width="1" /><polygon fill="#CCCCCC" points="270.0,-9.94228634059948 277.5,-35.923048454132626 307.5,-35.923048454132626" stroke="black" stroke-width="1" /><polygon fill="#AAAAAA" points="198.0,34.2250092524069 228.0,34.2250092524069 255.0,42.01923788646684" stroke="black" stroke-width="1" /><polygon fill="#FFA366" points="175.5,112.16729559300637 183.0,86.18653347947321 213.0,86.18653347947321" stroke="#999999" stroke-width="1" /><polygon fill="#FFA366" points="183.0,86.18653347947321 190.5,60.20577136594005 220.5,60.20577136594005" stroke="#999999" stroke-width="1" /><polygon fill="#CCCCCC" points="190.5,60.20577136594005 198.0,34.2250092524069 228.0,34.2250092524069" stroke="black" stroke-width="1" /><polygon fill="#CCCCCC" points="202.5,223.88457268119896 232.5,223.88457268119896 240.0,197.90381056766577" stroke="black" stroke-width="1" /><polygon fill="#CCCCCC" points="210.0,197.90381056766577 240.0,197.90381056766577 247.5,171.92304845413264" stroke="black" stroke-width="1" /><polygon fill="#CCCCCC" points="217.5,171.92304845413264 247.5,171.92304845413264 255.0,145.94228634059948" stroke="black" stroke-width="1" /><polygon fill="#CCCCCC" points="255.0,42.01923788646684 285.0,42.01923788646684 292.5,16.038475772933687" stroke="black" stroke-width="1" /><polygon fill="#CCCCCC" points="262.5,16.038475772933687 292.5,16.038475772933687 300.0,-9.94228634059948" stroke="black" stroke-width="1" /><polygon fill="#CCCCCC" points="270.0,-9.94228634059948 300.0,-9.94228634059948 307.5,-35.923048454132626" stroke="black" stroke-width="1" /><polygon fill="#AAAAAA" points="217.5,171.92304845413264 205.5,112.16729559300637 255.0,145.94228634059948" stroke="black" stroke-width="1" /><polygon fill="#AAAAAA" points="228.0,34.2250092524069 255.0,42.01923788646684 285.0,42.01923788646684" stroke="black" stroke-width="1" /><polygon fill="#FFA366" points="175.5,112.16729559300637 205.5,112.16729559300637 213.0,86.18653347947321" stroke="#999999" stroke-width="1" /><polygon fill="#FFA366" points="183.0,86.18653347947321 213.0,86.18653347947321 220.5,60.20577136594005" stroke="#999999" stroke-width="1" /><polygon fill="#CCCCCC" points="190.5,60.20577136594005 220.5,60.20577136594005 228.0,34.2250092524069" stroke="black" stroke-width="1" /><polygon fill="#CCCCCC" points="232.5,223.88457268119896 240.0,197.90381056766577 270.0,197.90381056766577" stroke="black" stroke-width="1" /><polygon fill="#CCCCCC" points="240.0,197.90381056766577 247.5,171.92304845413264 277.5,171.92304845413264" stroke="black" stroke-width="1" /><polygon fill="#CCCCCC" points="285.0,42.01923788646684 292.5,16.038475772933687 322.5,16.038475772933687" stroke="black" stroke-width="1" /><polygon fill="#CCCCCC" points="292.5,16.038475772933687 300.0,-9.94228634059948 330.0,-9.94228634059948" stroke="black" stroke-width="1" /><polygon fill="#CCCCCC" points="300.0,-9.94228634059948 307.5,-35.923048454132626 337.5,-35.923048454132626" stroke="black" stroke-width="1" /><polygon fill="#AAAAAA" points="205.5,112.16729559300637 255.0,145.94228634059948 243.0,86.18653347947321" stroke="black" stroke-width="1" /><polygon fill="#AAAAAA" points="228.0,34.2250092524069 258.0,34.2250092524069 285.0,42.01923788646684" stroke="black" stroke-width="1" /><polygon fill="#FFA366" points="205.5,112.16729559300637 213.0,86.18653347947321 243.0,86.18653347947321" stroke="#999999" stroke-width="1" /><polygon fill="#FFA366" points="213.0,86.18653347947321 220.5,60.20577136594005 250.5,60.20577136594005" stroke="#999999" stroke-width="1" /><polygon fill="#FFA366" points="220.5,60.20577136594005 228.0,34.2250092524069 258.0,34.2250092524069" stroke="#999999" stroke-width="1" /><polygon fill="#CCCCCC" points="232.5,223.88457268119896 262.5,223.88457268119896 270.0,197.90381056766577" stroke="black" stroke-width="1" /><polygon fill="#CCCCCC" points="240.0,197.90381056766577 270.0,197.90381056766577 277.5,171.92304845413264" stroke="black" stroke-width="1" /><polygon fill="#CCCCCC" points="285.0,42.01923788646684 315.0,42.01923788646684 322.5,16.038475772933687" stroke="black" stroke-width="1" /><polygon fill="#CCCCCC" points="292.5,16.038475772933687 322.5,16.038475772933687 330.0,-9.94228634059948" stroke="black" stroke-width="1" /><polygon fill="#CCCCCC" points="300.0,-9.94228634059948 330.0,-9.94228634059948 337.5,-35.923048454132626" stroke="black" stroke-width="1" /><polygon fill="#999999" points="247.5,171.92304845413264 255.0,145.94228634059948 265.5,112.16729559300637" stroke="black" stroke-width="1" /><polygon fill="#AAAAAA" points="258.0,34.2250092524069 285.0,42.01923788646684 315.0,42.01923788646684" stroke="black" stroke-width="1" /><polygon fill="#FFA366" points="213.0,86.18653347947321 243.0,86.18653347947321 250.5,60.20577136594005" stroke="#999999" stroke-width="1" /><polygon fill="#FFA366" points="220.5,60.20577136594005 250.5,60.20577136594005 258.0,34.2250092524069" stroke="#999999" stroke-width="1" /><polygon fill="#999999" points="247.5,171.92304845413264 277.5,171.92304845413264 265.5,112.16729559300637" stroke="black" stroke-width="1" /><polygon fill="#BBBBBB" points="258.0,34.2250092524069 307.5,68.0 315.0,42.01923788646684" stroke="black" stroke-width="1" /><polygon fill="#999999" points="255.0,145.94228634059948 243.0,86.18653347947321 273.0,86.18653347947321" stroke="black" stroke-width="1" /><polygon fill="#BBBBBB" points="250.5,60.20577136594005 258.0,34.2250092524069 307.5,68.0" stroke="black" stroke-width="1" /><polygon fill="#CCCCCC" points="262.5,223.88457268119896 270.0,197.90381056766577 300.0,197.90381056766577" stroke="black" stroke-width="1" /><polygon fill="#CCCCCC" points="270.0,197.90381056766577 277.5,171.92304845413264 307.5,171.92304845413264" stroke="black" stroke-width="1" /><polygon fill="#CCCCCC" points="307.5,68.0 315.0,42.01923788646684 345.0,42.01923788646684" stroke="black" stroke-width="1" /><polygon fill="#CCCCCC" points="315.0,42.01923788646684 322.5,16.038475772933687 352.5,16.038475772933687" stroke="black" stroke-width="1" /><polygon fill="#CCCCCC" points="322.5,16.038475772933687 330.0,-9.94228634059948 360.0,-9.94228634059948" stroke="black" stroke-width="1" /><polygon fill="#CCCCCC" points="330.0,-9.94228634059948 337.5,-35.923048454132626 367.5,-35.923048454132626" stroke="black" stroke-width="1" /><polygon fill="#999999" points="255.0,145.94228634059948 265.5,112.16729559300637 273.0,86.18653347947321" stroke="black" stroke-width="1" /><polygon fill="#AAAAAA" points="250.5,60.20577136594005 280.5,60.20577136594005 307.5,68.0" stroke="black" stroke-width="1" /><polygon fill="#CCCCCC" points="243.0,86.18653347947321 250.5,60.20577136594005 280.5,60.20577136594005" stroke="black" stroke-width="1" /><polygon fill="#CCCCCC" points="262.5,223.88457268119896 292.5,223.88457268119896 300.0,197.90381056766577" stroke="black" stroke-width="1" /><polygon fill="#CCCCCC" points="270.0,197.90381056766577 300.0,197.90381056766577 307.5,171.92304845413264" stroke="black" stroke-width="1" /><polygon fill="#CCCCCC" points="315.0,42.01923788646684 345.0,42.01923788646684 352.5,16.038475772933687" stroke="black" stroke-width="1" /><polygon fill="#CCCCCC" points="322.5,16.038475772933687 352.5,16.038475772933687 360.0,-9.94228634059948" stroke="black" stroke-width="1" /><polygon fill="#CCCCCC" points="330.0,-9.94228634059948 360.0,-9.94228634059948 367.5,-35.923048454132626" stroke="black" stroke-width="1" /><polygon fill="#CCCCCC" points="243.0,86.18653347947321 273.0,86.18653347947321 280.5,60.20577136594005" stroke="black" stroke-width="1" /><polygon fill="#999999" points="277.5,171.92304845413264 307.5,171.92304845413264 295.5,112.16729559300637" stroke="black" stroke-width="1" /><polygon fill="#CCCCCC" points="307.5,68.0 318.0,34.2250092524069 345.0,42.01923788646684" stroke="black" stroke-width="1" /><polygon fill="#999999" points="277.5,171.92304845413264 265.5,112.16729559300637 295.5,112.16729559300637" stroke="black" stroke-width="1" /><polygon fill="#CCCCCC" points="280.5,60.20577136594005 307.5,68.0 318.0,34.2250092524069" stroke="black" stroke-width="1" /><polygon fill="#CCCCCC" points="292.5,223.88457268119896 300.0,197.90381056766577 330.0,197.90381056766577" stroke="black" stroke-width="1" /><polygon fill="#CCCCCC" points="300.0,197.90381056766577 307.5,171.92304845413264 337.5,171.92304845413264" stroke="black" stroke-width="1" /><polygon fill="#CCCCCC" points="345.0,42.01923788646684 352.5,16.038475772933687 382.5,16.038475772933687" stroke="black" stroke-width="1" /><polygon fill="#CCCCCC" points="352.5,16.038475772933687 360.0,-9.94228634059948 390.0,-9.94228634059948" stroke="black" stroke-width="1" /><polygon fill="#CCCCCC" points="360.0,-9.94228634059948 367.5,-35.923048454132626 397.5,-35.923048454132626" stroke="black" stroke-width="1" /><polygon fill="#FFA366" points="265.5,112.16729559300637 273.0,86.18653347947321 303.0,86.18653347947321" stroke="#999999" stroke-width="1" /><polygon fill="#FFA366" points="273.0,86.18653347947321 280.5,60.20577136594005 310.5,60.20577136594005" stroke="#999999" stroke-width="1" /><polygon fill="#CCCCCC" points="292.5,223.88457268119896 322.5,223.88457268119896 330.0,197.90381056766577" stroke="black" stroke-width="1" /><polygon fill="#CCCCCC" points="300.0,197.90381056766577 330.0,197.90381056766577 337.5,171.92304845413264" stroke="black" stroke-width="1" /><polygon fill="#CCCCCC" points="345.0,42.01923788646684 375.0,42.01923788646684 382.5,16.038475772933687" stroke="black" stroke-width="1" /><polygon fill="#CCCCCC" points="352.5,16.038475772933687 382.5,16.038475772933687 390.0,-9.94228634059948" stroke="black" stroke-width="1" /><polygon fill="#CCCCCC" points="360.0,-9.94228634059948 390.0,-9.94228634059948 397.5,-35.923048454132626" stroke="black" stroke-width="1" /><polygon fill="#AAAAAA" points="318.0,34.2250092524069 345.0,42.01923788646684 375.0,42.01923788646684" stroke="black" stroke-width="1" /><polygon fill="#FFA366" points="265.5,112.16729559300637 295.5,112.16729559300637 303.0,86.18653347947321" stroke="#999999" stroke-width="1" /><polygon fill="#FFA366" points="273.0,86.18653347947321 303.0,86.18653347947321 310.5,60.20577136594005" stroke="#999999" stroke-width="1" /><polygon fill="#FFA366" points="280.5,60.20577136594005 310.5,60.20577136594005 318.0,34.2250092524069" stroke="#999999" stroke-width="1" /><polygon fill="#999999" points="307.5,171.92304845413264 337.5,171.92304845413264 325.5,112.16729559300637" stroke="black" stroke-width="1" /><polygon fill="#999999" points="307.5,171.92304845413264 295.5,112.16729559300637 325.5,112.16729559300637" stroke="black" stroke-width="1" /><polygon fill="#CCCCCC" points="322.5,223.88457268119896 330.0,197.90381056766577 360.0,197.90381056766577" stroke="black" stroke-width="1" /><polygon fill="#CCCCCC" points="330.0,197.90381056766577 337.5,171.92304845413264 367.5,171.92304845413264" stroke="black" stroke-width="1" /><polygon fill="#CCCCCC" points="375.0,42.01923788646684 382.5,16.038475772933687 412.5,16.038475772933687" stroke="black" stroke-width="1" /><polygon fill="#CCCCCC" points="382.5,16.038475772933687 390.0,-9.94228634059948 420.0,-9.94228634059948" stroke="black" stroke-width="1" /><polygon fill="#CCCCCC" points="390.0,-9.94228634059948 397.5,-35.923048454132626 427.5,-35.923048454132626" stroke="black" stroke-width="1" /><polygon fill="#AAAAAA" points="318.0,34.2250092524069 348.0,34.2250092524069 375.0,42.01923788646684" stroke="black" stroke-width="1" /><polygon fill="#CCCCCC" points="295.5,112.16729559300637 303.0,86.18653347947321 333.0,86.18653347947321" stroke="black" stroke-width="1" /><polygon fill="#FFA366" points="303.0,86.18653347947321 310.5,60.20577136594005 340.5,60.20577136594005" stroke="#999999" stroke-width="1" /><polygon fill="#FFA366" points="310.5,60.20577136594005 318.0,34.2250092524069 348.0,34.2250092524069" stroke="#999999" stroke-width="1" /><polygon fill="#CCCCCC" points="322.5,223.88457268119896 352.5,223.88457268119896 360.0,197.90381056766577" stroke="black" stroke-width="1" /><polygon fill="#CCCCCC" points="330.0,197.90381056766577 360.0,197.90381056766577 367.5,171.92304845413264" stroke="black" stroke-width="1" /><polygon fill="#CCCCCC" points="337.5,171.92304845413264 367.5,171.92304845413264 375.0,145.94228634059948" stroke="black" stroke-width="1" /><polygon fill="#CCCCCC" points="375.0,42.01923788646684 405.0,42.01923788646684 412.5,16.038475772933687" stroke="black" stroke-width="1" /><polygon fill="#CCCCCC" points="382.5,16.038475772933687 412.5,16.038475772933687 420.0,-9.94228634059948" stroke="black" stroke-width="1" /><polygon fill="#CCCCCC" points="390.0,-9.94228634059948 420.0,-9.94228634059948 427.5,-35.923048454132626" stroke="black" stroke-width="1" /><polygon fill="#AAAAAA" points="337.5,171.92304845413264 325.5,112.16729559300637 375.0,145.94228634059948" stroke="black" stroke-width="1" /><polygon fill="#AAAAAA" points="348.0,34.2250092524069 375.0,42.01923788646684 405.0,42.01923788646684" stroke="black" stroke-width="1" /><polygon fill="#CCCCCC" points="295.5,112.16729559300637 325.5,112.16729559300637 333.0,86.18653347947321" stroke="black" stroke-width="1" /><polygon fill="#FFA366" points="303.0,86.18653347947321 333.0,86.18653347947321 340.5,60.20577136594005" stroke="#999999" stroke-width="1" /><polygon fill="#FFA366" points="310.5,60.20577136594005 340.5,60.20577136594005 348.0,34.2250092524069" stroke="#999999" stroke-width="1" /><polygon fill="#CCCCCC" points="352.5,223.88457268119896 360.0,197.90381056766577 390.0,197.90381056766577" stroke="black" stroke-width="1" /><polygon fill="#CCCCCC" points="360.0,197.90381056766577 367.5,171.92304845413264 397.5,171.92304845413264" stroke="black" stroke-width="1" /><polygon fill="#CCCCCC" points="405.0,42.01923788646684 412.5,16.038475772933687 442.5,16.038475772933687" stroke="black" stroke-width="1" /><polygon fill="#CCCCCC" points="412.5,16.038475772933687 420.0,-9.94228634059948 450.0,-9.94228634059948" stroke="black" stroke-width="1" /><polygon fill="#CCCCCC" points="420.0,-9.94228634059948 427.5,-35.923048454132626 457.5,-35.923048454132626" stroke="black" stroke-width="1" /><polygon fill="#AAAAAA" points="325.5,112.16729559300637 375.0,145.94228634059948 363.0,86.18653347947321" stroke="black" stroke-width="1" /><polygon fill="#AAAAAA" points="348.0,34.2250092524069 378.0,34.2250092524069 405.0,42.01923788646684" stroke="black" stroke-width="1" /><polygon fill="#FFA366" points="325.5,112.16729559300637 333.0,86.18653347947321 363.0,86.18653347947321" stroke="#999999" stroke-width="1" /><polygon fill="#FFA366" points="333.0,86.18653347947321 340.5,60.20577136594005 370.5,60.20577136594005" stroke="#999999" stroke-width="1" /><polygon fill="#FFA366" points="340.5,60.20577136594005 348.0,34.2250092524069 378.0,34.2250092524069" stroke="#999999" stroke-width="1" /><polygon fill="#CCCCCC" points="352.5,223.88457268119896 382.5,223.88457268119896 390.0,197.90381056766577" stroke="black" stroke-width="1" /><polygon fill="#CCCCCC" points="360.0,197.90381056766577 390.0,197.90381056766577 397.5,171.92304845413264" stroke="black" stroke-width="1" /><polygon fill="#CCCCCC" points="405.0,42.01923788646684 435.0,42.01923788646684 442.5,16.038475772933687" stroke="black" stroke-width="1" /><polygon fill="#CCCCCC" points="412.5,16.038475772933687 442.5,16.038475772933687 450.0,-9.94228634059948" stroke="black" stroke-width="1" /><polygon fill="#CCCCCC" points="420.0,-9.94228634059948 450.0,-9.94228634059948 457.5,-35.923048454132626" stroke="black" stroke-width="1" /><polygon fill="#999999" points="367.5,171.92304845413264 375.0,145.94228634059948 385.5,112.16729559300637" stroke="black" stroke-width="1" /><polygon fill="#AAAAAA" points="378.0,34.2250092524069 405.0,42.01923788646684 435.0,42.01923788646684" stroke="black" stroke-width="1" /><polygon fill="#FFA366" points="333.0,86.18653347947321 363.0,86.18653347947321 370.5,60.20577136594005" stroke="#999999" stroke-width="1" /><polygon fill="#FFA366" points="340.5,60.20577136594005 370.5,60.20577136594005 378.0,34.2250092524069" stroke="#999999" stroke-width="1" /><polygon fill="#999999" points="367.5,171.92304845413264 397.5,171.92304845413264 385.5,112.16729559300637" stroke="black" stroke-width="1" /><polygon fill="#BBBBBB" points="378.0,34.2250092524069 427.5,68.0 435.0,42.01923788646684" stroke="black" stroke-width="1" /><polygon fill="#999999" points="375.0,145.94228634059948 363.0,86.18653347947321 393.0,86.18653347947321" stroke="black" stroke-width="1" /><polygon fill="#BBBBBB" points="370.5,60.20577136594005 378.0,34.2250092524069 427.5,68.0" stroke="black" stroke-width="1" /><polygon fill="#CCCCCC" points="382.5,223.88457268119896 390.0,197.90381056766577 420.0,197.90381056766577" stroke="black" stroke-width="1" /><polygon fill="#CCCCCC" points="390.0,197.90381056766577 397.5,171.92304845413264 427.5,171.92304845413264" stroke="black" stroke-width="1" /><polygon fill="#CCCCCC" points="427.5,68.0 435.0,42.01923788646684 465.0,42.01923788646684" stroke="black" stroke-width="1" /><polygon fill="#CCCCCC" points="435.0,42.01923788646684 442.5,16.038475772933687 472.5,16.038475772933687" stroke="black" stroke-width="1" /><polygon fill="#CCCCCC" points="442.5,16.038475772933687 450.0,-9.94228634059948 480.0,-9.94228634059948" stroke="black" stroke-width="1" /><polygon fill="#CCCCCC" points="450.0,-9.94228634059948 457.5,-35.923048454132626 487.5,-35.923048454132626" stroke="black" stroke-width="1" /><polygon fill="#999999" points="375.0,145.94228634059948 385.5,112.16729559300637 393.0,86.18653347947321" stroke="black" stroke-width="1" /><polygon fill="#AAAAAA" points="370.5,60.20577136594005 400.5,60.20577136594005 427.5,68.0" stroke="black" stroke-width="1" /><polygon fill="#CCCCCC" points="363.0,86.18653347947321 370.5,60.20577136594005 400.5,60.20577136594005" stroke="black" stroke-width="1" /><polygon fill="#CCCCCC" points="382.5,223.88457268119896 412.5,223.88457268119896 420.0,197.90381056766577" stroke="black" stroke-width="1" /><polygon fill="#CCCCCC" points="390.0,197.90381056766577 420.0,197.90381056766577 427.5,171.92304845413264" stroke="black" stroke-width="1" /><polygon fill="#CCCCCC" points="435.0,42.01923788646684 465.0,42.01923788646684 472.5,16.038475772933687" stroke="black" stroke-width="1" /><polygon fill="#CCCCCC" points="442.5,16.038475772933687 472.5,16.038475772933687 480.0,-9.94228634059948" stroke="black" stroke-width="1" /><polygon fill="#CCCCCC" points="450.0,-9.94228634059948 480.0,-9.94228634059948 487.5,-35.923048454132626" stroke="black" stroke-width="1" /><polygon fill="#CCCCCC" points="363.0,86.18653347947321 393.0,86.18653347947321 400.5,60.20577136594005" stroke="black" stroke-width="1" /><polygon fill="#999999" points="397.5,171.92304845413264 427.5,171.92304845413264 415.5,112.16729559300637" stroke="black" stroke-width="1" /><polygon fill="#CCCCCC" points="427.5,68.0 438.0,34.2250092524069 465.0,42.01923788646684" stroke="black" stroke-width="1" /><polygon fill="#999999" points="397.5,171.92304845413264 385.5,112.16729559300637 415.5,112.16729559300637" stroke="black" stroke-width="1" /><polygon fill="#CCCCCC" points="400.5,60.20577136594005 427.5,68.0 438.0,34.2250092524069" stroke="black" stroke-width="1" /><polygon fill="#CCCCCC" points="412.5,223.88457268119896 420.0,197.90381056766577 450.0,197.90381056766577" stroke="black" stroke-width="1" /><polygon fill="#CCCCCC" points="420.0,197.90381056766577 427.5,171.92304845413264 457.5,171.92304845413264" stroke="black" stroke-width="1" /><polygon fill="#CCCCCC" points="465.0,42.01923788646684 472.5,16.038475772933687 502.5,16.038475772933687" stroke="black" stroke-width="1" /><polygon fill="#CCCCCC" points="472.5,16.038475772933687 480.0,-9.94228634059948 510.0,-9.94228634059948" stroke="black" stroke-width="1" /><polygon fill="#CCCCCC" points="480.0,-9.94228634059948 487.5,-35.923048454132626 517.5,-35.923048454132626" stroke="black" stroke-width="1" /><polygon fill="#FFA366" points="385.5,112.16729559300637 393.0,86.18653347947321 423.0,86.18653347947321" stroke="#999999" stroke-width="1" /><polygon fill="#FFA366" points="393.0,86.18653347947321 400.5,60.20577136594005 430.5,60.20577136594005" stroke="#999999" stroke-width="1" /><polygon fill="#CCCCCC" points="412.5,223.88457268119896 442.5,223.88457268119896 450.0,197.90381056766577" stroke="black" stroke-width="1" /><polygon fill="#CCCCCC" points="420.0,197.90381056766577 450.0,197.90381056766577 457.5,171.92304845413264" stroke="black" stroke-width="1" /><polygon fill="#CCCCCC" points="427.5,171.92304845413264 457.5,171.92304845413264 465.0,145.94228634059948" stroke="black" stroke-width="1" /><polygon fill="#CCCCCC" points="465.0,42.01923788646684 495.0,42.01923788646684 502.5,16.038475772933687" stroke="black" stroke-width="1" /><polygon fill="#CCCCCC" points="472.5,16.038475772933687 502.5,16.038475772933687 510.0,-9.94228634059948" stroke="black" stroke-width="1" /><polygon fill="#CCCCCC" points="480.0,-9.94228634059948 510.0,-9.94228634059948 517.5,-35.923048454132626" stroke="black" stroke-width="1" /><polygon fill="#AAAAAA" points="427.5,171.92304845413264 415.5,112.16729559300637 465.0,145.94228634059948" stroke="black" stroke-width="1" /><polygon fill="#AAAAAA" points="438.0,34.2250092524069 465.0,42.01923788646684 495.0,42.01923788646684" stroke="black" stroke-width="1" /><polygon fill="#FFA366" points="385.5,112.16729559300637 415.5,112.16729559300637 423.0,86.18653347947321" stroke="#999999" stroke-width="1" /><polygon fill="#FFA366" points="393.0,86.18653347947321 423.0,86.18653347947321 430.5,60.20577136594005" stroke="#999999" stroke-width="1" /><polygon fill="#FFA366" points="400.5,60.20577136594005 430.5,60.20577136594005 438.0,34.2250092524069" stroke="#999999" stroke-width="1" /><polygon fill="#CCCCCC" points="442.5,223.88457268119896 450.0,197.90381056766577 480.0,197.90381056766577" stroke="black" stroke-width="1" /><polygon fill="#CCCCCC" points="450.0,197.90381056766577 457.5,171.92304845413264 487.5,171.92304845413264" stroke="black" stroke-width="1" /><polygon fill="#CCCCCC" points="457.5,171.92304845413264 465.0,145.94228634059948 495.0,145.94228634059948" stroke="black" stroke-width="1" /><polygon fill="#CCCCCC" points="495.0,42.01923788646684 502.5,16.038475772933687 532.5,16.038475772933687" stroke="black" stroke-width="1" /><polygon fill="#CCCCCC" points="502.5,16.038475772933687 510.0,-9.94228634059948 540.0,-9.94228634059948" stroke="black" stroke-width="1" /><polygon fill="#CCCCCC" points="510.0,-9.94228634059948 517.5,-35.923048454132626 547.5,-35.923048454132626" stroke="black" stroke-width="1" /><polygon fill="#AAAAAA" points="415.5,112.16729559300637 465.0,145.94228634059948 453.0,86.18653347947321" stroke="black" stroke-width="1" /><polygon fill="#AAAAAA" points="438.0,34.2250092524069 468.0,34.2250092524069 495.0,42.01923788646684" stroke="black" stroke-width="1" /><polygon fill="#CCCCCC" points="415.5,112.16729559300637 423.0,86.18653347947321 453.0,86.18653347947321" stroke="black" stroke-width="1" /><polygon fill="#FFA366" points="423.0,86.18653347947321 430.5,60.20577136594005 460.5,60.20577136594005" stroke="#999999" stroke-width="1" /><polygon fill="#FFA366" points="430.5,60.20577136594005 438.0,34.2250092524069 468.0,34.2250092524069" stroke="#999999" stroke-width="1" /><polygon fill="#CCCCCC" points="442.5,223.88457268119896 472.5,223.88457268119896 480.0,197.90381056766577" stroke="black" stroke-width="1" /><polygon fill="#CCCCCC" points="450.0,197.90381056766577 480.0,197.90381056766577 487.5,171.92304845413264" stroke="black" stroke-width="1" /><polygon fill="#CCCCCC" points="457.5,171.92304845413264 487.5,171.92304845413264 495.0,145.94228634059948" stroke="black" stroke-width="1" /><polygon fill="#CCCCCC" points="465.0,145.94228634059948 495.0,145.94228634059948 502.5,119.96152422706632" stroke="black" stroke-width="1" /><polygon fill="#CCCCCC" points="495.0,42.01923788646684 525.0,42.01923788646684 532.5,16.038475772933687" stroke="black" stroke-width="1" /><polygon fill="#CCCCCC" points="502.5,16.038475772933687 532.5,16.038475772933687 540.0,-9.94228634059948" stroke="black" stroke-width="1" /><polygon fill="#CCCCCC" points="510.0,-9.94228634059948 540.0,-9.94228634059948 547.5,-35.923048454132626" stroke="black" stroke-width="1" /><polygon fill="#AAAAAA" points="465.0,145.94228634059948 453.0,86.18653347947321 502.5,119.96152422706632" stroke="black" stroke-width="1" /><polygon fill="#AAAAAA" points="468.0,34.2250092524069 495.0,42.01923788646684 525.0,42.01923788646684" stroke="black" stroke-width="1" /><polygon fill="#FFA366" points="423.0,86.18653347947321 453.0,86.18653347947321 460.5,60.20577136594005" stroke="#999999" stroke-width="1" /><polygon fill="#FFA366" points="430.5,60.20577136594005 460.5,60.20577136594005 468.0,34.2250092524069" stroke="#999999" stroke-width="1" /><polygon fill="#CCCCCC" points="472.5,223.88457268119896 480.0,197.90381056766577 510.0,197.90381056766577" stroke="black" stroke-width="1" /><polygon fill="#CCCCCC" points="480.0,197.90381056766577 487.5,171.92304845413264 517.5,171.92304845413264" stroke="black" stroke-width="1" /><polygon fill="#CCCCCC" points="525.0,42.01923788646684 532.5,16.038475772933687 562.5,16.038475772933687" stroke="black" stroke-width="1" /><polygon fill="#CCCCCC" points="532.5,16.038475772933687 540.0,-9.94228634059948 570.0,-9.94228634059948" stroke="black" stroke-width="1" /><polygon fill="#CCCCCC" points="540.0,-9.94228634059948 547.5,-35.923048454132626 577.5,-35.923048454132626" stroke="black" stroke-width="1" /><polygon fill="#AAAAAA" points="453.0,86.18653347947321 502.5,119.96152422706632 490.5,60.20577136594005" stroke="black" stroke-width="1" /><polygon fill="#AAAAAA" points="468.0,34.2250092524069 498.0,34.2250092524069 525.0,42.01923788646684" stroke="black" stroke-width="1" /><polygon fill="#CCCCCC" points="453.0,86.18653347947321 460.5,60.20577136594005 490.5,60.20577136594005" stroke="black" stroke-width="1" /><polygon fill="#FFA366" points="460.5,60.20577136594005 468.0,34.2250092524069 498.0,34.2250092524069" stroke="#999999" stroke-width="1" /><polygon fill="#CCCCCC" points="472.5,223.88457268119896 502.5,223.88457268119896 510.0,197.90381056766577" stroke="black" stroke-width="1" /><polygon fill="#CCCCCC" points="480.0,197.90381056766577 510.0,197.90381056766577 517.5,171.92304845413264" stroke="black" stroke-width="1" /><polygon fill="#CCCCCC" points="525.0,42.01923788646684 555.0,42.01923788646684 562.5,16.038475772933687" stroke="black" stroke-width="1" /><polygon fill="#CCCCCC" points="532.5,16.038475772933687 562.5,16.038475772933687 570.0,-9.94228634059948" stroke="black" stroke-width="1" /><polygon fill="#CCCCCC" points="540.0,-9.94228634059948 570.0,-9.94228634059948 577.5,-35.923048454132626" stroke="black" stroke-width="1" /><polygon fill="#999999" points="487.5,171.92304845413264 495.0,145.94228634059948 505.5,112.16729559300637" stroke="black" stroke-width="1" /><polygon fill="#999999" points="495.0,145.94228634059948 502.5,119.96152422706632 513.0,86.18653347947321" stroke="black" stroke-width="1" /><polygon fill="#AAAAAA" points="498.0,34.2250092524069 525.0,42.01923788646684 555.0,42.01923788646684" stroke="black" stroke-width="1" /><polygon fill="#FFA366" points="460.5,60.20577136594005 490.5,60.20577136594005 498.0,34.2250092524069" stroke="#999999" stroke-width="1" /><polygon fill="#999999" points="487.5,171.92304845413264 517.5,171.92304845413264 505.5,112.16729559300637" stroke="black" stroke-width="1" /><polygon fill="#BBBBBB" points="498.0,34.2250092524069 547.5,68.0 555.0,42.01923788646684" stroke="black" stroke-width="1" /><polygon fill="#999999" points="502.5,119.96152422706632 490.5,60.20577136594005 520.5,60.20577136594005" stroke="black" stroke-width="1" /><polygon fill="#BBBBBB" points="490.5,60.20577136594005 498.0,34.2250092524069 547.5,68.0" stroke="black" stroke-width="1" /><polygon fill="#CCCCCC" points="502.5,223.88457268119896 510.0,197.90381056766577 540.0,197.90381056766577" stroke="black" stroke-width="1" /><polygon fill="#CCCCCC" points="510.0,197.90381056766577 517.5,171.92304845413264 547.5,171.92304845413264" stroke="black" stroke-width="1" /><polygon fill="#CCCCCC" points="547.5,68.0 555.0,42.01923788646684 585.0,42.01923788646684" stroke="black" stroke-width="1" /><polygon fill="#CCCCCC" points="555.0,42.01923788646684 562.5,16.038475772933687 592.5,16.038475772933687" stroke="black" stroke-width="1" /><polygon fill="#CCCCCC" points="562.5,16.038475772933687 570.0,-9.94228634059948 600.0,-9.94228634059948" stroke="black" stroke-width="1" /><polygon fill="#CCCCCC" points="570.0,-9.94228634059948 577.5,-35.923048454132626 607.5,-35.923048454132626" stroke="black" stroke-width="1" /><polygon fill="#999999" points="495.0,145.94228634059948 505.5,112.16729559300637 513.0,86.18653347947321" stroke="black" stroke-width="1" /><polygon fill="#999999" points="502.5,119.96152422706632 513.0,86.18653347947321 520.5,60.20577136594005" stroke="black" stroke-width="1" /><polygon fill="#AAAAAA" points="490.5,60.20577136594005 520.5,60.20577136594005 547.5,68.0" stroke="black" stroke-width="1" /><polygon fill="#CCCCCC" points="502.5,223.88457268119896 532.5,223.88457268119896 540.0,197.90381056766577" stroke="black" stroke-width="1" /><polygon fill="#CCCCCC" points="510.0,197.90381056766577 540.0,197.90381056766577 547.5,171.92304845413264" stroke="black" stroke-width="1" /><polygon fill="#CCCCCC" points="555.0,42.01923788646684 585.0,42.01923788646684 592.5,16.038475772933687" stroke="black" stroke-width="1" /><polygon fill="#CCCCCC" points="562.5,16.038475772933687 592.5,16.038475772933687 600.0,-9.94228634059948" stroke="black" stroke-width="1" /><polygon fill="#CCCCCC" points="570.0,-9.94228634059948 600.0,-9.94228634059948 607.5,-35.923048454132626" stroke="black" stroke-width="1" /><polygon fill="#999999" points="517.5,171.92304845413264 547.5,171.92304845413264 535.5,112.16729559300637" stroke="black" stroke-width="1" /><polygon fill="#CCCCCC" points="547.5,68.0 558.0,34.2250092524069 585.0,42.01923788646684" stroke="black" stroke-width="1" /><polygon fill="#999999" points="517.5,171.92304845413264 505.5,112.16729559300637 535.5,112.16729559300637" stroke="black" stroke-width="1" /><polygon fill="#CCCCCC" points="520.5,60.20577136594005 547.5,68.0 558.0,34.2250092524069" stroke="black" stroke-width="1" /><polygon fill="#CCCCCC" points="532.5,223.88457268119896 540.0,197.90381056766577 570.0,197.90381056766577" stroke="black" stroke-width="1" /><polygon fill="#CCCCCC" points="540.0,197.90381056766577 547.5,171.92304845413264 577.5,171.92304845413264" stroke="black" stroke-width="1" /><polygon fill="#CCCCCC" points="585.0,42.01923788646684 592.5,16.038475772933687 622.5,16.038475772933687" stroke="black" stroke-width="1" /><polygon fill="#CCCCCC" points="592.5,16.038475772933687 600.0,-9.94228634059948 630.0,-9.94228634059948" stroke="black" stroke-width="1" /><polygon fill="#CCCCCC" points="600.0,-9.94228634059948 607.5,-35.923048454132626 637.5,-35.923048454132626" stroke="black" stroke-width="1" /><polygon fill="#FFA366" points="505.5,112.16729559300637 513.0,86.18653347947321 543.0,86.18653347947321" stroke="#999999" stroke-width="1" /><polygon fill="#FFA366" points="513.0,86.18653347947321 520.5,60.20577136594005 550.5,60.20577136594005" stroke="#999999" stroke-width="1" /><polygon fill="#CCCCCC" points="532.5,223.88457268119896 562.5,223.88457268119896 570.0,197.90381056766577" stroke="black" stroke-width="1" /><polygon fill="#CCCCCC" points="540.0,197.90381056766577 570.0,197.90381056766577 577.5,171.92304845413264" stroke="black" stroke-width="1" /><polygon fill="#CCCCCC" points="585.0,42.01923788646684 615.0,42.01923788646684 622.5,16.038475772933687" stroke="black" stroke-width="1" /><polygon fill="#CCCCCC" points="592.5,16.038475772933687 622.5,16.038475772933687 630.0,-9.94228634059948" stroke="black" stroke-width="1" /><polygon fill="#CCCCCC" points="600.0,-9.94228634059948 630.0,-9.94228634059948 637.5,-35.923048454132626" stroke="black" stroke-width="1" /><polygon fill="#AAAAAA" points="558.0,34.2250092524069 585.0,42.01923788646684 615.0,42.01923788646684" stroke="black" stroke-width="1" /><polygon fill="#FFA366" points="505.5,112.16729559300637 535.5,112.16729559300637 543.0,86.18653347947321" stroke="#999999" stroke-width="1" /><polygon fill="#FFA366" points="513.0,86.18653347947321 543.0,86.18653347947321 550.5,60.20577136594005" stroke="#999999" stroke-width="1" /><polygon fill="#FFA366" points="520.5,60.20577136594005 550.5,60.20577136594005 558.0,34.2250092524069" stroke="#999999" stroke-width="1" /><polygon fill="#999999" points="547.5,171.92304845413264 577.5,171.92304845413264 565.5,112.16729559300637" stroke="black" stroke-width="1" /><polygon fill="#999999" points="547.5,171.92304845413264 535.5,112.16729559300637 565.5,112.16729559300637" stroke="black" stroke-width="1" /><polygon fill="#CCCCCC" points="562.5,223.88457268119896 570.0,197.90381056766577 600.0,197.90381056766577" stroke="black" stroke-width="1" /><polygon fill="#CCCCCC" points="570.0,197.90381056766577 577.5,171.92304845413264 607.5,171.92304845413264" stroke="black" stroke-width="1" /><polygon fill="#CCCCCC" points="615.0,42.01923788646684 622.5,16.038475772933687 652.5,16.038475772933687" stroke="black" stroke-width="1" /><polygon fill="#CCCCCC" points="622.5,16.038475772933687 630.0,-9.94228634059948 660.0,-9.94228634059948" stroke="black" stroke-width="1" /><polygon fill="#CCCCCC" points="630.0,-9.94228634059948 637.5,-35.923048454132626 667.5,-35.923048454132626" stroke="black" stroke-width="1" /><polygon fill="#AAAAAA" points="558.0,34.2250092524069 588.0,34.2250092524069 615.0,42.01923788646684" stroke="black" stroke-width="1" /><polygon fill="#FFA366" points="535.5,112.16729559300637 543.0,86.18653347947321 573.0,86.18653347947321" stroke="#999999" stroke-width="1" /><polygon fill="#FFA366" points="543.0,86.18653347947321 550.5,60.20577136594005 580.5,60.20577136594005" stroke="#999999" stroke-width="1" /><polygon fill="#FFA366" points="550.5,60.20577136594005 558.0,34.2250092524069 588.0,34.2250092524069" stroke="#999999" stroke-width="1" /><polygon fill="#CCCCCC" points="562.5,223.88457268119896 592.5,223.88457268119896 600.0,197.90381056766577" stroke="black" stroke-width="1" /><polygon fill="#CCCCCC" points="570.0,197.90381056766577 600.0,197.90381056766577 607.5,171.92304845413264" stroke="black" stroke-width="1" /><polygon fill="#CCCCCC" points="577.5,171.92304845413264 607.5,171.92304845413264 615.0,145.94228634059948" stroke="black" stroke-width="1" /><polygon fill="#CCCCCC" points="615.0,42.01923788646684 645.0,42.01923788646684 652.5,16.038475772933687" stroke="black" stroke-width="1" /><polygon fill="#CCCCCC" points="622.5,16.038475772933687 652.5,16.038475772933687 660.0,-9.94228634059948" stroke="black" stroke-width="1" /><polygon fill="#CCCCCC" points="630.0,-9.94228634059948 660.0,-9.94228634059948 667.5,-35.923048454132626" stroke="black" stroke-width="1" /><polygon fill="#AAAAAA" points="577.5,171.92304845413264 565.5,112.16729559300637 615.0,145.94228634059948" stroke="black" stroke-width="1" /><polygon fill="#AAAAAA" points="588.0,34.2250092524069 615.0,42.01923788646684 645.0,42.01923788646684" stroke="black" stroke-width="1" /><polygon fill="#FFA366" points="535.5,112.16729559300637 565.5,112.16729559300637 573.0,86.18653347947321" stroke="#999999" stroke-width="1" /><polygon fill="#FFA366" points="543.0,86.18653347947321 573.0,86.18653347947321 580.5,60.20577136594005" stroke="#999999" stroke-width="1" /><polygon fill="#FFA366" points="550.5,60.20577136594005 580.5,60.20577136594005 588.0,34.2250092524069" stroke="#999999" stroke-width="1" /><polygon fill="#CCCCCC" points="592.5,223.88457268119896 600.0,197.90381056766577 630.0,197.90381056766577" stroke="black" stroke-width="1" /><polygon fill="#CCCCCC" points="600.0,197.90381056766577 607.5,171.92304845413264 637.5,171.92304845413264" stroke="black" stroke-width="1" /><polygon fill="#CCCCCC" points="645.0,42.01923788646684 652.5,16.038475772933687 682.5,16.038475772933687" stroke="black" stroke-width="1" /><polygon fill="#CCCCCC" points="652.5,16.038475772933687 660.0,-9.94228634059948 690.0,-9.94228634059948" stroke="black" stroke-width="1" /><polygon fill="#CCCCCC" points="660.0,-9.94228634059948 667.5,-35.923048454132626 697.5,-35.923048454132626" stroke="black" stroke-width="1" /><polygon fill="#AAAAAA" points="565.5,112.16729559300637 615.0,145.94228634059948 603.0,86.18653347947321" stroke="black" stroke-width="1" /><polygon fill="#AAAAAA" points="588.0,34.2250092524069 618.0,34.2250092524069 645.0,42.01923788646684" stroke="black" stroke-width="1" /><polygon fill="#FFA366" points="565.5,112.16729559300637 573.0,86.18653347947321 603.0,86.18653347947321" stroke="#999999" stroke-width="1" /><polygon fill="#CCCCCC" points="573.0,86.18653347947321 580.5,60.20577136594005 610.5,60.20577136594005" stroke="black" stroke-width="1" /><polygon fill="#FFA366" points="580.5,60.20577136594005 588.0,34.2250092524069 618.0,34.2250092524069" stroke="#999999" stroke-width="1" /><polygon fill="#CCCCCC" points="592.5,223.88457268119896 622.5,223.88457268119896 630.0,197.90381056766577" stroke="black" stroke-width="1" /><polygon fill="#CCCCCC" points="600.0,197.90381056766577 630.0,197.90381056766577 637.5,171.92304845413264" stroke="black" stroke-width="1" /><polygon fill="#CCCCCC" points="645.0,42.01923788646684 675.0,42.01923788646684 682.5,16.038475772933687" stroke="black" stroke-width="1" /><polygon fill="#CCCCCC" points="652.5,16.038475772933687 682.5,16.038475772933687 690.0,-9.94228634059948" stroke="black" stroke-width="1" /><polygon fill="#CCCCCC" points="660.0,-9.94228634059948 690.0,-9.94228634059948 697.5,-35.923048454132626" stroke="black" stroke-width="1" /><polygon fill="#999999" points="607.5,171.92304845413264 615.0,145.94228634059948 625.5,112.16729559300637" stroke="black" stroke-width="1" /><polygon fill="#AAAAAA" points="618.0,34.2250092524069 645.0,42.01923788646684 675.0,42.01923788646684" stroke="black" stroke-width="1" /><polygon fill="#CCCCCC" points="573.0,86.18653347947321 603.0,86.18653347947321 610.5,60.20577136594005" stroke="black" stroke-width="1" /><polygon fill="#FFA366" points="580.5,60.20577136594005 610.5,60.20577136594005 618.0,34.2250092524069" stroke="#999999" stroke-width="1" /><polygon fill="#999999" points="607.5,171.92304845413264 637.5,171.92304845413264 625.5,112.16729559300637" stroke="black" stroke-width="1" /><polygon fill="#BBBBBB" points="618.0,34.2250092524069 667.5,68.0 675.0,42.01923788646684" stroke="black" stroke-width="1" /><polygon fill="#999999" points="615.0,145.94228634059948 603.0,86.18653347947321 633.0,86.18653347947321" stroke="black" stroke-width="1" /><polygon fill="#BBBBBB" points="610.5,60.20577136594005 618.0,34.2250092524069 667.5,68.0" stroke="black" stroke-width="1" /><polygon fill="#CCCCCC" points="622.5,223.88457268119896 630.0,197.90381056766577 660.0,197.90381056766577" stroke="black" stroke-width="1" /><polygon fill="#CCCCCC" points="630.0,197.90381056766577 637.5,171.92304845413264 667.5,171.92304845413264" stroke="black" stroke-width="1" /><polygon fill="#CCCCCC" points="667.5,68.0 675.0,42.01923788646684 705.0,42.01923788646684" stroke="black" stroke-width="1" /><polygon fill="#CCCCCC" points="675.0,42.01923788646684 682.5,16.038475772933687 712.5,16.038475772933687" stroke="black" stroke-width="1" /><polygon fill="#CCCCCC" points="682.5,16.038475772933687 690.0,-9.94228634059948 720.0,-9.94228634059948" stroke="black" stroke-width="1" /><polygon fill="#CCCCCC" points="690.0,-9.94228634059948 697.5,-35.923048454132626 727.5,-35.923048454132626" stroke="black" stroke-width="1" /><polygon fill="#999999" points="615.0,145.94228634059948 625.5,112.16729559300637 633.0,86.18653347947321" stroke="black" stroke-width="1" /><polygon fill="#AAAAAA" points="610.5,60.20577136594005 640.5,60.20577136594005 667.5,68.0" stroke="black" stroke-width="1" /><polygon fill="#CCCCCC" points="603.0,86.18653347947321 610.5,60.20577136594005 640.5,60.20577136594005" stroke="black" stroke-width="1" /><polygon fill="#CCCCCC" points="622.5,223.88457268119896 652.5,223.88457268119896 660.0,197.90381056766577" stroke="black" stroke-width="1" /><polygon fill="#CCCCCC" points="630.0,197.90381056766577 660.0,197.90381056766577 667.5,171.92304845413264" stroke="black" stroke-width="1" /><polygon fill="#CCCCCC" points="675.0,42.01923788646684 705.0,42.01923788646684 712.5,16.038475772933687" stroke="black" stroke-width="1" /><polygon fill="#CCCCCC" points="682.5,16.038475772933687 712.5,16.038475772933687 720.0,-9.94228634059948" stroke="black" stroke-width="1" /><polygon fill="#CCCCCC" points="690.0,-9.94228634059948 720.0,-9.94228634059948 727.5,-35.923048454132626" stroke="black" stroke-width="1" /><polygon fill="#CCCCCC" points="603.0,86.18653347947321 633.0,86.18653347947321 640.5,60.20577136594005" stroke="black" stroke-width="1" /><polygon fill="#999999" points="637.5,171.92304845413264 667.5,171.92304845413264 655.5,112.16729559300637" stroke="black" stroke-width="1" /><polygon fill="#CCCCCC" points="667.5,68.0 678.0,34.2250092524069 705.0,42.01923788646684" stroke="black" stroke-width="1" /><polygon fill="#999999" points="637.5,171.92304845413264 625.5,112.16729559300637 655.5,112.16729559300637" stroke="black" stroke-width="1" /><polygon fill="#CCCCCC" points="640.5,60.20577136594005 667.5,68.0 678.0,34.2250092524069" stroke="black" stroke-width="1" /><polygon fill="#CCCCCC" points="652.5,223.88457268119896 660.0,197.90381056766577 690.0,197.90381056766577" stroke="black" stroke-width="1" /><polygon fill="#CCCCCC" points="660.0,197.90381056766577 667.5,171.92304845413264 697.5,171.92304845413264" stroke="black" stroke-width="1" /><polygon fill="#CCCCCC" points="705.0,42.01923788646684 712.5,16.038475772933687 742.5,16.038475772933687" stroke="black" stroke-width="1" /><polygon fill="#CCCCCC" points="712.5,16.038475772933687 720.0,-9.94228634059948 750.0,-9.94228634059948" stroke="black" stroke-width="1" /><polygon fill="#CCCCCC" points="720.0,-9.94228634059948 727.5,-35.923048454132626 757.5,-35.923048454132626" stroke="black" stroke-width="1" /><polygon fill="#FFA366" points="625.5,112.16729559300637 633.0,86.18653347947321 663.0,86.18653347947321" stroke="#999999" stroke-width="1" /><polygon fill="#FFA366" points="633.0,86.18653347947321 640.5,60.20577136594005 670.5,60.20577136594005" stroke="#999999" stroke-width="1" /><polygon fill="#CCCCCC" points="652.5,223.88457268119896 682.5,223.88457268119896 690.0,197.90381056766577" stroke="black" stroke-width="1" /><polygon fill="#CCCCCC" points="660.0,197.90381056766577 690.0,197.90381056766577 697.5,171.92304845413264" stroke="black" stroke-width="1" /><polygon fill="#CCCCCC" points="705.0,42.01923788646684 735.0,42.01923788646684 742.5,16.038475772933687" stroke="black" stroke-width="1" /><polygon fill="#CCCCCC" points="712.5,16.038475772933687 742.5,16.038475772933687 750.0,-9.94228634059948" stroke="black" stroke-width="1" /><polygon fill="#CCCCCC" points="720.0,-9.94228634059948 750.0,-9.94228634059948 757.5,-35.923048454132626" stroke="black" stroke-width="1" /><polygon fill="#AAAAAA" points="678.0,34.2250092524069 705.0,42.01923788646684 735.0,42.01923788646684" stroke="black" stroke-width="1" /><polygon fill="#FFA366" points="625.5,112.16729559300637 655.5,112.16729559300637 663.0,86.18653347947321" stroke="#999999" stroke-width="1" /><polygon fill="#FFA366" points="633.0,86.18653347947321 663.0,86.18653347947321 670.5,60.20577136594005" stroke="#999999" stroke-width="1" /><polygon fill="#FFA366" points="640.5,60.20577136594005 670.5,60.20577136594005 678.0,34.2250092524069" stroke="#999999" stroke-width="1" /><polygon fill="#999999" points="667.5,171.92304845413264 697.5,171.92304845413264 685.5,112.16729559300637" stroke="black" stroke-width="1" /><polygon fill="#999999" points="667.5,171.92304845413264 655.5,112.16729559300637 685.5,112.16729559300637" stroke="black" stroke-width="1" /><polygon fill="#CCCCCC" points="682.5,223.88457268119896 690.0,197.90381056766577 720.0,197.90381056766577" stroke="black" stroke-width="1" /><polygon fill="#CCCCCC" points="690.0,197.90381056766577 697.5,171.92304845413264 727.5,171.92304845413264" stroke="black" stroke-width="1" /><polygon fill="#CCCCCC" points="735.0,42.01923788646684 742.5,16.038475772933687 772.5,16.038475772933687" stroke="black" stroke-width="1" /><polygon fill="#CCCCCC" points="742.5,16.038475772933687 750.0,-9.94228634059948 780.0,-9.94228634059948" stroke="black" stroke-width="1" /><polygon fill="#CCCCCC" points="750.0,-9.94228634059948 757.5,-35.923048454132626 787.5,-35.923048454132626" stroke="black" stroke-width="1" /><polygon fill="#AAAAAA" points="678.0,34.2250092524069 708.0,34.2250092524069 735.0,42.01923788646684" stroke="black" stroke-width="1" /><polygon fill="#CCCCCC" points="655.5,112.16729559300637 663.0,86.18653347947321 693.0,86.18653347947321" stroke="black" stroke-width="1" /><polygon fill="#FFA366" points="663.0,86.18653347947321 670.5,60.20577136594005 700.5,60.20577136594005" stroke="#999999" stroke-width="1" /><polygon fill="#FFA366" points="670.5,60.20577136594005 678.0,34.2250092524069 708.0,34.2250092524069" stroke="#999999" stroke-width="1" /><polygon fill="#CCCCCC" points="682.5,223.88457268119896 712.5,223.88457268119896 720.0,197.90381056766577" stroke="black" stroke-width="1" /><polygon fill="#CCCCCC" points="690.0,197.90381056766577 720.0,197.90381056766577 727.5,171.92304845413264" stroke="black" stroke-width="1" /><polygon fill="#CCCCCC" points="697.5,171.92304845413264 727.5,171.92304845413264 735.0,145.94228634059948" stroke="black" stroke-width="1" /><polygon fill="#CCCCCC" points="735.0,42.01923788646684 765.0,42.01923788646684 772.5,16.038475772933687" stroke="black" stroke-width="1" /><polygon fill="#CCCCCC" points="742.5,16.038475772933687 772.5,16.038475772933687 780.0,-9.94228634059948" stroke="black" stroke-width="1" /><polygon fill="#CCCCCC" points="750.0,-9.94228634059948 780.0,-9.94228634059948 787.5,-35.923048454132626" stroke="black" stroke-width="1" /><polygon fill="#AAAAAA" points="697.5,171.92304845413264 685.5,112.16729559300637 735.0,145.94228634059948" stroke="black" stroke-width="1" /><polygon fill="#AAAAAA" points="708.0,34.2250092524069 735.0,42.01923788646684 765.0,42.01923788646684" stroke="black" stroke-width="1" /><polygon fill="#CCCCCC" points="655.5,112.16729559300637 685.5,112.16729559300637 693.0,86.18653347947321" stroke="black" stroke-width="1" /><polygon fill="#FFA366" points="663.0,86.18653347947321 693.0,86.18653347947321 700.5,60.20577136594005" stroke="#999999" stroke-width="1" /><polygon fill="#FFA366" points="670.5,60.20577136594005 700.5,60.20577136594005 708.0,34.2250092524069" stroke="#999999" stroke-width="1" /><polygon fill="#CCCCCC" points="712.5,223.88457268119896 720.0,197.90381056766577 750.0,197.90381056766577" stroke="black" stroke-width="1" /><polygon fill="#CCCCCC" points="720.0,197.90381056766577 727.5,171.92304845413264 757.5,171.92304845413264" stroke="black" stroke-width="1" /><polygon fill="#CCCCCC" points="727.5,171.92304845413264 735.0,145.94228634059948 765.0,145.94228634059948" stroke="black" stroke-width="1" /><polygon fill="#CCCCCC" points="765.0,42.01923788646684 772.5,16.038475772933687 802.5,16.038475772933687" stroke="black" stroke-width="1" /><polygon fill="#CCCCCC" points="772.5,16.038475772933687 780.0,-9.94228634059948 810.0,-9.94228634059948" stroke="black" stroke-width="1" /><polygon fill="#CCCCCC" points="780.0,-9.94228634059948 787.5,-35.923048454132626 817.5,-35.923048454132626" stroke="black" stroke-width="1" /><polygon fill="#AAAAAA" points="685.5,112.16729559300637 735.0,145.94228634059948 723.0,86.18653347947321" stroke="black" stroke-width="1" /><polygon fill="#AAAAAA" points="708.0,34.2250092524069 738.0,34.2250092524069 765.0,42.01923788646684" stroke="black" stroke-width="1" /><polygon fill="#FFA366" points="685.5,112.16729559300637 693.0,86.18653347947321 723.0,86.18653347947321" stroke="#999999" stroke-width="1" /><polygon fill="#FFA366" points="693.0,86.18653347947321 700.5,60.20577136594005 730.5,60.20577136594005" stroke="#999999" stroke-width="1" /><polygon fill="#FFA366" points="700.5,60.20577136594005 708.0,34.2250092524069 738.0,34.2250092524069" stroke="#999999" stroke-width="1" /><polygon fill="#CCCCCC" points="712.5,223.88457268119896 742.5,223.88457268119896 750.0,197.90381056766577" stroke="black" stroke-width="1" /><polygon fill="#CCCCCC" points="720.0,197.90381056766577 750.0,197.90381056766577 757.5,171.92304845413264" stroke="black" stroke-width="1" /><polygon fill="#CCCCCC" points="727.5,171.92304845413264 757.5,171.92304845413264 765.0,145.94228634059948" stroke="black" stroke-width="1" /><polygon fill="#CCCCCC" points="735.0,145.94228634059948 765.0,145.94228634059948 772.5,119.96152422706632" stroke="black" stroke-width="1" /><polygon fill="#CCCCCC" points="765.0,42.01923788646684 795.0,42.01923788646684 802.5,16.038475772933687" stroke="black" stroke-width="1" /><polygon fill="#CCCCCC" points="772.5,16.038475772933687 802.5,16.038475772933687 810.0,-9.94228634059948" stroke="black" stroke-width="1" /><polygon fill="#CCCCCC" points="780.0,-9.94228634059948 810.0,-9.94228634059948 817.5,-35.923048454132626" stroke="black" stroke-width="1" /><polygon fill="#AAAAAA" points="735.0,145.94228634059948 723.0,86.18653347947321 772.5,119.96152422706632" stroke="black" stroke-width="1" /><polygon fill="#AAAAAA" points="738.0,34.2250092524069 765.0,42.01923788646684 795.0,42.01923788646684" stroke="black" stroke-width="1" /><polygon fill="#FFA366" points="693.0,86.18653347947321 723.0,86.18653347947321 730.5,60.20577136594005" stroke="#999999" stroke-width="1" /><polygon fill="#FFA366" points="700.5,60.20577136594005 730.5,60.20577136594005 738.0,34.2250092524069" stroke="#999999" stroke-width="1" /><polygon fill="#BBBBBB" points="723.0,86.18653347947321 772.5,119.96152422706632 780.0,93.98076211353316" stroke="black" stroke-width="1" /><polygon fill="#BBBBBB" points="730.5,60.20577136594005 780.0,93.98076211353316 787.5,68.0" stroke="black" stroke-width="1" /><polygon fill="#BBBBBB" points="738.0,34.2250092524069 787.5,68.0 795.0,42.01923788646684" stroke="black" stroke-width="1" /><polygon fill="#BBBBBB" points="723.0,86.18653347947321 730.5,60.20577136594005 780.0,93.98076211353316" stroke="black" stroke-width="1" /><polygon fill="#BBBBBB" points="730.5,60.20577136594005 738.0,34.2250092524069 787.5,68.0" stroke="black" stroke-width="1" /><polygon fill="#CCCCCC" points="742.5,223.88457268119896 750.0,197.90381056766577 780.0,197.90381056766577" stroke="black" stroke-width="1" /><polygon fill="#CCCCCC" points="750.0,197.90381056766577 757.5,171.92304845413264 787.5,171.92304845413264" stroke="black" stroke-width="1" /><polygon fill="#CCCCCC" points="757.5,171.92304845413264 765.0,145.94228634059948 795.0,145.94228634059948" stroke="black" stroke-width="1" /><polygon fill="#CCCCCC" points="765.0,145.94228634059948 772.5,119.96152422706632 802.5,119.96152422706632" stroke="black" stroke-width="1" /><polygon fill="#CCCCCC" points="772.5,119.96152422706632 780.0,93.98076211353316 810.0,93.98076211353316" stroke="black" stroke-width="1" /><polygon fill="#CCCCCC" points="780.0,93.98076211353316 787.5,68.0 817.5,68.0" stroke="black" stroke-width="1" /><polygon fill="#CCCCCC" points="787.5,68.0 795.0,42.01923788646684 825.0,42.01923788646684" stroke="black" stroke-width="1" /><polygon fill="#CCCCCC" points="795.0,42.01923788646684 802.5,16.038475772933687 832.5,16.038475772933687" stroke="black" stroke-width="1" /><polygon fill="#CCCCCC" points="802.5,16.038475772933687 810.0,-9.94228634059948 840.0,-9.94228634059948" stroke="black" stroke-width="1" /><polygon fill="#CCCCCC" points="810.0,-9.94228634059948 817.5,-35.923048454132626 847.5,-35.923048454132626" stroke="black" stroke-width="1" /><polygon fill="#CCCCCC" points="742.5,223.88457268119896 772.5,223.88457268119896 780.0,197.90381056766577" stroke="black" stroke-width="1" /><polygon fill="#CCCCCC" points="750.0,197.90381056766577 780.0,197.90381056766577 787.5,171.92304845413264" stroke="black" stroke-width="1" /><polygon fill="#CCCCCC" points="757.5,171.92304845413264 787.5,171.92304845413264 795.0,145.94228634059948" stroke="black" stroke-width="1" /><polygon fill="#CCCCCC" points="765.0,145.94228634059948 795.0,145.94228634059948 802.5,119.96152422706632" stroke="black" stroke-width="1" /><polygon fill="#CCCCCC" points="772.5,119.96152422706632 802.5,119.96152422706632 810.0,93.98076211353316" stroke="black" stroke-width="1" /><polygon fill="#CCCCCC" points="780.0,93.98076211353316 810.0,93.98076211353316 817.5,68.0" stroke="black" stroke-width="1" /><polygon fill="#CCCCCC" points="787.5,68.0 817.5,68.0 825.0,42.01923788646684" stroke="black" stroke-width="1" /><polygon fill="#CCCCCC" points="795.0,42.01923788646684 825.0,42.01923788646684 832.5,16.038475772933687" stroke="black" stroke-width="1" /><polygon fill="#CCCCCC" points="802.5,16.038475772933687 832.5,16.038475772933687 840.0,-9.94228634059948" stroke="black" stroke-width="1" /><polygon fill="#CCCCCC" points="810.0,-9.94228634059948 840.0,-9.94228634059948 847.5,-35.923048454132626" stroke="black" stroke-width="1" /><polygon fill="#CCCCCC" points="772.5,223.88457268119896 780.0,197.90381056766577 810.0,197.90381056766577" stroke="black" stroke-width="1" /><polygon fill="#CCCCCC" points="780.0,197.90381056766577 787.5,171.92304845413264 817.5,171.92304845413264" stroke="black" stroke-width="1" /><polygon fill="#CCCCCC" points="787.5,171.92304845413264 795.0,145.94228634059948 825.0,145.94228634059948" stroke="black" stroke-width="1" /><polygon fill="#CCCCCC" points="795.0,145.94228634059948 802.5,119.96152422706632 832.5,119.96152422706632" stroke="black" stroke-width="1" /><polygon fill="#CCCCCC" points="802.5,119.96152422706632 810.0,93.98076211353316 840.0,93.98076211353316" stroke="black" stroke-width="1" /><polygon fill="#CCCCCC" points="810.0,93.98076211353316 817.5,68.0 847.5,68.0" stroke="black" stroke-width="1" /><polygon fill="#CCCCCC" points="817.5,68.0 825.0,42.01923788646684 855.0,42.01923788646684" stroke="black" stroke-width="1" /><polygon fill="#CCCCCC" points="825.0,42.01923788646684 832.5,16.038475772933687 862.5,16.038475772933687" stroke="black" stroke-width="1" /><polygon fill="#CCCCCC" points="832.5,16.038475772933687 840.0,-9.94228634059948 870.0,-9.94228634059948" stroke="black" stroke-width="1" /><polygon fill="#CCCCCC" points="840.0,-9.94228634059948 847.5,-35.923048454132626 877.5,-35.923048454132626" stroke="black" stroke-width="1" /><polygon fill="#CCCCCC" points="772.5,223.88457268119896 802.5,223.88457268119896 810.0,197.90381056766577" stroke="black" stroke-width="1" /><polygon fill="#CCCCCC" points="780.0,197.90381056766577 810.0,197.90381056766577 817.5,171.92304845413264" stroke="black" stroke-width="1" /><polygon fill="#CCCCCC" points="787.5,171.92304845413264 817.5,171.92304845413264 825.0,145.94228634059948" stroke="black" stroke-width="1" /><polygon fill="#CCCCCC" points="795.0,145.94228634059948 825.0,145.94228634059948 832.5,119.96152422706632" stroke="black" stroke-width="1" /><polygon fill="#CCCCCC" points="802.5,119.96152422706632 832.5,119.96152422706632 840.0,93.98076211353316" stroke="black" stroke-width="1" /><polygon fill="#CCCCCC" points="810.0,93.98076211353316 840.0,93.98076211353316 847.5,68.0" stroke="black" stroke-width="1" /><polygon fill="#CCCCCC" points="817.5,68.0 847.5,68.0 855.0,42.01923788646684" stroke="black" stroke-width="1" /><polygon fill="#CCCCCC" points="825.0,42.01923788646684 855.0,42.01923788646684 862.5,16.038475772933687" stroke="black" stroke-width="1" /><polygon fill="#CCCCCC" points="832.5,16.038475772933687 862.5,16.038475772933687 870.0,-9.94228634059948" stroke="black" stroke-width="1" /><polygon fill="#CCCCCC" points="840.0,-9.94228634059948 870.0,-9.94228634059948 877.5,-35.923048454132626" stroke="black" stroke-width="1" /><line stroke="black" stroke-width="3" x1="25.5" x2="85.5" y1="112.16729559300637" y2="112.16729559300637" /><line stroke="black" stroke-width="3" x1="85.5" x2="123.0" y1="112.16729559300637" y2="86.18653347947321" /><line stroke="black" stroke-width="3" x1="123.0" x2="138.0" y1="86.18653347947321" y2="34.2250092524069" /><line stroke="black" stroke-width="3" x1="138.0" x2="78.0" y1="34.2250092524069" y2="34.2250092524069" /><line stroke="black" stroke-width="3" x1="78.0" x2="40.5" y1="34.2250092524069" y2="60.20577136594005" /><line stroke="black" stroke-width="3" x1="40.5" x2="25.5" y1="60.20577136594005" y2="112.16729559300637" /><line stroke="black" stroke-width="3" x1="33.0" x2="93.0" y1="86.18653347947321" y2="86.18653347947321" /><line stroke="black" stroke-width="3" x1="70.5" x2="130.5" y1="60.20577136594005" y2="60.20577136594005" /><line stroke="black" stroke-width="3" x1="145.5" x2="205.5" y1="112.16729559300637" y2="112.16729559300637" /><line stroke="black" stroke-width="3" x1="205.5" x2="243.0" y1="112.16729559300637" y2="86.18653347947321" /><line stroke="black" stroke-width="3" x1="243.0" x2="258.0" y1="86.18653347947321" y2="34.2250092524069" /><line stroke="black" stroke-width="3" x1="258.0" x2="228.0" y1="34.2250092524069" y2="34.2250092524069" /><line stroke="black" stroke-width="3" x1="228.0" x2="220.5" y1="34.2250092524069" y2="60.20577136594005" /><line stroke="black" stroke-width="3" x1="220.5" x2="190.5" y1="60.20577136594005" y2="60.20577136594005" /><line stroke="black" stroke-width="3" x1="190.5" x2="198.0" y1="60.20577136594005" y2="34.2250092524069" /><line stroke="black" stroke-width="3" x1="198.0" x2="160.5" y1="34.2250092524069" y2="60.20577136594005" /><line stroke="black" stroke-width="3" x1="160.5" x2="145.5" y1="60.20577136594005" y2="112.16729559300637" /><line stroke="black" stroke-width="3" x1="153.0" x2="213.0" y1="86.18653347947321" y2="86.18653347947321" /><line stroke="black" stroke-width="3" x1="265.5" x2="295.5" y1="112.16729559300637" y2="112.16729559300637" /><line stroke="black" stroke-width="3" x1="295.5" x2="303.0" y1="112.16729559300637" y2="86.18653347947321" /><line stroke="black" stroke-width="3" x1="303.0" x2="333.0" y1="86.18653347947321" y2="86.18653347947321" /><line stroke="black" stroke-width="3" x1="333.0" x2="325.5" y1="86.18653347947321" y2="112.16729559300637" /><line stroke="black" stroke-width="3" x1="325.5" x2="363.0" y1="112.16729559300637" y2="86.18653347947321" /><line stroke="black" stroke-width="3" x1="363.0" x2="378.0" y1="86.18653347947321" y2="34.2250092524069" /><line stroke="black" stroke-width="3" x1="378.0" x2="318.0" y1="34.2250092524069" y2="34.2250092524069" /><line stroke="black" stroke-width="3" x1="318.0" x2="280.5" y1="34.2250092524069" y2="60.20577136594005" /><line stroke="black" stroke-width="3" x1="280.5" x2="265.5" y1="60.20577136594005" y2="112.16729559300637" /><line stroke="black" stroke-width="3" x1="303.0" x2="310.5" y1="86.18653347947321" y2="60.20577136594005" /><line stroke="black" stroke-width="3" x1="333.0" x2="340.5" y1="86.18653347947321" y2="60.20577136594005" /><line stroke="black" stroke-width="3" x1="385.5" x2="415.5" y1="112.16729559300637" y2="112.16729559300637" /><line stroke="black" stroke-width="3" x1="415.5" x2="423.0" y1="112.16729559300637" y2="86.18653347947321" /><line stroke="black" stroke-width="3" x1="423.0" x2="453.0" y1="86.18653347947321" y2="86.18653347947321" /><line stroke="black" stroke-width="3" x1="453.0" x2="460.5" y1="86.18653347947321" y2="60.20577136594005" /><line stroke="black" stroke-width="3" x1="460.5" x2="490.5" y1="60.20577136594005" y2="60.20577136594005" /><line stroke="black" stroke-width="3" x1="490.5" x2="498.0" y1="60.20577136594005" y2="34.2250092524069" /><line stroke="black" stroke-width="3" x1="498.0" x2="438.0" y1="34.2250092524069" y2="34.2250092524069" /><line stroke="black" stroke-width="3" x1="438.0" x2="400.5" y1="34.2250092524069" y2="60.20577136594005" /><line stroke="black" stroke-width="3" x1="400.5" x2="385.5" y1="60.20577136594005" y2="112.16729559300637" /><line stroke="black" stroke-width="3" x1="430.5" x2="460.5" y1="60.20577136594005" y2="60.20577136594005" /><line stroke="black" stroke-width="3" x1="505.5" x2="565.5" y1="112.16729559300637" y2="112.16729559300637" /><line stroke="black" stroke-width="3" x1="565.5" x2="603.0" y1="112.16729559300637" y2="86.18653347947321" /><line stroke="black" stroke-width="3" x1="603.0" x2="573.0" y1="86.18653347947321" y2="86.18653347947321" /><line stroke="black" stroke-width="3" x1="573.0" x2="580.5" y1="86.18653347947321" y2="60.20577136594005" /><line stroke="black" stroke-width="3" x1="580.5" x2="610.5" y1="60.20577136594005" y2="60.20577136594005" /><line stroke="black" stroke-width="3" x1="610.5" x2="618.0" y1="60.20577136594005" y2="34.2250092524069" /><line stroke="black" stroke-width="3" x1="618.0" x2="558.0" y1="34.2250092524069" y2="34.2250092524069" /><line stroke="black" stroke-width="3" x1="558.0" x2="520.5" y1="34.2250092524069" y2="60.20577136594005" /><line stroke="black" stroke-width="3" x1="520.5" x2="505.5" y1="60.20577136594005" y2="112.16729559300637" /><line stroke="black" stroke-width="3" x1="543.0" x2="573.0" y1="86.18653347947321" y2="86.18653347947321" /><line stroke="black" stroke-width="3" x1="550.5" x2="580.5" y1="60.20577136594005" y2="60.20577136594005" /><line stroke="black" stroke-width="3" x1="625.5" x2="655.5" y1="112.16729559300637" y2="112.16729559300637" /><line stroke="black" stroke-width="3" x1="655.5" x2="663.0" y1="112.16729559300637" y2="86.18653347947321" /><line stroke="black" stroke-width="3" x1="663.0" x2="693.0" y1="86.18653347947321" y2="86.18653347947321" /><line stroke="black" stroke-width="3" x1="693.0" x2="685.5" y1="86.18653347947321" y2="112.16729559300637" /><line stroke="black" stroke-width="3" x1="685.5" x2="723.0" y1="112.16729559300637" y2="86.18653347947321" /><line stroke="black" stroke-width="3" x1="723.0" x2="738.0" y1="86.18653347947321" y2="34.2250092524069" /><line stroke="black" stroke-width="3" x1="738.0" x2="678.0" y1="34.2250092524069" y2="34.2250092524069" /><line stroke="black" stroke-width="3" x1="678.0" x2="640.5" y1="34.2250092524069" y2="60.20577136594005" /><line stroke="black" stroke-width="3" x1="640.5" x2="625.5" y1="60.20577136594005" y2="112.16729559300637" /><line stroke="black" stroke-width="3" x1="663.0" x2="670.5" y1="86.18653347947321" y2="60.20577136594005" /><line stroke="black" stroke-width="3" x1="693.0" x2="700.5" y1="86.18653347947321" y2="60.20577136594005" /></svg>